<?xml version="1.0" encoding="utf-8" ?>
<svg baseProfile="full" height="100%" version="1.1" width="100%" xmlns="http://www.w3.org/2000/svg" xmlns:ev="http://www.w3.org/2001/xml-events" xmlns:xlink="http://www.w3.org/1999/xlink"><defs /><circle cx="27" cy="0" fill="black" r="0.5" /><circle cx="28" cy="0" fill="black" r="0.5" /><circle cx="29" cy="0" fill="black" r="0.5" /><circle cx="30" cy="0" fill="black" r="0.5" /><circle cx="31" cy="0" fill="black" r="0.5" /><circle cx="32" cy="0" fill="black" r="0.5" /><circle cx="33" cy="0" fill="black" r="0.5" /><circle cx="34" cy="0" fill="black" r="0.5" /><circle cx="35" cy="0" fill="black" r="0.5" /><circle cx="36" cy="0" fill="black" r="0.5" /><circle cx="25" cy="1" fill="black" r="0.5" /><circle cx="26" cy="1" fill="black" r="0.5" /><circle cx="27" cy="1" fill="black" r="0.5" /><circle cx="28" cy="1" fill="black" r="0.5" /><circle cx="29" cy="1" fill="black" r="0.5" /><circle cx="34" cy="1" fill="black" r="0.5" /><circle cx="35" cy="1" fill="black" r="0.5" /><circle cx="36" cy="1" fill="black" r="0.5" /><circle cx="37" cy="1" fill="black" r="0.5" /><circle cx="38" cy="1" fill="black" r="0.5" /><circle cx="23" cy="2" fill="black" r="0.5" /><circle cx="24" cy="2" fill="black" r="0.5" /><circle cx="25" cy="2" fill="black" r="0.5" /><circle cx="26" cy="2" fill="black" r="0.5" /><circle cx="27" cy="2" fill="black" r="0.5" /><circle cx="36" cy="2" fill="black" r="0.5" /><circle cx="37" cy="2" fill="black" r="0.5" /><circle cx="38" cy="2" fill="black" r="0.5" /><circle cx="39" cy="2" fill="black" r="0.5" /><circle cx="40" cy="2" fill="black" r="0.5" /><circle cx="20" cy="3" fill="black" r="0.5" /><circle cx="21" cy="3" fill="black" r="0.5" /><circle cx="22" cy="3" fill="black" r="0.5" /><circle cx="23" cy="3" fill="black" r="0.5" /><circle cx="24" cy="3" fill="black" r="0.5" /><circle cx="25" cy="3" fill="black" r="0.5" /><circle cx="30" cy="3" fill="black" r="0.5" /><circle cx="31" cy="3" fill="black" r="0.5" /><circle cx="32" cy="3" fill="black" r="0.5" /><circle cx="33" cy="3" fill="black" r="0.5" /><circle cx="39" cy="3" fill="black" r="0.5" /><circle cx="40" cy="3" fill="black" r="0.5" /><circle cx="41" cy="3" fill="black" r="0.5" /><circle cx="42" cy="3" fill="black" r="0.5" /><circle cx="43" cy="3" fill="black" r="0.5" /><circle cx="18" cy="4" fill="black" r="0.5" /><circle cx="19" cy="4" fill="black" r="0.5" /><circle cx="20" cy="4" fill="black" r="0.5" /><circle cx="21" cy="4" fill="black" r="0.5" /><circle cx="22" cy="4" fill="black" r="0.5" /><circle cx="28" cy="4" fill="black" r="0.5" /><circle cx="29" cy="4" fill="black" r="0.5" /><circle cx="30" cy="4" fill="black" r="0.5" /><circle cx="31" cy="4" fill="black" r="0.5" /><circle cx="32" cy="4" fill="black" r="0.5" /><circle cx="33" cy="4" fill="black" r="0.5" /><circle cx="34" cy="4" fill="black" r="0.5" /><circle cx="35" cy="4" fill="black" r="0.5" /><circle cx="41" cy="4" fill="black" r="0.5" /><circle cx="42" cy="4" fill="black" r="0.5" /><circle cx="43" cy="4" fill="black" r="0.5" /><circle cx="44" cy="4" fill="black" r="0.5" /><circle cx="45" cy="4" fill="black" r="0.5" /><circle cx="16" cy="5" fill="black" r="0.5" /><circle cx="17" cy="5" fill="black" r="0.5" /><circle cx="18" cy="5" fill="black" r="0.5" /><circle cx="19" cy="5" fill="black" r="0.5" /><circle cx="20" cy="5" fill="black" r="0.5" /><circle cx="26" cy="5" fill="black" r="0.5" /><circle cx="27" cy="5" fill="black" r="0.5" /><circle cx="28" cy="5" fill="black" r="0.5" /><circle cx="29" cy="5" fill="black" r="0.5" /><circle cx="30" cy="5" fill="black" r="0.5" /><circle cx="33" cy="5" fill="black" r="0.5" /><circle cx="34" cy="5" fill="black" r="0.5" /><circle cx="35" cy="5" fill="black" r="0.5" /><circle cx="36" cy="5" fill="black" r="0.5" /><circle cx="37" cy="5" fill="black" r="0.5" /><circle cx="43" cy="5" fill="black" r="0.5" /><circle cx="44" cy="5" fill="black" r="0.5" /><circle cx="45" cy="5" fill="black" r="0.5" /><circle cx="46" cy="5" fill="black" r="0.5" /><circle cx="47" cy="5" fill="black" r="0.5" /><circle cx="14" cy="6" fill="black" r="0.5" /><circle cx="15" cy="6" fill="black" r="0.5" /><circle cx="16" cy="6" fill="black" r="0.5" /><circle cx="17" cy="6" fill="black" r="0.5" /><circle cx="18" cy="6" fill="black" r="0.5" /><circle cx="24" cy="6" fill="black" r="0.5" /><circle cx="25" cy="6" fill="black" r="0.5" /><circle cx="26" cy="6" fill="black" r="0.5" /><circle cx="27" cy="6" fill="black" r="0.5" /><circle cx="28" cy="6" fill="black" r="0.5" /><circle cx="35" cy="6" fill="black" r="0.5" /><circle cx="36" cy="6" fill="black" r="0.5" /><circle cx="37" cy="6" fill="black" r="0.5" /><circle cx="38" cy="6" fill="black" r="0.5" /><circle cx="39" cy="6" fill="black" r="0.5" /><circle cx="40" cy="6" fill="black" r="0.5" /><circle cx="45" cy="6" fill="black" r="0.5" /><circle cx="46" cy="6" fill="black" r="0.5" /><circle cx="47" cy="6" fill="black" r="0.5" /><circle cx="48" cy="6" fill="black" r="0.5" /><circle cx="49" cy="6" fill="black" r="0.5" /><circle cx="12" cy="7" fill="black" r="0.5" /><circle cx="13" cy="7" fill="black" r="0.5" /><circle cx="14" cy="7" fill="black" r="0.5" /><circle cx="15" cy="7" fill="black" r="0.5" /><circle cx="16" cy="7" fill="black" r="0.5" /><circle cx="21" cy="7" fill="black" r="0.5" /><circle cx="22" cy="7" fill="black" r="0.5" /><circle cx="23" cy="7" fill="black" r="0.5" /><circle cx="24" cy="7" fill="black" r="0.5" /><circle cx="25" cy="7" fill="black" r="0.5" /><circle cx="38" cy="7" fill="black" r="0.5" /><circle cx="39" cy="7" fill="black" r="0.5" /><circle cx="40" cy="7" fill="black" r="0.5" /><circle cx="41" cy="7" fill="black" r="0.5" /><circle cx="42" cy="7" fill="black" r="0.5" /><circle cx="47" cy="7" fill="black" r="0.5" /><circle cx="48" cy="7" fill="black" r="0.5" /><circle cx="49" cy="7" fill="black" r="0.5" /><circle cx="50" cy="7" fill="black" r="0.5" /><circle cx="51" cy="7" fill="black" r="0.5" /><circle cx="10" cy="8" fill="black" r="0.5" /><circle cx="11" cy="8" fill="black" r="0.5" /><circle cx="12" cy="8" fill="black" r="0.5" /><circle cx="13" cy="8" fill="black" r="0.5" /><circle cx="14" cy="8" fill="black" r="0.5" /><circle cx="21" cy="8" fill="black" r="0.5" /><circle cx="22" cy="8" fill="black" r="0.5" /><circle cx="23" cy="8" fill="black" r="0.5" /><circle cx="24" cy="8" fill="black" r="0.5" /><circle cx="40" cy="8" fill="black" r="0.5" /><circle cx="41" cy="8" fill="black" r="0.5" /><circle cx="42" cy="8" fill="black" r="0.5" /><circle cx="43" cy="8" fill="black" r="0.5" /><circle cx="44" cy="8" fill="black" r="0.5" /><circle cx="49" cy="8" fill="black" r="0.5" /><circle cx="50" cy="8" fill="black" r="0.5" /><circle cx="51" cy="8" fill="black" r="0.5" /><circle cx="52" cy="8" fill="black" r="0.5" /><circle cx="53" cy="8" fill="black" r="0.5" /><circle cx="8" cy="9" fill="black" r="0.5" /><circle cx="9" cy="9" fill="black" r="0.5" /><circle cx="10" cy="9" fill="black" r="0.5" /><circle cx="11" cy="9" fill="black" r="0.5" /><circle cx="12" cy="9" fill="black" r="0.5" /><circle cx="22" cy="9" fill="black" r="0.5" /><circle cx="23" cy="9" fill="black" r="0.5" /><circle cx="24" cy="9" fill="black" r="0.5" /><circle cx="25" cy="9" fill="black" r="0.5" /><circle cx="26" cy="9" fill="black" r="0.5" /><circle cx="42" cy="9" fill="black" r="0.5" /><circle cx="43" cy="9" fill="black" r="0.5" /><circle cx="44" cy="9" fill="black" r="0.5" /><circle cx="45" cy="9" fill="black" r="0.5" /><circle cx="46" cy="9" fill="black" r="0.5" /><circle cx="51" cy="9" fill="black" r="0.5" /><circle cx="52" cy="9" fill="black" r="0.5" /><circle cx="53" cy="9" fill="black" r="0.5" /><circle cx="54" cy="9" fill="black" r="0.5" /><circle cx="55" cy="9" fill="black" r="0.5" /><circle cx="5" cy="10" fill="black" r="0.5" /><circle cx="6" cy="10" fill="black" r="0.5" /><circle cx="7" cy="10" fill="black" r="0.5" /><circle cx="8" cy="10" fill="black" r="0.5" /><circle cx="9" cy="10" fill="black" r="0.5" /><circle cx="10" cy="10" fill="black" r="0.5" /><circle cx="15" cy="10" fill="black" r="0.5" /><circle cx="16" cy="10" fill="black" r="0.5" /><circle cx="17" cy="10" fill="black" r="0.5" /><circle cx="18" cy="10" fill="black" r="0.5" /><circle cx="24" cy="10" fill="black" r="0.5" /><circle cx="25" cy="10" fill="black" r="0.5" /><circle cx="26" cy="10" fill="black" r="0.5" /><circle cx="27" cy="10" fill="black" r="0.5" /><circle cx="28" cy="10" fill="black" r="0.5" /><circle cx="29" cy="10" fill="black" r="0.5" /><circle cx="44" cy="10" fill="black" r="0.5" /><circle cx="45" cy="10" fill="black" r="0.5" /><circle cx="46" cy="10" fill="black" r="0.5" /><circle cx="47" cy="10" fill="black" r="0.5" /><circle cx="48" cy="10" fill="black" r="0.5" /><circle cx="54" cy="10" fill="black" r="0.5" /><circle cx="55" cy="10" fill="black" r="0.5" /><circle cx="56" cy="10" fill="black" r="0.5" /><circle cx="57" cy="10" fill="black" r="0.5" /><circle cx="58" cy="10" fill="black" r="0.5" /><circle cx="3" cy="11" fill="black" r="0.5" /><circle cx="4" cy="11" fill="black" r="0.5" /><circle cx="5" cy="11" fill="black" r="0.5" /><circle cx="6" cy="11" fill="black" r="0.5" /><circle cx="7" cy="11" fill="black" r="0.5" /><circle cx="13" cy="11" fill="black" r="0.5" /><circle cx="14" cy="11" fill="black" r="0.5" /><circle cx="15" cy="11" fill="black" r="0.5" /><circle cx="16" cy="11" fill="black" r="0.5" /><circle cx="17" cy="11" fill="black" r="0.5" /><circle cx="18" cy="11" fill="black" r="0.5" /><circle cx="19" cy="11" fill="black" r="0.5" /><circle cx="20" cy="11" fill="black" r="0.5" /><circle cx="21" cy="11" fill="black" r="0.5" /><circle cx="26" cy="11" fill="black" r="0.5" /><circle cx="27" cy="11" fill="black" r="0.5" /><circle cx="28" cy="11" fill="black" r="0.5" /><circle cx="29" cy="11" fill="black" r="0.5" /><circle cx="30" cy="11" fill="black" r="0.5" /><circle cx="31" cy="11" fill="black" r="0.5" /><circle cx="46" cy="11" fill="black" r="0.5" /><circle cx="47" cy="11" fill="black" r="0.5" /><circle cx="48" cy="11" fill="black" r="0.5" /><circle cx="49" cy="11" fill="black" r="0.5" /><circle cx="50" cy="11" fill="black" r="0.5" /><circle cx="56" cy="11" fill="black" r="0.5" /><circle cx="57" cy="11" fill="black" r="0.5" /><circle cx="58" cy="11" fill="black" r="0.5" /><circle cx="59" cy="11" fill="black" r="0.5" /><circle cx="60" cy="11" fill="black" r="0.5" /><circle cx="1" cy="12" fill="black" r="0.5" /><circle cx="2" cy="12" fill="black" r="0.5" /><circle cx="3" cy="12" fill="black" r="0.5" /><circle cx="4" cy="12" fill="black" r="0.5" /><circle cx="5" cy="12" fill="black" r="0.5" /><circle cx="11" cy="12" fill="black" r="0.5" /><circle cx="12" cy="12" fill="black" r="0.5" /><circle cx="13" cy="12" fill="black" r="0.5" /><circle cx="14" cy="12" fill="black" r="0.5" /><circle cx="15" cy="12" fill="black" r="0.5" /><circle cx="19" cy="12" fill="black" r="0.5" /><circle cx="20" cy="12" fill="black" r="0.5" /><circle cx="21" cy="12" fill="black" r="0.5" /><circle cx="22" cy="12" fill="black" r="0.5" /><circle cx="23" cy="12" fill="black" r="0.5" /><circle cx="29" cy="12" fill="black" r="0.5" /><circle cx="30" cy="12" fill="black" r="0.5" /><circle cx="31" cy="12" fill="black" r="0.5" /><circle cx="32" cy="12" fill="black" r="0.5" /><circle cx="33" cy="12" fill="black" r="0.5" /><circle cx="48" cy="12" fill="black" r="0.5" /><circle cx="49" cy="12" fill="black" r="0.5" /><circle cx="50" cy="12" fill="black" r="0.5" /><circle cx="51" cy="12" fill="black" r="0.5" /><circle cx="52" cy="12" fill="black" r="0.5" /><circle cx="58" cy="12" fill="black" r="0.5" /><circle cx="59" cy="12" fill="black" r="0.5" /><circle cx="60" cy="12" fill="black" r="0.5" /><circle cx="61" cy="12" fill="black" r="0.5" /><circle cx="62" cy="12" fill="black" r="0.5" /><circle cx="0" cy="13" fill="black" r="0.5" /><circle cx="1" cy="13" fill="black" r="0.5" /><circle cx="2" cy="13" fill="black" r="0.5" /><circle cx="3" cy="13" fill="black" r="0.5" /><circle cx="8" cy="13" fill="black" r="0.5" /><circle cx="9" cy="13" fill="black" r="0.5" /><circle cx="10" cy="13" fill="black" r="0.5" /><circle cx="11" cy="13" fill="black" r="0.5" /><circle cx="12" cy="13" fill="black" r="0.5" /><circle cx="13" cy="13" fill="black" r="0.5" /><circle cx="21" cy="13" fill="black" r="0.5" /><circle cx="22" cy="13" fill="black" r="0.5" /><circle cx="23" cy="13" fill="black" r="0.5" /><circle cx="24" cy="13" fill="black" r="0.5" /><circle cx="25" cy="13" fill="black" r="0.5" /><circle cx="31" cy="13" fill="black" r="0.5" /><circle cx="32" cy="13" fill="black" r="0.5" /><circle cx="33" cy="13" fill="black" r="0.5" /><circle cx="34" cy="13" fill="black" r="0.5" /><circle cx="35" cy="13" fill="black" r="0.5" /><circle cx="36" cy="13" fill="black" r="0.5" /><circle cx="50" cy="13" fill="black" r="0.5" /><circle cx="51" cy="13" fill="black" r="0.5" /><circle cx="52" cy="13" fill="black" r="0.5" /><circle cx="53" cy="13" fill="black" r="0.5" /><circle cx="54" cy="13" fill="black" r="0.5" /><circle cx="55" cy="13" fill="black" r="0.5" /><circle cx="60" cy="13" fill="black" r="0.5" /><circle cx="61" cy="13" fill="black" r="0.5" /><circle cx="62" cy="13" fill="black" r="0.5" /><circle cx="63" cy="13" fill="black" r="0.5" /><circle cx="0" cy="14" fill="black" r="0.5" /><circle cx="1" cy="14" fill="black" r="0.5" /><circle cx="7" cy="14" fill="black" r="0.5" /><circle cx="8" cy="14" fill="black" r="0.5" /><circle cx="9" cy="14" fill="black" r="0.5" /><circle cx="10" cy="14" fill="black" r="0.5" /><circle cx="23" cy="14" fill="black" r="0.5" /><circle cx="24" cy="14" fill="black" r="0.5" /><circle cx="25" cy="14" fill="black" r="0.5" /><circle cx="26" cy="14" fill="black" r="0.5" /><circle cx="27" cy="14" fill="black" r="0.5" /><circle cx="28" cy="14" fill="black" r="0.5" /><circle cx="34" cy="14" fill="black" r="0.5" /><circle cx="35" cy="14" fill="black" r="0.5" /><circle cx="36" cy="14" fill="black" r="0.5" /><circle cx="37" cy="14" fill="black" r="0.5" /><circle cx="38" cy="14" fill="black" r="0.5" /><circle cx="53" cy="14" fill="black" r="0.5" /><circle cx="54" cy="14" fill="black" r="0.5" /><circle cx="55" cy="14" fill="black" r="0.5" /><circle cx="56" cy="14" fill="black" r="0.5" /><circle cx="62" cy="14" fill="black" r="0.5" /><circle cx="63" cy="14" fill="black" r="0.5" /><circle cx="0" cy="15" fill="black" r="0.5" /><circle cx="7" cy="15" fill="black" r="0.5" /><circle cx="8" cy="15" fill="black" r="0.5" /><circle cx="9" cy="15" fill="black" r="0.5" /><circle cx="26" cy="15" fill="black" r="0.5" /><circle cx="27" cy="15" fill="black" r="0.5" /><circle cx="28" cy="15" fill="black" r="0.5" /><circle cx="29" cy="15" fill="black" r="0.5" /><circle cx="30" cy="15" fill="black" r="0.5" /><circle cx="36" cy="15" fill="black" r="0.5" /><circle cx="37" cy="15" fill="black" r="0.5" /><circle cx="38" cy="15" fill="black" r="0.5" /><circle cx="39" cy="15" fill="black" r="0.5" /><circle cx="40" cy="15" fill="black" r="0.5" /><circle cx="54" cy="15" fill="black" r="0.5" /><circle cx="55" cy="15" fill="black" r="0.5" /><circle cx="56" cy="15" fill="black" r="0.5" /><circle cx="63" cy="15" fill="black" r="0.5" /><circle cx="7" cy="16" fill="black" r="0.5" /><circle cx="8" cy="16" fill="black" r="0.5" /><circle cx="9" cy="16" fill="black" r="0.5" /><circle cx="10" cy="16" fill="black" r="0.5" /><circle cx="11" cy="16" fill="black" r="0.5" /><circle cx="12" cy="16" fill="black" r="0.5" /><circle cx="28" cy="16" fill="black" r="0.5" /><circle cx="29" cy="16" fill="black" r="0.5" /><circle cx="30" cy="16" fill="black" r="0.5" /><circle cx="31" cy="16" fill="black" r="0.5" /><circle cx="32" cy="16" fill="black" r="0.5" /><circle cx="33" cy="16" fill="black" r="0.5" /><circle cx="38" cy="16" fill="black" r="0.5" /><circle cx="39" cy="16" fill="black" r="0.5" /><circle cx="40" cy="16" fill="black" r="0.5" /><circle cx="41" cy="16" fill="black" r="0.5" /><circle cx="42" cy="16" fill="black" r="0.5" /><circle cx="43" cy="16" fill="black" r="0.5" /><circle cx="51" cy="16" fill="black" r="0.5" /><circle cx="52" cy="16" fill="black" r="0.5" /><circle cx="53" cy="16" fill="black" r="0.5" /><circle cx="54" cy="16" fill="black" r="0.5" /><circle cx="55" cy="16" fill="black" r="0.5" /><circle cx="56" cy="16" fill="black" r="0.5" /><circle cx="4" cy="17" fill="black" r="0.5" /><circle cx="10" cy="17" fill="black" r="0.5" /><circle cx="11" cy="17" fill="black" r="0.5" /><circle cx="12" cy="17" fill="black" r="0.5" /><circle cx="13" cy="17" fill="black" r="0.5" /><circle cx="14" cy="17" fill="black" r="0.5" /><circle cx="30" cy="17" fill="black" r="0.5" /><circle cx="31" cy="17" fill="black" r="0.5" /><circle cx="32" cy="17" fill="black" r="0.5" /><circle cx="33" cy="17" fill="black" r="0.5" /><circle cx="34" cy="17" fill="black" r="0.5" /><circle cx="35" cy="17" fill="black" r="0.5" /><circle cx="41" cy="17" fill="black" r="0.5" /><circle cx="42" cy="17" fill="black" r="0.5" /><circle cx="43" cy="17" fill="black" r="0.5" /><circle cx="44" cy="17" fill="black" r="0.5" /><circle cx="45" cy="17" fill="black" r="0.5" /><circle cx="49" cy="17" fill="black" r="0.5" /><circle cx="50" cy="17" fill="black" r="0.5" /><circle cx="51" cy="17" fill="black" r="0.5" /><circle cx="52" cy="17" fill="black" r="0.5" /><circle cx="53" cy="17" fill="black" r="0.5" /><circle cx="54" cy="17" fill="black" r="0.5" /><circle cx="59" cy="17" fill="black" r="0.5" /><circle cx="4" cy="18" fill="black" r="0.5" /><circle cx="5" cy="18" fill="black" r="0.5" /><circle cx="6" cy="18" fill="black" r="0.5" /><circle cx="12" cy="18" fill="black" r="0.5" /><circle cx="13" cy="18" fill="black" r="0.5" /><circle cx="14" cy="18" fill="black" r="0.5" /><circle cx="15" cy="18" fill="black" r="0.5" /><circle cx="16" cy="18" fill="black" r="0.5" /><circle cx="17" cy="18" fill="black" r="0.5" /><circle cx="33" cy="18" fill="black" r="0.5" /><circle cx="34" cy="18" fill="black" r="0.5" /><circle cx="35" cy="18" fill="black" r="0.5" /><circle cx="36" cy="18" fill="black" r="0.5" /><circle cx="37" cy="18" fill="black" r="0.5" /><circle cx="43" cy="18" fill="black" r="0.5" /><circle cx="44" cy="18" fill="black" r="0.5" /><circle cx="45" cy="18" fill="black" r="0.5" /><circle cx="46" cy="18" fill="black" r="0.5" /><circle cx="47" cy="18" fill="black" r="0.5" /><circle cx="48" cy="18" fill="black" r="0.5" /><circle cx="49" cy="18" fill="black" r="0.5" /><circle cx="50" cy="18" fill="black" r="0.5" /><circle cx="51" cy="18" fill="black" r="0.5" /><circle cx="57" cy="18" fill="black" r="0.5" /><circle cx="58" cy="18" fill="black" r="0.5" /><circle cx="59" cy="18" fill="black" r="0.5" /><circle cx="4" cy="19" fill="black" r="0.5" /><circle cx="5" cy="19" fill="black" r="0.5" /><circle cx="6" cy="19" fill="black" r="0.5" /><circle cx="7" cy="19" fill="black" r="0.5" /><circle cx="8" cy="19" fill="black" r="0.5" /><circle cx="9" cy="19" fill="black" r="0.5" /><circle cx="14" cy="19" fill="black" r="0.5" /><circle cx="15" cy="19" fill="black" r="0.5" /><circle cx="16" cy="19" fill="black" r="0.5" /><circle cx="17" cy="19" fill="black" r="0.5" /><circle cx="18" cy="19" fill="black" r="0.5" /><circle cx="19" cy="19" fill="black" r="0.5" /><circle cx="35" cy="19" fill="black" r="0.5" /><circle cx="36" cy="19" fill="black" r="0.5" /><circle cx="37" cy="19" fill="black" r="0.5" /><circle cx="38" cy="19" fill="black" r="0.5" /><circle cx="39" cy="19" fill="black" r="0.5" /><circle cx="40" cy="19" fill="black" r="0.5" /><circle cx="45" cy="19" fill="black" r="0.5" /><circle cx="46" cy="19" fill="black" r="0.5" /><circle cx="47" cy="19" fill="black" r="0.5" /><circle cx="48" cy="19" fill="black" r="0.5" /><circle cx="49" cy="19" fill="black" r="0.5" /><circle cx="55" cy="19" fill="black" r="0.5" /><circle cx="56" cy="19" fill="black" r="0.5" /><circle cx="57" cy="19" fill="black" r="0.5" /><circle cx="58" cy="19" fill="black" r="0.5" /><circle cx="59" cy="19" fill="black" r="0.5" /><circle cx="6" cy="20" fill="black" r="0.5" /><circle cx="7" cy="20" fill="black" r="0.5" /><circle cx="8" cy="20" fill="black" r="0.5" /><circle cx="9" cy="20" fill="black" r="0.5" /><circle cx="10" cy="20" fill="black" r="0.5" /><circle cx="11" cy="20" fill="black" r="0.5" /><circle cx="17" cy="20" fill="black" r="0.5" /><circle cx="18" cy="20" fill="black" r="0.5" /><circle cx="19" cy="20" fill="black" r="0.5" /><circle cx="20" cy="20" fill="black" r="0.5" /><circle cx="21" cy="20" fill="black" r="0.5" /><circle cx="22" cy="20" fill="black" r="0.5" /><circle cx="37" cy="20" fill="black" r="0.5" /><circle cx="38" cy="20" fill="black" r="0.5" /><circle cx="39" cy="20" fill="black" r="0.5" /><circle cx="40" cy="20" fill="black" r="0.5" /><circle cx="41" cy="20" fill="black" r="0.5" /><circle cx="42" cy="20" fill="black" r="0.5" /><circle cx="52" cy="20" fill="black" r="0.5" /><circle cx="53" cy="20" fill="black" r="0.5" /><circle cx="54" cy="20" fill="black" r="0.5" /><circle cx="55" cy="20" fill="black" r="0.5" /><circle cx="56" cy="20" fill="black" r="0.5" /><circle cx="57" cy="20" fill="black" r="0.5" /><circle cx="9" cy="21" fill="black" r="0.5" /><circle cx="10" cy="21" fill="black" r="0.5" /><circle cx="11" cy="21" fill="black" r="0.5" /><circle cx="12" cy="21" fill="black" r="0.5" /><circle cx="13" cy="21" fill="black" r="0.5" /><circle cx="14" cy="21" fill="black" r="0.5" /><circle cx="19" cy="21" fill="black" r="0.5" /><circle cx="20" cy="21" fill="black" r="0.5" /><circle cx="21" cy="21" fill="black" r="0.5" /><circle cx="22" cy="21" fill="black" r="0.5" /><circle cx="23" cy="21" fill="black" r="0.5" /><circle cx="24" cy="21" fill="black" r="0.5" /><circle cx="39" cy="21" fill="black" r="0.5" /><circle cx="40" cy="21" fill="black" r="0.5" /><circle cx="41" cy="21" fill="black" r="0.5" /><circle cx="42" cy="21" fill="black" r="0.5" /><circle cx="50" cy="21" fill="black" r="0.5" /><circle cx="51" cy="21" fill="black" r="0.5" /><circle cx="52" cy="21" fill="black" r="0.5" /><circle cx="53" cy="21" fill="black" r="0.5" /><circle cx="54" cy="21" fill="black" r="0.5" /><circle cx="11" cy="22" fill="black" r="0.5" /><circle cx="12" cy="22" fill="black" r="0.5" /><circle cx="13" cy="22" fill="black" r="0.5" /><circle cx="14" cy="22" fill="black" r="0.5" /><circle cx="15" cy="22" fill="black" r="0.5" /><circle cx="16" cy="22" fill="black" r="0.5" /><circle cx="22" cy="22" fill="black" r="0.5" /><circle cx="23" cy="22" fill="black" r="0.5" /><circle cx="24" cy="22" fill="black" r="0.5" /><circle cx="25" cy="22" fill="black" r="0.5" /><circle cx="26" cy="22" fill="black" r="0.5" /><circle cx="27" cy="22" fill="black" r="0.5" /><circle cx="36" cy="22" fill="black" r="0.5" /><circle cx="37" cy="22" fill="black" r="0.5" /><circle cx="38" cy="22" fill="black" r="0.5" /><circle cx="39" cy="22" fill="black" r="0.5" /><circle cx="40" cy="22" fill="black" r="0.5" /><circle cx="41" cy="22" fill="black" r="0.5" /><circle cx="47" cy="22" fill="black" r="0.5" /><circle cx="48" cy="22" fill="black" r="0.5" /><circle cx="49" cy="22" fill="black" r="0.5" /><circle cx="50" cy="22" fill="black" r="0.5" /><circle cx="51" cy="22" fill="black" r="0.5" /><circle cx="52" cy="22" fill="black" r="0.5" /><circle cx="14" cy="23" fill="black" r="0.5" /><circle cx="15" cy="23" fill="black" r="0.5" /><circle cx="16" cy="23" fill="black" r="0.5" /><circle cx="17" cy="23" fill="black" r="0.5" /><circle cx="18" cy="23" fill="black" r="0.5" /><circle cx="19" cy="23" fill="black" r="0.5" /><circle cx="25" cy="23" fill="black" r="0.5" /><circle cx="26" cy="23" fill="black" r="0.5" /><circle cx="27" cy="23" fill="black" r="0.5" /><circle cx="28" cy="23" fill="black" r="0.5" /><circle cx="29" cy="23" fill="black" r="0.5" /><circle cx="34" cy="23" fill="black" r="0.5" /><circle cx="35" cy="23" fill="black" r="0.5" /><circle cx="36" cy="23" fill="black" r="0.5" /><circle cx="37" cy="23" fill="black" r="0.5" /><circle cx="38" cy="23" fill="black" r="0.5" /><circle cx="39" cy="23" fill="black" r="0.5" /><circle cx="45" cy="23" fill="black" r="0.5" /><circle cx="46" cy="23" fill="black" r="0.5" /><circle cx="47" cy="23" fill="black" r="0.5" /><circle cx="48" cy="23" fill="black" r="0.5" /><circle cx="49" cy="23" fill="black" r="0.5" /><circle cx="16" cy="24" fill="black" r="0.5" /><circle cx="17" cy="24" fill="black" r="0.5" /><circle cx="18" cy="24" fill="black" r="0.5" /><circle cx="19" cy="24" fill="black" r="0.5" /><circle cx="20" cy="24" fill="black" r="0.5" /><circle cx="21" cy="24" fill="black" r="0.5" /><circle cx="27" cy="24" fill="black" r="0.5" /><circle cx="28" cy="24" fill="black" r="0.5" /><circle cx="29" cy="24" fill="black" r="0.5" /><circle cx="30" cy="24" fill="black" r="0.5" /><circle cx="31" cy="24" fill="black" r="0.5" /><circle cx="32" cy="24" fill="black" r="0.5" /><circle cx="33" cy="24" fill="black" r="0.5" /><circle cx="34" cy="24" fill="black" r="0.5" /><circle cx="35" cy="24" fill="black" r="0.5" /><circle cx="36" cy="24" fill="black" r="0.5" /><circle cx="42" cy="24" fill="black" r="0.5" /><circle cx="43" cy="24" fill="black" r="0.5" /><circle cx="44" cy="24" fill="black" r="0.5" /><circle cx="45" cy="24" fill="black" r="0.5" /><circle cx="46" cy="24" fill="black" r="0.5" /><circle cx="47" cy="24" fill="black" r="0.5" /><circle cx="19" cy="25" fill="black" r="0.5" /><circle cx="20" cy="25" fill="black" r="0.5" /><circle cx="21" cy="25" fill="black" r="0.5" /><circle cx="22" cy="25" fill="black" r="0.5" /><circle cx="23" cy="25" fill="black" r="0.5" /><circle cx="24" cy="25" fill="black" r="0.5" /><circle cx="29" cy="25" fill="black" r="0.5" /><circle cx="30" cy="25" fill="black" r="0.5" /><circle cx="31" cy="25" fill="black" r="0.5" /><circle cx="32" cy="25" fill="black" r="0.5" /><circle cx="33" cy="25" fill="black" r="0.5" /><circle cx="34" cy="25" fill="black" r="0.5" /><circle cx="40" cy="25" fill="black" r="0.5" /><circle cx="41" cy="25" fill="black" r="0.5" /><circle cx="42" cy="25" fill="black" r="0.5" /><circle cx="43" cy="25" fill="black" r="0.5" /><circle cx="44" cy="25" fill="black" r="0.5" /><circle cx="21" cy="26" fill="black" r="0.5" /><circle cx="22" cy="26" fill="black" r="0.5" /><circle cx="23" cy="26" fill="black" r="0.5" /><circle cx="24" cy="26" fill="black" r="0.5" /><circle cx="25" cy="26" fill="black" r="0.5" /><circle cx="26" cy="26" fill="black" r="0.5" /><circle cx="37" cy="26" fill="black" r="0.5" /><circle cx="38" cy="26" fill="black" r="0.5" /><circle cx="39" cy="26" fill="black" r="0.5" /><circle cx="40" cy="26" fill="black" r="0.5" /><circle cx="41" cy="26" fill="black" r="0.5" /><circle cx="42" cy="26" fill="black" r="0.5" /><circle cx="24" cy="27" fill="black" r="0.5" /><circle cx="25" cy="27" fill="black" r="0.5" /><circle cx="26" cy="27" fill="black" r="0.5" /><circle cx="27" cy="27" fill="black" r="0.5" /><circle cx="28" cy="27" fill="black" r="0.5" /><circle cx="29" cy="27" fill="black" r="0.5" /><circle cx="35" cy="27" fill="black" r="0.5" /><circle cx="36" cy="27" fill="black" r="0.5" /><circle cx="37" cy="27" fill="black" r="0.5" /><circle cx="38" cy="27" fill="black" r="0.5" /><circle cx="39" cy="27" fill="black" r="0.5" /><circle cx="26" cy="28" fill="black" r="0.5" /><circle cx="27" cy="28" fill="black" r="0.5" /><circle cx="28" cy="28" fill="black" r="0.5" /><circle cx="29" cy="28" fill="black" r="0.5" /><circle cx="34" cy="28" fill="black" r="0.5" /><circle cx="35" cy="28" fill="black" r="0.5" /><circle cx="36" cy="28" fill="black" r="0.5" /><circle cx="37" cy="28" fill="black" r="0.5" /><circle cx="29" cy="29" fill="black" r="0.5" /><circle cx="34" cy="29" fill="black" r="0.5" /><circle cx="45" cy="35" fill="black" r="0.5" /><circle cx="46" cy="35" fill="black" r="0.5" /><circle cx="47" cy="35" fill="black" r="0.5" /><circle cx="48" cy="35" fill="black" r="0.5" /><circle cx="49" cy="35" fill="black" r="0.5" /><circle cx="50" cy="35" fill="black" r="0.5" /><circle cx="51" cy="35" fill="black" r="0.5" /><circle cx="52" cy="35" fill="black" r="0.5" /><circle cx="53" cy="35" fill="black" r="0.5" /><circle cx="54" cy="35" fill="black" r="0.5" /><circle cx="42" cy="36" fill="black" r="0.5" /><circle cx="43" cy="36" fill="black" r="0.5" /><circle cx="44" cy="36" fill="black" r="0.5" /><circle cx="45" cy="36" fill="black" r="0.5" /><circle cx="46" cy="36" fill="black" r="0.5" /><circle cx="47" cy="36" fill="black" r="0.5" /><circle cx="48" cy="36" fill="black" r="0.5" /><circle cx="49" cy="36" fill="black" r="0.5" /><circle cx="50" cy="36" fill="black" r="0.5" /><circle cx="51" cy="36" fill="black" r="0.5" /><circle cx="52" cy="36" fill="black" r="0.5" /><circle cx="53" cy="36" fill="black" r="0.5" /><circle cx="54" cy="36" fill="black" r="0.5" /><circle cx="55" cy="36" fill="black" r="0.5" /><circle cx="56" cy="36" fill="black" r="0.5" /><circle cx="41" cy="37" fill="black" r="0.5" /><circle cx="42" cy="37" fill="black" r="0.5" /><circle cx="43" cy="37" fill="black" r="0.5" /><circle cx="44" cy="37" fill="black" r="0.5" /><circle cx="55" cy="37" fill="black" r="0.5" /><circle cx="56" cy="37" fill="black" r="0.5" /><circle cx="57" cy="37" fill="black" r="0.5" /><circle cx="58" cy="37" fill="black" r="0.5" /><circle cx="40" cy="38" fill="black" r="0.5" /><circle cx="41" cy="38" fill="black" r="0.5" /><circle cx="42" cy="38" fill="black" r="0.5" /><circle cx="57" cy="38" fill="black" r="0.5" /><circle cx="58" cy="38" fill="black" r="0.5" /><circle cx="59" cy="38" fill="black" r="0.5" /><circle cx="39" cy="39" fill="black" r="0.5" /><circle cx="40" cy="39" fill="black" r="0.5" /><circle cx="41" cy="39" fill="black" r="0.5" /><circle cx="45" cy="39" fill="black" r="0.5" /><circle cx="46" cy="39" fill="black" r="0.5" /><circle cx="47" cy="39" fill="black" r="0.5" /><circle cx="48" cy="39" fill="black" r="0.5" /><circle cx="49" cy="39" fill="black" r="0.5" /><circle cx="50" cy="39" fill="black" r="0.5" /><circle cx="51" cy="39" fill="black" r="0.5" /><circle cx="52" cy="39" fill="black" r="0.5" /><circle cx="53" cy="39" fill="black" r="0.5" /><circle cx="54" cy="39" fill="black" r="0.5" /><circle cx="58" cy="39" fill="black" r="0.5" /><circle cx="59" cy="39" fill="black" r="0.5" /><circle cx="38" cy="40" fill="black" r="0.5" /><circle cx="39" cy="40" fill="black" r="0.5" /><circle cx="40" cy="40" fill="black" r="0.5" /><circle cx="44" cy="40" fill="black" r="0.5" /><circle cx="45" cy="40" fill="black" r="0.5" /><circle cx="46" cy="40" fill="black" r="0.5" /><circle cx="47" cy="40" fill="black" r="0.5" /><circle cx="48" cy="40" fill="black" r="0.5" /><circle cx="49" cy="40" fill="black" r="0.5" /><circle cx="50" cy="40" fill="black" r="0.5" /><circle cx="51" cy="40" fill="black" r="0.5" /><circle cx="52" cy="40" fill="black" r="0.5" /><circle cx="53" cy="40" fill="black" r="0.5" /><circle cx="54" cy="40" fill="black" r="0.5" /><circle cx="55" cy="40" fill="black" r="0.5" /><circle cx="59" cy="40" fill="black" r="0.5" /><circle cx="37" cy="41" fill="black" r="0.5" /><circle cx="38" cy="41" fill="black" r="0.5" /><circle cx="39" cy="41" fill="black" r="0.5" /><circle cx="42" cy="41" fill="black" r="0.5" /><circle cx="43" cy="41" fill="black" r="0.5" /><circle cx="44" cy="41" fill="black" r="0.5" /><circle cx="45" cy="41" fill="black" r="0.5" /><circle cx="54" cy="41" fill="black" r="0.5" /><circle cx="55" cy="41" fill="black" r="0.5" /><circle cx="56" cy="41" fill="black" r="0.5" /><circle cx="57" cy="41" fill="black" r="0.5" /><circle cx="37" cy="42" fill="black" r="0.5" /><circle cx="38" cy="42" fill="black" r="0.5" /><circle cx="42" cy="42" fill="black" r="0.5" /><circle cx="43" cy="42" fill="black" r="0.5" /><circle cx="56" cy="42" fill="black" r="0.5" /><circle cx="57" cy="42" fill="black" r="0.5" /><circle cx="36" cy="43" fill="black" r="0.5" /><circle cx="37" cy="43" fill="black" r="0.5" /><circle cx="41" cy="43" fill="black" r="0.5" /><circle cx="42" cy="43" fill="black" r="0.5" /><circle cx="57" cy="43" fill="black" r="0.5" /><circle cx="58" cy="43" fill="black" r="0.5" /><circle cx="36" cy="44" fill="black" r="0.5" /><circle cx="37" cy="44" fill="black" r="0.5" /><circle cx="40" cy="44" fill="black" r="0.5" /><circle cx="41" cy="44" fill="black" r="0.5" /><circle cx="45" cy="44" fill="black" r="0.5" /><circle cx="46" cy="44" fill="black" r="0.5" /><circle cx="47" cy="44" fill="black" r="0.5" /><circle cx="48" cy="44" fill="black" r="0.5" /><circle cx="51" cy="44" fill="black" r="0.5" /><circle cx="52" cy="44" fill="black" r="0.5" /><circle cx="53" cy="44" fill="black" r="0.5" /><circle cx="54" cy="44" fill="black" r="0.5" /><circle cx="58" cy="44" fill="black" r="0.5" /><circle cx="59" cy="44" fill="black" r="0.5" /><circle cx="36" cy="45" fill="black" r="0.5" /><circle cx="40" cy="45" fill="black" r="0.5" /><circle cx="41" cy="45" fill="black" r="0.5" /><circle cx="45" cy="45" fill="black" r="0.5" /><circle cx="46" cy="45" fill="black" r="0.5" /><circle cx="47" cy="45" fill="black" r="0.5" /><circle cx="48" cy="45" fill="black" r="0.5" /><circle cx="49" cy="45" fill="black" r="0.5" /><circle cx="50" cy="45" fill="black" r="0.5" /><circle cx="51" cy="45" fill="black" r="0.5" /><circle cx="52" cy="45" fill="black" r="0.5" /><circle cx="53" cy="45" fill="black" r="0.5" /><circle cx="54" cy="45" fill="black" r="0.5" /><circle cx="58" cy="45" fill="black" r="0.5" /><circle cx="59" cy="45" fill="black" r="0.5" /><circle cx="36" cy="46" fill="black" r="0.5" /><circle cx="40" cy="46" fill="black" r="0.5" /><circle cx="48" cy="46" fill="black" r="0.5" /><circle cx="49" cy="46" fill="black" r="0.5" /><circle cx="50" cy="46" fill="black" r="0.5" /><circle cx="51" cy="46" fill="black" r="0.5" /><circle cx="54" cy="46" fill="black" r="0.5" /><circle cx="59" cy="46" fill="black" r="0.5" /><circle cx="4" cy="47" fill="black" r="0.5" /><circle cx="36" cy="47" fill="black" r="0.5" /><circle cx="40" cy="47" fill="black" r="0.5" /><circle cx="45" cy="47" fill="black" r="0.5" /><circle cx="46" cy="47" fill="black" r="0.5" /><circle cx="49" cy="47" fill="black" r="0.5" /><circle cx="50" cy="47" fill="black" r="0.5" /><circle cx="53" cy="47" fill="black" r="0.5" /><circle cx="54" cy="47" fill="black" r="0.5" /><circle cx="59" cy="47" fill="black" r="0.5" /><circle cx="4" cy="48" fill="black" r="0.5" /><circle cx="5" cy="48" fill="black" r="0.5" /><circle cx="6" cy="48" fill="black" r="0.5" /><circle cx="7" cy="48" fill="black" r="0.5" /><circle cx="36" cy="48" fill="black" r="0.5" /><circle cx="40" cy="48" fill="black" r="0.5" /><circle cx="45" cy="48" fill="black" r="0.5" /><circle cx="46" cy="48" fill="black" r="0.5" /><circle cx="47" cy="48" fill="black" r="0.5" /><circle cx="52" cy="48" fill="black" r="0.5" /><circle cx="53" cy="48" fill="black" r="0.5" /><circle cx="54" cy="48" fill="black" r="0.5" /><circle cx="59" cy="48" fill="black" r="0.5" /><circle cx="0" cy="49" fill="black" r="0.5" /><circle cx="5" cy="49" fill="black" r="0.5" /><circle cx="6" cy="49" fill="black" r="0.5" /><circle cx="7" cy="49" fill="black" r="0.5" /><circle cx="8" cy="49" fill="black" r="0.5" /><circle cx="9" cy="49" fill="black" r="0.5" /><circle cx="36" cy="49" fill="black" r="0.5" /><circle cx="40" cy="49" fill="black" r="0.5" /><circle cx="46" cy="49" fill="black" r="0.5" /><circle cx="53" cy="49" fill="black" r="0.5" /><circle cx="59" cy="49" fill="black" r="0.5" /><circle cx="63" cy="49" fill="black" r="0.5" /><circle cx="0" cy="50" fill="black" r="0.5" /><circle cx="1" cy="50" fill="black" r="0.5" /><circle cx="7" cy="50" fill="black" r="0.5" /><circle cx="8" cy="50" fill="black" r="0.5" /><circle cx="9" cy="50" fill="black" r="0.5" /><circle cx="10" cy="50" fill="black" r="0.5" /><circle cx="11" cy="50" fill="black" r="0.5" /><circle cx="12" cy="50" fill="black" r="0.5" /><circle cx="36" cy="50" fill="black" r="0.5" /><circle cx="40" cy="50" fill="black" r="0.5" /><circle cx="45" cy="50" fill="black" r="0.5" /><circle cx="46" cy="50" fill="black" r="0.5" /><circle cx="47" cy="50" fill="black" r="0.5" /><circle cx="52" cy="50" fill="black" r="0.5" /><circle cx="53" cy="50" fill="black" r="0.5" /><circle cx="54" cy="50" fill="black" r="0.5" /><circle cx="59" cy="50" fill="black" r="0.5" /><circle cx="63" cy="50" fill="black" r="0.5" /><circle cx="0" cy="51" fill="black" r="0.5" /><circle cx="1" cy="51" fill="black" r="0.5" /><circle cx="2" cy="51" fill="black" r="0.5" /><circle cx="3" cy="51" fill="black" r="0.5" /><circle cx="4" cy="51" fill="black" r="0.5" /><circle cx="9" cy="51" fill="black" r="0.5" /><circle cx="10" cy="51" fill="black" r="0.5" /><circle cx="11" cy="51" fill="black" r="0.5" /><circle cx="12" cy="51" fill="black" r="0.5" /><circle cx="13" cy="51" fill="black" r="0.5" /><circle cx="14" cy="51" fill="black" r="0.5" /><circle cx="36" cy="51" fill="black" r="0.5" /><circle cx="40" cy="51" fill="black" r="0.5" /><circle cx="45" cy="51" fill="black" r="0.5" /><circle cx="46" cy="51" fill="black" r="0.5" /><circle cx="49" cy="51" fill="black" r="0.5" /><circle cx="50" cy="51" fill="black" r="0.5" /><circle cx="53" cy="51" fill="black" r="0.5" /><circle cx="54" cy="51" fill="black" r="0.5" /><circle cx="59" cy="51" fill="black" r="0.5" /><circle cx="63" cy="51" fill="black" r="0.5" /><circle cx="1" cy="52" fill="black" r="0.5" /><circle cx="2" cy="52" fill="black" r="0.5" /><circle cx="3" cy="52" fill="black" r="0.5" /><circle cx="4" cy="52" fill="black" r="0.5" /><circle cx="5" cy="52" fill="black" r="0.5" /><circle cx="6" cy="52" fill="black" r="0.5" /><circle cx="12" cy="52" fill="black" r="0.5" /><circle cx="13" cy="52" fill="black" r="0.5" /><circle cx="14" cy="52" fill="black" r="0.5" /><circle cx="15" cy="52" fill="black" r="0.5" /><circle cx="16" cy="52" fill="black" r="0.5" /><circle cx="17" cy="52" fill="black" r="0.5" /><circle cx="36" cy="52" fill="black" r="0.5" /><circle cx="40" cy="52" fill="black" r="0.5" /><circle cx="48" cy="52" fill="black" r="0.5" /><circle cx="49" cy="52" fill="black" r="0.5" /><circle cx="50" cy="52" fill="black" r="0.5" /><circle cx="51" cy="52" fill="black" r="0.5" /><circle cx="54" cy="52" fill="black" r="0.5" /><circle cx="59" cy="52" fill="black" r="0.5" /><circle cx="63" cy="52" fill="black" r="0.5" /><circle cx="4" cy="53" fill="black" r="0.5" /><circle cx="5" cy="53" fill="black" r="0.5" /><circle cx="6" cy="53" fill="black" r="0.5" /><circle cx="7" cy="53" fill="black" r="0.5" /><circle cx="8" cy="53" fill="black" r="0.5" /><circle cx="9" cy="53" fill="black" r="0.5" /><circle cx="14" cy="53" fill="black" r="0.5" /><circle cx="15" cy="53" fill="black" r="0.5" /><circle cx="16" cy="53" fill="black" r="0.5" /><circle cx="17" cy="53" fill="black" r="0.5" /><circle cx="18" cy="53" fill="black" r="0.5" /><circle cx="19" cy="53" fill="black" r="0.5" /><circle cx="36" cy="53" fill="black" r="0.5" /><circle cx="40" cy="53" fill="black" r="0.5" /><circle cx="41" cy="53" fill="black" r="0.5" /><circle cx="45" cy="53" fill="black" r="0.5" /><circle cx="46" cy="53" fill="black" r="0.5" /><circle cx="47" cy="53" fill="black" r="0.5" /><circle cx="48" cy="53" fill="black" r="0.5" /><circle cx="49" cy="53" fill="black" r="0.5" /><circle cx="50" cy="53" fill="black" r="0.5" /><circle cx="51" cy="53" fill="black" r="0.5" /><circle cx="52" cy="53" fill="black" r="0.5" /><circle cx="53" cy="53" fill="black" r="0.5" /><circle cx="54" cy="53" fill="black" r="0.5" /><circle cx="58" cy="53" fill="black" r="0.5" /><circle cx="59" cy="53" fill="black" r="0.5" /><circle cx="63" cy="53" fill="black" r="0.5" /><circle cx="6" cy="54" fill="black" r="0.5" /><circle cx="7" cy="54" fill="black" r="0.5" /><circle cx="8" cy="54" fill="black" r="0.5" /><circle cx="9" cy="54" fill="black" r="0.5" /><circle cx="10" cy="54" fill="black" r="0.5" /><circle cx="11" cy="54" fill="black" r="0.5" /><circle cx="17" cy="54" fill="black" r="0.5" /><circle cx="18" cy="54" fill="black" r="0.5" /><circle cx="19" cy="54" fill="black" r="0.5" /><circle cx="20" cy="54" fill="black" r="0.5" /><circle cx="21" cy="54" fill="black" r="0.5" /><circle cx="22" cy="54" fill="black" r="0.5" /><circle cx="36" cy="54" fill="black" r="0.5" /><circle cx="37" cy="54" fill="black" r="0.5" /><circle cx="40" cy="54" fill="black" r="0.5" /><circle cx="41" cy="54" fill="black" r="0.5" /><circle cx="45" cy="54" fill="black" r="0.5" /><circle cx="46" cy="54" fill="black" r="0.5" /><circle cx="47" cy="54" fill="black" r="0.5" /><circle cx="48" cy="54" fill="black" r="0.5" /><circle cx="51" cy="54" fill="black" r="0.5" /><circle cx="52" cy="54" fill="black" r="0.5" /><circle cx="53" cy="54" fill="black" r="0.5" /><circle cx="54" cy="54" fill="black" r="0.5" /><circle cx="57" cy="54" fill="black" r="0.5" /><circle cx="58" cy="54" fill="black" r="0.5" /><circle cx="59" cy="54" fill="black" r="0.5" /><circle cx="62" cy="54" fill="black" r="0.5" /><circle cx="63" cy="54" fill="black" r="0.5" /><circle cx="9" cy="55" fill="black" r="0.5" /><circle cx="10" cy="55" fill="black" r="0.5" /><circle cx="11" cy="55" fill="black" r="0.5" /><circle cx="12" cy="55" fill="black" r="0.5" /><circle cx="13" cy="55" fill="black" r="0.5" /><circle cx="14" cy="55" fill="black" r="0.5" /><circle cx="19" cy="55" fill="black" r="0.5" /><circle cx="20" cy="55" fill="black" r="0.5" /><circle cx="21" cy="55" fill="black" r="0.5" /><circle cx="22" cy="55" fill="black" r="0.5" /><circle cx="23" cy="55" fill="black" r="0.5" /><circle cx="24" cy="55" fill="black" r="0.5" /><circle cx="36" cy="55" fill="black" r="0.5" /><circle cx="37" cy="55" fill="black" r="0.5" /><circle cx="41" cy="55" fill="black" r="0.5" /><circle cx="42" cy="55" fill="black" r="0.5" /><circle cx="57" cy="55" fill="black" r="0.5" /><circle cx="58" cy="55" fill="black" r="0.5" /><circle cx="62" cy="55" fill="black" r="0.5" /><circle cx="11" cy="56" fill="black" r="0.5" /><circle cx="12" cy="56" fill="black" r="0.5" /><circle cx="13" cy="56" fill="black" r="0.5" /><circle cx="14" cy="56" fill="black" r="0.5" /><circle cx="15" cy="56" fill="black" r="0.5" /><circle cx="16" cy="56" fill="black" r="0.5" /><circle cx="22" cy="56" fill="black" r="0.5" /><circle cx="23" cy="56" fill="black" r="0.5" /><circle cx="24" cy="56" fill="black" r="0.5" /><circle cx="25" cy="56" fill="black" r="0.5" /><circle cx="26" cy="56" fill="black" r="0.5" /><circle cx="27" cy="56" fill="black" r="0.5" /><circle cx="36" cy="56" fill="black" r="0.5" /><circle cx="38" cy="56" fill="black" r="0.5" /><circle cx="42" cy="56" fill="black" r="0.5" /><circle cx="43" cy="56" fill="black" r="0.5" /><circle cx="55" cy="56" fill="black" r="0.5" /><circle cx="56" cy="56" fill="black" r="0.5" /><circle cx="57" cy="56" fill="black" r="0.5" /><circle cx="61" cy="56" fill="black" r="0.5" /><circle cx="62" cy="56" fill="black" r="0.5" /><circle cx="14" cy="57" fill="black" r="0.5" /><circle cx="15" cy="57" fill="black" r="0.5" /><circle cx="16" cy="57" fill="black" r="0.5" /><circle cx="17" cy="57" fill="black" r="0.5" /><circle cx="18" cy="57" fill="black" r="0.5" /><circle cx="19" cy="57" fill="black" r="0.5" /><circle cx="24" cy="57" fill="black" r="0.5" /><circle cx="25" cy="57" fill="black" r="0.5" /><circle cx="26" cy="57" fill="black" r="0.5" /><circle cx="27" cy="57" fill="black" r="0.5" /><circle cx="28" cy="57" fill="black" r="0.5" /><circle cx="29" cy="57" fill="black" r="0.5" /><circle cx="34" cy="57" fill="black" r="0.5" /><circle cx="35" cy="57" fill="black" r="0.5" /><circle cx="36" cy="57" fill="black" r="0.5" /><circle cx="37" cy="57" fill="black" r="0.5" /><circle cx="38" cy="57" fill="black" r="0.5" /><circle cx="42" cy="57" fill="black" r="0.5" /><circle cx="43" cy="57" fill="black" r="0.5" /><circle cx="44" cy="57" fill="black" r="0.5" /><circle cx="45" cy="57" fill="black" r="0.5" /><circle cx="54" cy="57" fill="black" r="0.5" /><circle cx="55" cy="57" fill="black" r="0.5" /><circle cx="56" cy="57" fill="black" r="0.5" /><circle cx="57" cy="57" fill="black" r="0.5" /><circle cx="60" cy="57" fill="black" r="0.5" /><circle cx="61" cy="57" fill="black" r="0.5" /><circle cx="16" cy="58" fill="black" r="0.5" /><circle cx="17" cy="58" fill="black" r="0.5" /><circle cx="18" cy="58" fill="black" r="0.5" /><circle cx="19" cy="58" fill="black" r="0.5" /><circle cx="20" cy="58" fill="black" r="0.5" /><circle cx="21" cy="58" fill="black" r="0.5" /><circle cx="27" cy="58" fill="black" r="0.5" /><circle cx="28" cy="58" fill="black" r="0.5" /><circle cx="29" cy="58" fill="black" r="0.5" /><circle cx="34" cy="58" fill="black" r="0.5" /><circle cx="35" cy="58" fill="black" r="0.5" /><circle cx="36" cy="58" fill="black" r="0.5" /><circle cx="44" cy="58" fill="black" r="0.5" /><circle cx="45" cy="58" fill="black" r="0.5" /><circle cx="46" cy="58" fill="black" r="0.5" /><circle cx="47" cy="58" fill="black" r="0.5" /><circle cx="48" cy="58" fill="black" r="0.5" /><circle cx="49" cy="58" fill="black" r="0.5" /><circle cx="50" cy="58" fill="black" r="0.5" /><circle cx="51" cy="58" fill="black" r="0.5" /><circle cx="52" cy="58" fill="black" r="0.5" /><circle cx="53" cy="58" fill="black" r="0.5" /><circle cx="54" cy="58" fill="black" r="0.5" /><circle cx="55" cy="58" fill="black" r="0.5" /><circle cx="59" cy="58" fill="black" r="0.5" /><circle cx="60" cy="58" fill="black" r="0.5" /><circle cx="61" cy="58" fill="black" r="0.5" /><circle cx="19" cy="59" fill="black" r="0.5" /><circle cx="20" cy="59" fill="black" r="0.5" /><circle cx="21" cy="59" fill="black" r="0.5" /><circle cx="22" cy="59" fill="black" r="0.5" /><circle cx="23" cy="59" fill="black" r="0.5" /><circle cx="24" cy="59" fill="black" r="0.5" /><circle cx="29" cy="59" fill="black" r="0.5" /><circle cx="34" cy="59" fill="black" r="0.5" /><circle cx="39" cy="59" fill="black" r="0.5" /><circle cx="40" cy="59" fill="black" r="0.5" /><circle cx="41" cy="59" fill="black" r="0.5" /><circle cx="45" cy="59" fill="black" r="0.5" /><circle cx="46" cy="59" fill="black" r="0.5" /><circle cx="47" cy="59" fill="black" r="0.5" /><circle cx="48" cy="59" fill="black" r="0.5" /><circle cx="49" cy="59" fill="black" r="0.5" /><circle cx="50" cy="59" fill="black" r="0.5" /><circle cx="51" cy="59" fill="black" r="0.5" /><circle cx="52" cy="59" fill="black" r="0.5" /><circle cx="53" cy="59" fill="black" r="0.5" /><circle cx="54" cy="59" fill="black" r="0.5" /><circle cx="58" cy="59" fill="black" r="0.5" /><circle cx="59" cy="59" fill="black" r="0.5" /><circle cx="60" cy="59" fill="black" r="0.5" /><circle cx="21" cy="60" fill="black" r="0.5" /><circle cx="22" cy="60" fill="black" r="0.5" /><circle cx="23" cy="60" fill="black" r="0.5" /><circle cx="24" cy="60" fill="black" r="0.5" /><circle cx="25" cy="60" fill="black" r="0.5" /><circle cx="26" cy="60" fill="black" r="0.5" /><circle cx="37" cy="60" fill="black" r="0.5" /><circle cx="38" cy="60" fill="black" r="0.5" /><circle cx="39" cy="60" fill="black" r="0.5" /><circle cx="40" cy="60" fill="black" r="0.5" /><circle cx="41" cy="60" fill="black" r="0.5" /><circle cx="42" cy="60" fill="black" r="0.5" /><circle cx="57" cy="60" fill="black" r="0.5" /><circle cx="58" cy="60" fill="black" r="0.5" /><circle cx="59" cy="60" fill="black" r="0.5" /><circle cx="24" cy="61" fill="black" r="0.5" /><circle cx="25" cy="61" fill="black" r="0.5" /><circle cx="26" cy="61" fill="black" r="0.5" /><circle cx="27" cy="61" fill="black" r="0.5" /><circle cx="28" cy="61" fill="black" r="0.5" /><circle cx="29" cy="61" fill="black" r="0.5" /><circle cx="34" cy="61" fill="black" r="0.5" /><circle cx="35" cy="61" fill="black" r="0.5" /><circle cx="36" cy="61" fill="black" r="0.5" /><circle cx="37" cy="61" fill="black" r="0.5" /><circle cx="38" cy="61" fill="black" r="0.5" /><circle cx="39" cy="61" fill="black" r="0.5" /><circle cx="41" cy="61" fill="black" r="0.5" /><circle cx="42" cy="61" fill="black" r="0.5" /><circle cx="43" cy="61" fill="black" r="0.5" /><circle cx="44" cy="61" fill="black" r="0.5" /><circle cx="55" cy="61" fill="black" r="0.5" /><circle cx="56" cy="61" fill="black" r="0.5" /><circle cx="57" cy="61" fill="black" r="0.5" /><circle cx="58" cy="61" fill="black" r="0.5" /><circle cx="26" cy="62" fill="black" r="0.5" /><circle cx="27" cy="62" fill="black" r="0.5" /><circle cx="28" cy="62" fill="black" r="0.5" /><circle cx="29" cy="62" fill="black" r="0.5" /><circle cx="30" cy="62" fill="black" r="0.5" /><circle cx="31" cy="62" fill="black" r="0.5" /><circle cx="32" cy="62" fill="black" r="0.5" /><circle cx="33" cy="62" fill="black" r="0.5" /><circle cx="34" cy="62" fill="black" r="0.5" /><circle cx="35" cy="62" fill="black" r="0.5" /><circle cx="36" cy="62" fill="black" r="0.5" /><circle cx="37" cy="62" fill="black" r="0.5" /><circle cx="42" cy="62" fill="black" r="0.5" /><circle cx="43" cy="62" fill="black" r="0.5" /><circle cx="44" cy="62" fill="black" r="0.5" /><circle cx="45" cy="62" fill="black" r="0.5" /><circle cx="46" cy="62" fill="black" r="0.5" /><circle cx="47" cy="62" fill="black" r="0.5" /><circle cx="48" cy="62" fill="black" r="0.5" /><circle cx="49" cy="62" fill="black" r="0.5" /><circle cx="50" cy="62" fill="black" r="0.5" /><circle cx="51" cy="62" fill="black" r="0.5" /><circle cx="52" cy="62" fill="black" r="0.5" /><circle cx="53" cy="62" fill="black" r="0.5" /><circle cx="54" cy="62" fill="black" r="0.5" /><circle cx="55" cy="62" fill="black" r="0.5" /><circle cx="56" cy="62" fill="black" r="0.5" /></svg>