<?xml version="1.0" encoding="utf-8" ?>
<svg baseProfile="full" height="100%" version="1.1" width="100%" xmlns="http://www.w3.org/2000/svg" xmlns:ev="http://www.w3.org/2001/xml-events" xmlns:xlink="http://www.w3.org/1999/xlink"><defs /><circle cx="27" cy="3" fill="black" r="0.5" /><circle cx="28" cy="3" fill="black" r="0.5" /><circle cx="29" cy="3" fill="black" r="0.5" /><circle cx="30" cy="3" fill="black" r="0.5" /><circle cx="31" cy="3" fill="black" r="0.5" /><circle cx="32" cy="3" fill="black" r="0.5" /><circle cx="33" cy="3" fill="black" r="0.5" /><circle cx="34" cy="3" fill="black" r="0.5" /><circle cx="35" cy="3" fill="black" r="0.5" /><circle cx="36" cy="3" fill="black" r="0.5" /><circle cx="25" cy="4" fill="black" r="0.5" /><circle cx="26" cy="4" fill="black" r="0.5" /><circle cx="27" cy="4" fill="black" r="0.5" /><circle cx="28" cy="4" fill="black" r="0.5" /><circle cx="29" cy="4" fill="black" r="0.5" /><circle cx="30" cy="4" fill="black" r="0.5" /><circle cx="31" cy="4" fill="black" r="0.5" /><circle cx="32" cy="4" fill="black" r="0.5" /><circle cx="33" cy="4" fill="black" r="0.5" /><circle cx="34" cy="4" fill="black" r="0.5" /><circle cx="35" cy="4" fill="black" r="0.5" /><circle cx="36" cy="4" fill="black" r="0.5" /><circle cx="37" cy="4" fill="black" r="0.5" /><circle cx="38" cy="4" fill="black" r="0.5" /><circle cx="24" cy="5" fill="black" r="0.5" /><circle cx="25" cy="5" fill="black" r="0.5" /><circle cx="26" cy="5" fill="black" r="0.5" /><circle cx="27" cy="5" fill="black" r="0.5" /><circle cx="36" cy="5" fill="black" r="0.5" /><circle cx="37" cy="5" fill="black" r="0.5" /><circle cx="38" cy="5" fill="black" r="0.5" /><circle cx="39" cy="5" fill="black" r="0.5" /><circle cx="23" cy="6" fill="black" r="0.5" /><circle cx="24" cy="6" fill="black" r="0.5" /><circle cx="25" cy="6" fill="black" r="0.5" /><circle cx="38" cy="6" fill="black" r="0.5" /><circle cx="39" cy="6" fill="black" r="0.5" /><circle cx="40" cy="6" fill="black" r="0.5" /><circle cx="22" cy="7" fill="black" r="0.5" /><circle cx="23" cy="7" fill="black" r="0.5" /><circle cx="24" cy="7" fill="black" r="0.5" /><circle cx="39" cy="7" fill="black" r="0.5" /><circle cx="40" cy="7" fill="black" r="0.5" /><circle cx="41" cy="7" fill="black" r="0.5" /><circle cx="22" cy="8" fill="black" r="0.5" /><circle cx="23" cy="8" fill="black" r="0.5" /><circle cx="40" cy="8" fill="black" r="0.5" /><circle cx="41" cy="8" fill="black" r="0.5" /><circle cx="21" cy="9" fill="black" r="0.5" /><circle cx="22" cy="9" fill="black" r="0.5" /><circle cx="41" cy="9" fill="black" r="0.5" /><circle cx="42" cy="9" fill="black" r="0.5" /><circle cx="21" cy="10" fill="black" r="0.5" /><circle cx="22" cy="10" fill="black" r="0.5" /><circle cx="41" cy="10" fill="black" r="0.5" /><circle cx="42" cy="10" fill="black" r="0.5" /><circle cx="6" cy="11" fill="black" r="0.5" /><circle cx="7" cy="11" fill="black" r="0.5" /><circle cx="8" cy="11" fill="black" r="0.5" /><circle cx="9" cy="11" fill="black" r="0.5" /><circle cx="10" cy="11" fill="black" r="0.5" /><circle cx="11" cy="11" fill="black" r="0.5" /><circle cx="12" cy="11" fill="black" r="0.5" /><circle cx="13" cy="11" fill="black" r="0.5" /><circle cx="21" cy="11" fill="black" r="0.5" /><circle cx="42" cy="11" fill="black" r="0.5" /><circle cx="50" cy="11" fill="black" r="0.5" /><circle cx="51" cy="11" fill="black" r="0.5" /><circle cx="52" cy="11" fill="black" r="0.5" /><circle cx="53" cy="11" fill="black" r="0.5" /><circle cx="54" cy="11" fill="black" r="0.5" /><circle cx="55" cy="11" fill="black" r="0.5" /><circle cx="56" cy="11" fill="black" r="0.5" /><circle cx="57" cy="11" fill="black" r="0.5" /><circle cx="5" cy="12" fill="black" r="0.5" /><circle cx="6" cy="12" fill="black" r="0.5" /><circle cx="7" cy="12" fill="black" r="0.5" /><circle cx="8" cy="12" fill="black" r="0.5" /><circle cx="9" cy="12" fill="black" r="0.5" /><circle cx="10" cy="12" fill="black" r="0.5" /><circle cx="11" cy="12" fill="black" r="0.5" /><circle cx="12" cy="12" fill="black" r="0.5" /><circle cx="13" cy="12" fill="black" r="0.5" /><circle cx="14" cy="12" fill="black" r="0.5" /><circle cx="21" cy="12" fill="black" r="0.5" /><circle cx="42" cy="12" fill="black" r="0.5" /><circle cx="49" cy="12" fill="black" r="0.5" /><circle cx="50" cy="12" fill="black" r="0.5" /><circle cx="51" cy="12" fill="black" r="0.5" /><circle cx="52" cy="12" fill="black" r="0.5" /><circle cx="53" cy="12" fill="black" r="0.5" /><circle cx="54" cy="12" fill="black" r="0.5" /><circle cx="55" cy="12" fill="black" r="0.5" /><circle cx="56" cy="12" fill="black" r="0.5" /><circle cx="57" cy="12" fill="black" r="0.5" /><circle cx="58" cy="12" fill="black" r="0.5" /><circle cx="4" cy="13" fill="black" r="0.5" /><circle cx="5" cy="13" fill="black" r="0.5" /><circle cx="6" cy="13" fill="black" r="0.5" /><circle cx="13" cy="13" fill="black" r="0.5" /><circle cx="14" cy="13" fill="black" r="0.5" /><circle cx="15" cy="13" fill="black" r="0.5" /><circle cx="21" cy="13" fill="black" r="0.5" /><circle cx="42" cy="13" fill="black" r="0.5" /><circle cx="48" cy="13" fill="black" r="0.5" /><circle cx="49" cy="13" fill="black" r="0.5" /><circle cx="50" cy="13" fill="black" r="0.5" /><circle cx="57" cy="13" fill="black" r="0.5" /><circle cx="58" cy="13" fill="black" r="0.5" /><circle cx="59" cy="13" fill="black" r="0.5" /><circle cx="3" cy="14" fill="black" r="0.5" /><circle cx="4" cy="14" fill="black" r="0.5" /><circle cx="5" cy="14" fill="black" r="0.5" /><circle cx="14" cy="14" fill="black" r="0.5" /><circle cx="15" cy="14" fill="black" r="0.5" /><circle cx="16" cy="14" fill="black" r="0.5" /><circle cx="21" cy="14" fill="black" r="0.5" /><circle cx="42" cy="14" fill="black" r="0.5" /><circle cx="47" cy="14" fill="black" r="0.5" /><circle cx="48" cy="14" fill="black" r="0.5" /><circle cx="49" cy="14" fill="black" r="0.5" /><circle cx="58" cy="14" fill="black" r="0.5" /><circle cx="59" cy="14" fill="black" r="0.5" /><circle cx="60" cy="14" fill="black" r="0.5" /><circle cx="3" cy="15" fill="black" r="0.5" /><circle cx="4" cy="15" fill="black" r="0.5" /><circle cx="15" cy="15" fill="black" r="0.5" /><circle cx="16" cy="15" fill="black" r="0.5" /><circle cx="21" cy="15" fill="black" r="0.5" /><circle cx="42" cy="15" fill="black" r="0.5" /><circle cx="47" cy="15" fill="black" r="0.5" /><circle cx="48" cy="15" fill="black" r="0.5" /><circle cx="59" cy="15" fill="black" r="0.5" /><circle cx="60" cy="15" fill="black" r="0.5" /><circle cx="3" cy="16" fill="black" r="0.5" /><circle cx="16" cy="16" fill="black" r="0.5" /><circle cx="21" cy="16" fill="black" r="0.5" /><circle cx="42" cy="16" fill="black" r="0.5" /><circle cx="47" cy="16" fill="black" r="0.5" /><circle cx="60" cy="16" fill="black" r="0.5" /><circle cx="3" cy="17" fill="black" r="0.5" /><circle cx="16" cy="17" fill="black" r="0.5" /><circle cx="21" cy="17" fill="black" r="0.5" /><circle cx="42" cy="17" fill="black" r="0.5" /><circle cx="47" cy="17" fill="black" r="0.5" /><circle cx="60" cy="17" fill="black" r="0.5" /><circle cx="3" cy="18" fill="black" r="0.5" /><circle cx="16" cy="18" fill="black" r="0.5" /><circle cx="21" cy="18" fill="black" r="0.5" /><circle cx="22" cy="18" fill="black" r="0.5" /><circle cx="41" cy="18" fill="black" r="0.5" /><circle cx="42" cy="18" fill="black" r="0.5" /><circle cx="47" cy="18" fill="black" r="0.5" /><circle cx="60" cy="18" fill="black" r="0.5" /><circle cx="3" cy="19" fill="black" r="0.5" /><circle cx="16" cy="19" fill="black" r="0.5" /><circle cx="21" cy="19" fill="black" r="0.5" /><circle cx="22" cy="19" fill="black" r="0.5" /><circle cx="41" cy="19" fill="black" r="0.5" /><circle cx="42" cy="19" fill="black" r="0.5" /><circle cx="47" cy="19" fill="black" r="0.5" /><circle cx="60" cy="19" fill="black" r="0.5" /><circle cx="3" cy="20" fill="black" r="0.5" /><circle cx="16" cy="20" fill="black" r="0.5" /><circle cx="22" cy="20" fill="black" r="0.5" /><circle cx="23" cy="20" fill="black" r="0.5" /><circle cx="40" cy="20" fill="black" r="0.5" /><circle cx="41" cy="20" fill="black" r="0.5" /><circle cx="47" cy="20" fill="black" r="0.5" /><circle cx="60" cy="20" fill="black" r="0.5" /><circle cx="3" cy="21" fill="black" r="0.5" /><circle cx="4" cy="21" fill="black" r="0.5" /><circle cx="15" cy="21" fill="black" r="0.5" /><circle cx="16" cy="21" fill="black" r="0.5" /><circle cx="23" cy="21" fill="black" r="0.5" /><circle cx="24" cy="21" fill="black" r="0.5" /><circle cx="39" cy="21" fill="black" r="0.5" /><circle cx="40" cy="21" fill="black" r="0.5" /><circle cx="47" cy="21" fill="black" r="0.5" /><circle cx="48" cy="21" fill="black" r="0.5" /><circle cx="59" cy="21" fill="black" r="0.5" /><circle cx="60" cy="21" fill="black" r="0.5" /><circle cx="3" cy="22" fill="black" r="0.5" /><circle cx="4" cy="22" fill="black" r="0.5" /><circle cx="5" cy="22" fill="black" r="0.5" /><circle cx="14" cy="22" fill="black" r="0.5" /><circle cx="15" cy="22" fill="black" r="0.5" /><circle cx="16" cy="22" fill="black" r="0.5" /><circle cx="23" cy="22" fill="black" r="0.5" /><circle cx="24" cy="22" fill="black" r="0.5" /><circle cx="25" cy="22" fill="black" r="0.5" /><circle cx="38" cy="22" fill="black" r="0.5" /><circle cx="39" cy="22" fill="black" r="0.5" /><circle cx="40" cy="22" fill="black" r="0.5" /><circle cx="47" cy="22" fill="black" r="0.5" /><circle cx="48" cy="22" fill="black" r="0.5" /><circle cx="49" cy="22" fill="black" r="0.5" /><circle cx="58" cy="22" fill="black" r="0.5" /><circle cx="59" cy="22" fill="black" r="0.5" /><circle cx="60" cy="22" fill="black" r="0.5" /><circle cx="4" cy="23" fill="black" r="0.5" /><circle cx="5" cy="23" fill="black" r="0.5" /><circle cx="6" cy="23" fill="black" r="0.5" /><circle cx="13" cy="23" fill="black" r="0.5" /><circle cx="14" cy="23" fill="black" r="0.5" /><circle cx="15" cy="23" fill="black" r="0.5" /><circle cx="24" cy="23" fill="black" r="0.5" /><circle cx="25" cy="23" fill="black" r="0.5" /><circle cx="26" cy="23" fill="black" r="0.5" /><circle cx="27" cy="23" fill="black" r="0.5" /><circle cx="36" cy="23" fill="black" r="0.5" /><circle cx="37" cy="23" fill="black" r="0.5" /><circle cx="38" cy="23" fill="black" r="0.5" /><circle cx="39" cy="23" fill="black" r="0.5" /><circle cx="48" cy="23" fill="black" r="0.5" /><circle cx="49" cy="23" fill="black" r="0.5" /><circle cx="50" cy="23" fill="black" r="0.5" /><circle cx="57" cy="23" fill="black" r="0.5" /><circle cx="58" cy="23" fill="black" r="0.5" /><circle cx="59" cy="23" fill="black" r="0.5" /><circle cx="5" cy="24" fill="black" r="0.5" /><circle cx="6" cy="24" fill="black" r="0.5" /><circle cx="7" cy="24" fill="black" r="0.5" /><circle cx="8" cy="24" fill="black" r="0.5" /><circle cx="9" cy="24" fill="black" r="0.5" /><circle cx="10" cy="24" fill="black" r="0.5" /><circle cx="11" cy="24" fill="black" r="0.5" /><circle cx="12" cy="24" fill="black" r="0.5" /><circle cx="13" cy="24" fill="black" r="0.5" /><circle cx="14" cy="24" fill="black" r="0.5" /><circle cx="26" cy="24" fill="black" r="0.5" /><circle cx="27" cy="24" fill="black" r="0.5" /><circle cx="28" cy="24" fill="black" r="0.5" /><circle cx="29" cy="24" fill="black" r="0.5" /><circle cx="30" cy="24" fill="black" r="0.5" /><circle cx="31" cy="24" fill="black" r="0.5" /><circle cx="32" cy="24" fill="black" r="0.5" /><circle cx="33" cy="24" fill="black" r="0.5" /><circle cx="34" cy="24" fill="black" r="0.5" /><circle cx="35" cy="24" fill="black" r="0.5" /><circle cx="36" cy="24" fill="black" r="0.5" /><circle cx="37" cy="24" fill="black" r="0.5" /><circle cx="49" cy="24" fill="black" r="0.5" /><circle cx="50" cy="24" fill="black" r="0.5" /><circle cx="51" cy="24" fill="black" r="0.5" /><circle cx="52" cy="24" fill="black" r="0.5" /><circle cx="53" cy="24" fill="black" r="0.5" /><circle cx="54" cy="24" fill="black" r="0.5" /><circle cx="55" cy="24" fill="black" r="0.5" /><circle cx="56" cy="24" fill="black" r="0.5" /><circle cx="57" cy="24" fill="black" r="0.5" /><circle cx="58" cy="24" fill="black" r="0.5" /><circle cx="6" cy="25" fill="black" r="0.5" /><circle cx="7" cy="25" fill="black" r="0.5" /><circle cx="8" cy="25" fill="black" r="0.5" /><circle cx="9" cy="25" fill="black" r="0.5" /><circle cx="10" cy="25" fill="black" r="0.5" /><circle cx="11" cy="25" fill="black" r="0.5" /><circle cx="12" cy="25" fill="black" r="0.5" /><circle cx="13" cy="25" fill="black" r="0.5" /><circle cx="27" cy="25" fill="black" r="0.5" /><circle cx="28" cy="25" fill="black" r="0.5" /><circle cx="29" cy="25" fill="black" r="0.5" /><circle cx="30" cy="25" fill="black" r="0.5" /><circle cx="31" cy="25" fill="black" r="0.5" /><circle cx="32" cy="25" fill="black" r="0.5" /><circle cx="33" cy="25" fill="black" r="0.5" /><circle cx="34" cy="25" fill="black" r="0.5" /><circle cx="35" cy="25" fill="black" r="0.5" /><circle cx="36" cy="25" fill="black" r="0.5" /><circle cx="50" cy="25" fill="black" r="0.5" /><circle cx="51" cy="25" fill="black" r="0.5" /><circle cx="52" cy="25" fill="black" r="0.5" /><circle cx="53" cy="25" fill="black" r="0.5" /><circle cx="54" cy="25" fill="black" r="0.5" /><circle cx="55" cy="25" fill="black" r="0.5" /><circle cx="56" cy="25" fill="black" r="0.5" /><circle cx="57" cy="25" fill="black" r="0.5" /><circle cx="4" cy="29" fill="black" r="0.5" /><circle cx="5" cy="29" fill="black" r="0.5" /><circle cx="6" cy="29" fill="black" r="0.5" /><circle cx="7" cy="29" fill="black" r="0.5" /><circle cx="8" cy="29" fill="black" r="0.5" /><circle cx="9" cy="29" fill="black" r="0.5" /><circle cx="10" cy="29" fill="black" r="0.5" /><circle cx="11" cy="29" fill="black" r="0.5" /><circle cx="12" cy="29" fill="black" r="0.5" /><circle cx="13" cy="29" fill="black" r="0.5" /><circle cx="14" cy="29" fill="black" r="0.5" /><circle cx="15" cy="29" fill="black" r="0.5" /><circle cx="25" cy="29" fill="black" r="0.5" /><circle cx="26" cy="29" fill="black" r="0.5" /><circle cx="27" cy="29" fill="black" r="0.5" /><circle cx="28" cy="29" fill="black" r="0.5" /><circle cx="29" cy="29" fill="black" r="0.5" /><circle cx="30" cy="29" fill="black" r="0.5" /><circle cx="31" cy="29" fill="black" r="0.5" /><circle cx="32" cy="29" fill="black" r="0.5" /><circle cx="33" cy="29" fill="black" r="0.5" /><circle cx="34" cy="29" fill="black" r="0.5" /><circle cx="35" cy="29" fill="black" r="0.5" /><circle cx="36" cy="29" fill="black" r="0.5" /><circle cx="37" cy="29" fill="black" r="0.5" /><circle cx="38" cy="29" fill="black" r="0.5" /><circle cx="48" cy="29" fill="black" r="0.5" /><circle cx="49" cy="29" fill="black" r="0.5" /><circle cx="50" cy="29" fill="black" r="0.5" /><circle cx="51" cy="29" fill="black" r="0.5" /><circle cx="52" cy="29" fill="black" r="0.5" /><circle cx="53" cy="29" fill="black" r="0.5" /><circle cx="54" cy="29" fill="black" r="0.5" /><circle cx="55" cy="29" fill="black" r="0.5" /><circle cx="56" cy="29" fill="black" r="0.5" /><circle cx="57" cy="29" fill="black" r="0.5" /><circle cx="58" cy="29" fill="black" r="0.5" /><circle cx="59" cy="29" fill="black" r="0.5" /><circle cx="3" cy="30" fill="black" r="0.5" /><circle cx="4" cy="30" fill="black" r="0.5" /><circle cx="5" cy="30" fill="black" r="0.5" /><circle cx="6" cy="30" fill="black" r="0.5" /><circle cx="7" cy="30" fill="black" r="0.5" /><circle cx="8" cy="30" fill="black" r="0.5" /><circle cx="9" cy="30" fill="black" r="0.5" /><circle cx="10" cy="30" fill="black" r="0.5" /><circle cx="11" cy="30" fill="black" r="0.5" /><circle cx="12" cy="30" fill="black" r="0.5" /><circle cx="13" cy="30" fill="black" r="0.5" /><circle cx="14" cy="30" fill="black" r="0.5" /><circle cx="15" cy="30" fill="black" r="0.5" /><circle cx="16" cy="30" fill="black" r="0.5" /><circle cx="23" cy="30" fill="black" r="0.5" /><circle cx="24" cy="30" fill="black" r="0.5" /><circle cx="25" cy="30" fill="black" r="0.5" /><circle cx="26" cy="30" fill="black" r="0.5" /><circle cx="27" cy="30" fill="black" r="0.5" /><circle cx="28" cy="30" fill="black" r="0.5" /><circle cx="29" cy="30" fill="black" r="0.5" /><circle cx="30" cy="30" fill="black" r="0.5" /><circle cx="32" cy="30" fill="black" r="0.5" /><circle cx="33" cy="30" fill="black" r="0.5" /><circle cx="34" cy="30" fill="black" r="0.5" /><circle cx="35" cy="30" fill="black" r="0.5" /><circle cx="36" cy="30" fill="black" r="0.5" /><circle cx="37" cy="30" fill="black" r="0.5" /><circle cx="38" cy="30" fill="black" r="0.5" /><circle cx="39" cy="30" fill="black" r="0.5" /><circle cx="40" cy="30" fill="black" r="0.5" /><circle cx="41" cy="30" fill="black" r="0.5" /><circle cx="47" cy="30" fill="black" r="0.5" /><circle cx="48" cy="30" fill="black" r="0.5" /><circle cx="49" cy="30" fill="black" r="0.5" /><circle cx="50" cy="30" fill="black" r="0.5" /><circle cx="51" cy="30" fill="black" r="0.5" /><circle cx="52" cy="30" fill="black" r="0.5" /><circle cx="53" cy="30" fill="black" r="0.5" /><circle cx="54" cy="30" fill="black" r="0.5" /><circle cx="55" cy="30" fill="black" r="0.5" /><circle cx="56" cy="30" fill="black" r="0.5" /><circle cx="57" cy="30" fill="black" r="0.5" /><circle cx="58" cy="30" fill="black" r="0.5" /><circle cx="59" cy="30" fill="black" r="0.5" /><circle cx="60" cy="30" fill="black" r="0.5" /><circle cx="2" cy="31" fill="black" r="0.5" /><circle cx="3" cy="31" fill="black" r="0.5" /><circle cx="4" cy="31" fill="black" r="0.5" /><circle cx="15" cy="31" fill="black" r="0.5" /><circle cx="16" cy="31" fill="black" r="0.5" /><circle cx="21" cy="31" fill="black" r="0.5" /><circle cx="22" cy="31" fill="black" r="0.5" /><circle cx="23" cy="31" fill="black" r="0.5" /><circle cx="24" cy="31" fill="black" r="0.5" /><circle cx="25" cy="31" fill="black" r="0.5" /><circle cx="39" cy="31" fill="black" r="0.5" /><circle cx="40" cy="31" fill="black" r="0.5" /><circle cx="41" cy="31" fill="black" r="0.5" /><circle cx="42" cy="31" fill="black" r="0.5" /><circle cx="47" cy="31" fill="black" r="0.5" /><circle cx="48" cy="31" fill="black" r="0.5" /><circle cx="59" cy="31" fill="black" r="0.5" /><circle cx="60" cy="31" fill="black" r="0.5" /><circle cx="61" cy="31" fill="black" r="0.5" /><circle cx="1" cy="32" fill="black" r="0.5" /><circle cx="2" cy="32" fill="black" r="0.5" /><circle cx="3" cy="32" fill="black" r="0.5" /><circle cx="15" cy="32" fill="black" r="0.5" /><circle cx="16" cy="32" fill="black" r="0.5" /><circle cx="20" cy="32" fill="black" r="0.5" /><circle cx="21" cy="32" fill="black" r="0.5" /><circle cx="22" cy="32" fill="black" r="0.5" /><circle cx="41" cy="32" fill="black" r="0.5" /><circle cx="42" cy="32" fill="black" r="0.5" /><circle cx="43" cy="32" fill="black" r="0.5" /><circle cx="47" cy="32" fill="black" r="0.5" /><circle cx="48" cy="32" fill="black" r="0.5" /><circle cx="60" cy="32" fill="black" r="0.5" /><circle cx="61" cy="32" fill="black" r="0.5" /><circle cx="62" cy="32" fill="black" r="0.5" /><circle cx="0" cy="33" fill="black" r="0.5" /><circle cx="1" cy="33" fill="black" r="0.5" /><circle cx="2" cy="33" fill="black" r="0.5" /><circle cx="14" cy="33" fill="black" r="0.5" /><circle cx="15" cy="33" fill="black" r="0.5" /><circle cx="19" cy="33" fill="black" r="0.5" /><circle cx="20" cy="33" fill="black" r="0.5" /><circle cx="21" cy="33" fill="black" r="0.5" /><circle cx="42" cy="33" fill="black" r="0.5" /><circle cx="43" cy="33" fill="black" r="0.5" /><circle cx="44" cy="33" fill="black" r="0.5" /><circle cx="48" cy="33" fill="black" r="0.5" /><circle cx="49" cy="33" fill="black" r="0.5" /><circle cx="61" cy="33" fill="black" r="0.5" /><circle cx="62" cy="33" fill="black" r="0.5" /><circle cx="63" cy="33" fill="black" r="0.5" /><circle cx="0" cy="34" fill="black" r="0.5" /><circle cx="1" cy="34" fill="black" r="0.5" /><circle cx="13" cy="34" fill="black" r="0.5" /><circle cx="14" cy="34" fill="black" r="0.5" /><circle cx="15" cy="34" fill="black" r="0.5" /><circle cx="18" cy="34" fill="black" r="0.5" /><circle cx="19" cy="34" fill="black" r="0.5" /><circle cx="20" cy="34" fill="black" r="0.5" /><circle cx="43" cy="34" fill="black" r="0.5" /><circle cx="44" cy="34" fill="black" r="0.5" /><circle cx="45" cy="34" fill="black" r="0.5" /><circle cx="48" cy="34" fill="black" r="0.5" /><circle cx="49" cy="34" fill="black" r="0.5" /><circle cx="50" cy="34" fill="black" r="0.5" /><circle cx="62" cy="34" fill="black" r="0.5" /><circle cx="63" cy="34" fill="black" r="0.5" /><circle cx="0" cy="35" fill="black" r="0.5" /><circle cx="13" cy="35" fill="black" r="0.5" /><circle cx="14" cy="35" fill="black" r="0.5" /><circle cx="17" cy="35" fill="black" r="0.5" /><circle cx="18" cy="35" fill="black" r="0.5" /><circle cx="44" cy="35" fill="black" r="0.5" /><circle cx="45" cy="35" fill="black" r="0.5" /><circle cx="46" cy="35" fill="black" r="0.5" /><circle cx="49" cy="35" fill="black" r="0.5" /><circle cx="50" cy="35" fill="black" r="0.5" /><circle cx="63" cy="35" fill="black" r="0.5" /><circle cx="0" cy="36" fill="black" r="0.5" /><circle cx="12" cy="36" fill="black" r="0.5" /><circle cx="13" cy="36" fill="black" r="0.5" /><circle cx="16" cy="36" fill="black" r="0.5" /><circle cx="17" cy="36" fill="black" r="0.5" /><circle cx="18" cy="36" fill="black" r="0.5" /><circle cx="45" cy="36" fill="black" r="0.5" /><circle cx="46" cy="36" fill="black" r="0.5" /><circle cx="50" cy="36" fill="black" r="0.5" /><circle cx="51" cy="36" fill="black" r="0.5" /><circle cx="63" cy="36" fill="black" r="0.5" /><circle cx="0" cy="37" fill="black" r="0.5" /><circle cx="12" cy="37" fill="black" r="0.5" /><circle cx="13" cy="37" fill="black" r="0.5" /><circle cx="16" cy="37" fill="black" r="0.5" /><circle cx="17" cy="37" fill="black" r="0.5" /><circle cx="46" cy="37" fill="black" r="0.5" /><circle cx="47" cy="37" fill="black" r="0.5" /><circle cx="50" cy="37" fill="black" r="0.5" /><circle cx="51" cy="37" fill="black" r="0.5" /><circle cx="63" cy="37" fill="black" r="0.5" /><circle cx="0" cy="38" fill="black" r="0.5" /><circle cx="12" cy="38" fill="black" r="0.5" /><circle cx="16" cy="38" fill="black" r="0.5" /><circle cx="46" cy="38" fill="black" r="0.5" /><circle cx="47" cy="38" fill="black" r="0.5" /><circle cx="51" cy="38" fill="black" r="0.5" /><circle cx="63" cy="38" fill="black" r="0.5" /><circle cx="11" cy="39" fill="black" r="0.5" /><circle cx="12" cy="39" fill="black" r="0.5" /><circle cx="15" cy="39" fill="black" r="0.5" /><circle cx="16" cy="39" fill="black" r="0.5" /><circle cx="47" cy="39" fill="black" r="0.5" /><circle cx="48" cy="39" fill="black" r="0.5" /><circle cx="51" cy="39" fill="black" r="0.5" /><circle cx="52" cy="39" fill="black" r="0.5" /><circle cx="11" cy="40" fill="black" r="0.5" /><circle cx="12" cy="40" fill="black" r="0.5" /><circle cx="15" cy="40" fill="black" r="0.5" /><circle cx="16" cy="40" fill="black" r="0.5" /><circle cx="47" cy="40" fill="black" r="0.5" /><circle cx="48" cy="40" fill="black" r="0.5" /><circle cx="51" cy="40" fill="black" r="0.5" /><circle cx="52" cy="40" fill="black" r="0.5" /><circle cx="11" cy="41" fill="black" r="0.5" /><circle cx="15" cy="41" fill="black" r="0.5" /><circle cx="48" cy="41" fill="black" r="0.5" /><circle cx="52" cy="41" fill="black" r="0.5" /><circle cx="11" cy="42" fill="black" r="0.5" /><circle cx="15" cy="42" fill="black" r="0.5" /><circle cx="48" cy="42" fill="black" r="0.5" /><circle cx="52" cy="42" fill="black" r="0.5" /><circle cx="11" cy="43" fill="black" r="0.5" /><circle cx="15" cy="43" fill="black" r="0.5" /><circle cx="48" cy="43" fill="black" r="0.5" /><circle cx="52" cy="43" fill="black" r="0.5" /><circle cx="11" cy="44" fill="black" r="0.5" /><circle cx="15" cy="44" fill="black" r="0.5" /><circle cx="48" cy="44" fill="black" r="0.5" /><circle cx="52" cy="44" fill="black" r="0.5" /><circle cx="11" cy="45" fill="black" r="0.5" /><circle cx="15" cy="45" fill="black" r="0.5" /><circle cx="52" cy="45" fill="black" r="0.5" /><circle cx="11" cy="46" fill="black" r="0.5" /><circle cx="15" cy="46" fill="black" r="0.5" /><circle cx="52" cy="46" fill="black" r="0.5" /><circle cx="11" cy="47" fill="black" r="0.5" /><circle cx="15" cy="47" fill="black" r="0.5" /><circle cx="52" cy="47" fill="black" r="0.5" /><circle cx="11" cy="48" fill="black" r="0.5" /><circle cx="52" cy="48" fill="black" r="0.5" /><circle cx="11" cy="49" fill="black" r="0.5" /><circle cx="15" cy="49" fill="black" r="0.5" /><circle cx="52" cy="49" fill="black" r="0.5" /><circle cx="11" cy="50" fill="black" r="0.5" /><circle cx="15" cy="50" fill="black" r="0.5" /><circle cx="52" cy="50" fill="black" r="0.5" /><circle cx="0" cy="51" fill="black" r="0.5" /><circle cx="11" cy="51" fill="black" r="0.5" /><circle cx="15" cy="51" fill="black" r="0.5" /><circle cx="48" cy="51" fill="black" r="0.5" /><circle cx="52" cy="51" fill="black" r="0.5" /><circle cx="63" cy="51" fill="black" r="0.5" /><circle cx="0" cy="52" fill="black" r="0.5" /><circle cx="11" cy="52" fill="black" r="0.5" /><circle cx="15" cy="52" fill="black" r="0.5" /><circle cx="52" cy="52" fill="black" r="0.5" /><circle cx="63" cy="52" fill="black" r="0.5" /><circle cx="0" cy="53" fill="black" r="0.5" /><circle cx="1" cy="53" fill="black" r="0.5" /><circle cx="11" cy="53" fill="black" r="0.5" /><circle cx="15" cy="53" fill="black" r="0.5" /><circle cx="52" cy="53" fill="black" r="0.5" /><circle cx="62" cy="53" fill="black" r="0.5" /><circle cx="63" cy="53" fill="black" r="0.5" /><circle cx="0" cy="54" fill="black" r="0.5" /><circle cx="1" cy="54" fill="black" r="0.5" /><circle cx="2" cy="54" fill="black" r="0.5" /><circle cx="3" cy="54" fill="black" r="0.5" /><circle cx="4" cy="54" fill="black" r="0.5" /><circle cx="5" cy="54" fill="black" r="0.5" /><circle cx="6" cy="54" fill="black" r="0.5" /><circle cx="7" cy="54" fill="black" r="0.5" /><circle cx="8" cy="54" fill="black" r="0.5" /><circle cx="9" cy="54" fill="black" r="0.5" /><circle cx="10" cy="54" fill="black" r="0.5" /><circle cx="11" cy="54" fill="black" r="0.5" /><circle cx="15" cy="54" fill="black" r="0.5" /><circle cx="48" cy="54" fill="black" r="0.5" /><circle cx="52" cy="54" fill="black" r="0.5" /><circle cx="53" cy="54" fill="black" r="0.5" /><circle cx="54" cy="54" fill="black" r="0.5" /><circle cx="55" cy="54" fill="black" r="0.5" /><circle cx="56" cy="54" fill="black" r="0.5" /><circle cx="57" cy="54" fill="black" r="0.5" /><circle cx="58" cy="54" fill="black" r="0.5" /><circle cx="59" cy="54" fill="black" r="0.5" /><circle cx="60" cy="54" fill="black" r="0.5" /><circle cx="61" cy="54" fill="black" r="0.5" /><circle cx="62" cy="54" fill="black" r="0.5" /><circle cx="63" cy="54" fill="black" r="0.5" /><circle cx="1" cy="55" fill="black" r="0.5" /><circle cx="2" cy="55" fill="black" r="0.5" /><circle cx="3" cy="55" fill="black" r="0.5" /><circle cx="4" cy="55" fill="black" r="0.5" /><circle cx="5" cy="55" fill="black" r="0.5" /><circle cx="6" cy="55" fill="black" r="0.5" /><circle cx="7" cy="55" fill="black" r="0.5" /><circle cx="8" cy="55" fill="black" r="0.5" /><circle cx="9" cy="55" fill="black" r="0.5" /><circle cx="10" cy="55" fill="black" r="0.5" /><circle cx="11" cy="55" fill="black" r="0.5" /><circle cx="15" cy="55" fill="black" r="0.5" /><circle cx="48" cy="55" fill="black" r="0.5" /><circle cx="52" cy="55" fill="black" r="0.5" /><circle cx="53" cy="55" fill="black" r="0.5" /><circle cx="54" cy="55" fill="black" r="0.5" /><circle cx="55" cy="55" fill="black" r="0.5" /><circle cx="56" cy="55" fill="black" r="0.5" /><circle cx="57" cy="55" fill="black" r="0.5" /><circle cx="58" cy="55" fill="black" r="0.5" /><circle cx="59" cy="55" fill="black" r="0.5" /><circle cx="60" cy="55" fill="black" r="0.5" /><circle cx="61" cy="55" fill="black" r="0.5" /><circle cx="62" cy="55" fill="black" r="0.5" /><circle cx="15" cy="56" fill="black" r="0.5" /><circle cx="48" cy="56" fill="black" r="0.5" /><circle cx="15" cy="57" fill="black" r="0.5" /><circle cx="16" cy="57" fill="black" r="0.5" /><circle cx="47" cy="57" fill="black" r="0.5" /><circle cx="48" cy="57" fill="black" r="0.5" /><circle cx="16" cy="58" fill="black" r="0.5" /><circle cx="17" cy="58" fill="black" r="0.5" /><circle cx="18" cy="58" fill="black" r="0.5" /><circle cx="19" cy="58" fill="black" r="0.5" /><circle cx="20" cy="58" fill="black" r="0.5" /><circle cx="21" cy="58" fill="black" r="0.5" /><circle cx="22" cy="58" fill="black" r="0.5" /><circle cx="23" cy="58" fill="black" r="0.5" /><circle cx="24" cy="58" fill="black" r="0.5" /><circle cx="25" cy="58" fill="black" r="0.5" /><circle cx="26" cy="58" fill="black" r="0.5" /><circle cx="27" cy="58" fill="black" r="0.5" /><circle cx="28" cy="58" fill="black" r="0.5" /><circle cx="29" cy="58" fill="black" r="0.5" /><circle cx="30" cy="58" fill="black" r="0.5" /><circle cx="31" cy="58" fill="black" r="0.5" /><circle cx="32" cy="58" fill="black" r="0.5" /><circle cx="33" cy="58" fill="black" r="0.5" /><circle cx="34" cy="58" fill="black" r="0.5" /><circle cx="35" cy="58" fill="black" r="0.5" /><circle cx="36" cy="58" fill="black" r="0.5" /><circle cx="37" cy="58" fill="black" r="0.5" /><circle cx="38" cy="58" fill="black" r="0.5" /><circle cx="39" cy="58" fill="black" r="0.5" /><circle cx="40" cy="58" fill="black" r="0.5" /><circle cx="41" cy="58" fill="black" r="0.5" /><circle cx="42" cy="58" fill="black" r="0.5" /><circle cx="43" cy="58" fill="black" r="0.5" /><circle cx="44" cy="58" fill="black" r="0.5" /><circle cx="45" cy="58" fill="black" r="0.5" /><circle cx="46" cy="58" fill="black" r="0.5" /><circle cx="47" cy="58" fill="black" r="0.5" /><circle cx="48" cy="58" fill="black" r="0.5" /><circle cx="17" cy="59" fill="black" r="0.5" /><circle cx="18" cy="59" fill="black" r="0.5" /><circle cx="19" cy="59" fill="black" r="0.5" /><circle cx="20" cy="59" fill="black" r="0.5" /><circle cx="21" cy="59" fill="black" r="0.5" /><circle cx="22" cy="59" fill="black" r="0.5" /><circle cx="23" cy="59" fill="black" r="0.5" /><circle cx="24" cy="59" fill="black" r="0.5" /><circle cx="25" cy="59" fill="black" r="0.5" /><circle cx="26" cy="59" fill="black" r="0.5" /><circle cx="27" cy="59" fill="black" r="0.5" /><circle cx="28" cy="59" fill="black" r="0.5" /><circle cx="29" cy="59" fill="black" r="0.5" /><circle cx="30" cy="59" fill="black" r="0.5" /><circle cx="31" cy="59" fill="black" r="0.5" /><circle cx="32" cy="59" fill="black" r="0.5" /><circle cx="33" cy="59" fill="black" r="0.5" /><circle cx="34" cy="59" fill="black" r="0.5" /><circle cx="35" cy="59" fill="black" r="0.5" /><circle cx="36" cy="59" fill="black" r="0.5" /><circle cx="37" cy="59" fill="black" r="0.5" /><circle cx="38" cy="59" fill="black" r="0.5" /><circle cx="39" cy="59" fill="black" r="0.5" /><circle cx="40" cy="59" fill="black" r="0.5" /><circle cx="41" cy="59" fill="black" r="0.5" /><circle cx="42" cy="59" fill="black" r="0.5" /><circle cx="43" cy="59" fill="black" r="0.5" /><circle cx="44" cy="59" fill="black" r="0.5" /><circle cx="45" cy="59" fill="black" r="0.5" /><circle cx="46" cy="59" fill="black" r="0.5" /><circle cx="47" cy="59" fill="black" r="0.5" /></svg>