<?xml version="1.0" encoding="utf-8" ?>
<svg baseProfile="full" height="100%" version="1.1" width="100%" xmlns="http://www.w3.org/2000/svg" xmlns:ev="http://www.w3.org/2001/xml-events" xmlns:xlink="http://www.w3.org/1999/xlink"><defs /><circle cx="21" cy="3" fill="black" r="0.5" /><circle cx="22" cy="3" fill="black" r="0.5" /><circle cx="23" cy="3" fill="black" r="0.5" /><circle cx="24" cy="3" fill="black" r="0.5" /><circle cx="25" cy="3" fill="black" r="0.5" /><circle cx="26" cy="3" fill="black" r="0.5" /><circle cx="27" cy="3" fill="black" r="0.5" /><circle cx="28" cy="3" fill="black" r="0.5" /><circle cx="29" cy="3" fill="black" r="0.5" /><circle cx="20" cy="4" fill="black" r="0.5" /><circle cx="21" cy="4" fill="black" r="0.5" /><circle cx="22" cy="4" fill="black" r="0.5" /><circle cx="23" cy="4" fill="black" r="0.5" /><circle cx="24" cy="4" fill="black" r="0.5" /><circle cx="25" cy="4" fill="black" r="0.5" /><circle cx="26" cy="4" fill="black" r="0.5" /><circle cx="27" cy="4" fill="black" r="0.5" /><circle cx="28" cy="4" fill="black" r="0.5" /><circle cx="29" cy="4" fill="black" r="0.5" /><circle cx="30" cy="4" fill="black" r="0.5" /><circle cx="31" cy="4" fill="black" r="0.5" /><circle cx="19" cy="5" fill="black" r="0.5" /><circle cx="20" cy="5" fill="black" r="0.5" /><circle cx="21" cy="5" fill="black" r="0.5" /><circle cx="29" cy="5" fill="black" r="0.5" /><circle cx="30" cy="5" fill="black" r="0.5" /><circle cx="31" cy="5" fill="black" r="0.5" /><circle cx="32" cy="5" fill="black" r="0.5" /><circle cx="18" cy="6" fill="black" r="0.5" /><circle cx="19" cy="6" fill="black" r="0.5" /><circle cx="20" cy="6" fill="black" r="0.5" /><circle cx="31" cy="6" fill="black" r="0.5" /><circle cx="32" cy="6" fill="black" r="0.5" /><circle cx="33" cy="6" fill="black" r="0.5" /><circle cx="18" cy="7" fill="black" r="0.5" /><circle cx="19" cy="7" fill="black" r="0.5" /><circle cx="32" cy="7" fill="black" r="0.5" /><circle cx="33" cy="7" fill="black" r="0.5" /><circle cx="17" cy="8" fill="black" r="0.5" /><circle cx="18" cy="8" fill="black" r="0.5" /><circle cx="33" cy="8" fill="black" r="0.5" /><circle cx="17" cy="9" fill="black" r="0.5" /><circle cx="33" cy="9" fill="black" r="0.5" /><circle cx="34" cy="9" fill="black" r="0.5" /><circle cx="17" cy="10" fill="black" r="0.5" /><circle cx="34" cy="10" fill="black" r="0.5" /><circle cx="17" cy="11" fill="black" r="0.5" /><circle cx="34" cy="11" fill="black" r="0.5" /><circle cx="17" cy="12" fill="black" r="0.5" /><circle cx="34" cy="12" fill="black" r="0.5" /><circle cx="17" cy="13" fill="black" r="0.5" /><circle cx="34" cy="13" fill="black" r="0.5" /><circle cx="17" cy="14" fill="black" r="0.5" /><circle cx="33" cy="14" fill="black" r="0.5" /><circle cx="34" cy="14" fill="black" r="0.5" /><circle cx="17" cy="15" fill="black" r="0.5" /><circle cx="18" cy="15" fill="black" r="0.5" /><circle cx="33" cy="15" fill="black" r="0.5" /><circle cx="17" cy="16" fill="black" r="0.5" /><circle cx="18" cy="16" fill="black" r="0.5" /><circle cx="19" cy="16" fill="black" r="0.5" /><circle cx="32" cy="16" fill="black" r="0.5" /><circle cx="33" cy="16" fill="black" r="0.5" /><circle cx="18" cy="17" fill="black" r="0.5" /><circle cx="19" cy="17" fill="black" r="0.5" /><circle cx="20" cy="17" fill="black" r="0.5" /><circle cx="31" cy="17" fill="black" r="0.5" /><circle cx="32" cy="17" fill="black" r="0.5" /><circle cx="33" cy="17" fill="black" r="0.5" /><circle cx="19" cy="18" fill="black" r="0.5" /><circle cx="20" cy="18" fill="black" r="0.5" /><circle cx="21" cy="18" fill="black" r="0.5" /><circle cx="30" cy="18" fill="black" r="0.5" /><circle cx="31" cy="18" fill="black" r="0.5" /><circle cx="32" cy="18" fill="black" r="0.5" /><circle cx="20" cy="19" fill="black" r="0.5" /><circle cx="21" cy="19" fill="black" r="0.5" /><circle cx="22" cy="19" fill="black" r="0.5" /><circle cx="23" cy="19" fill="black" r="0.5" /><circle cx="27" cy="19" fill="black" r="0.5" /><circle cx="28" cy="19" fill="black" r="0.5" /><circle cx="29" cy="19" fill="black" r="0.5" /><circle cx="30" cy="19" fill="black" r="0.5" /><circle cx="31" cy="19" fill="black" r="0.5" /><circle cx="21" cy="20" fill="black" r="0.5" /><circle cx="22" cy="20" fill="black" r="0.5" /><circle cx="23" cy="20" fill="black" r="0.5" /><circle cx="24" cy="20" fill="black" r="0.5" /><circle cx="25" cy="20" fill="black" r="0.5" /><circle cx="26" cy="20" fill="black" r="0.5" /><circle cx="27" cy="20" fill="black" r="0.5" /><circle cx="28" cy="20" fill="black" r="0.5" /><circle cx="29" cy="20" fill="black" r="0.5" /><circle cx="30" cy="20" fill="black" r="0.5" /><circle cx="24" cy="21" fill="black" r="0.5" /><circle cx="25" cy="21" fill="black" r="0.5" /><circle cx="26" cy="21" fill="black" r="0.5" /><circle cx="27" cy="21" fill="black" r="0.5" /><circle cx="15" cy="27" fill="black" r="0.5" /><circle cx="16" cy="27" fill="black" r="0.5" /><circle cx="17" cy="27" fill="black" r="0.5" /><circle cx="18" cy="27" fill="black" r="0.5" /><circle cx="19" cy="27" fill="black" r="0.5" /><circle cx="20" cy="27" fill="black" r="0.5" /><circle cx="21" cy="27" fill="black" r="0.5" /><circle cx="22" cy="27" fill="black" r="0.5" /><circle cx="23" cy="27" fill="black" r="0.5" /><circle cx="24" cy="27" fill="black" r="0.5" /><circle cx="25" cy="27" fill="black" r="0.5" /><circle cx="26" cy="27" fill="black" r="0.5" /><circle cx="27" cy="27" fill="black" r="0.5" /><circle cx="28" cy="27" fill="black" r="0.5" /><circle cx="29" cy="27" fill="black" r="0.5" /><circle cx="30" cy="27" fill="black" r="0.5" /><circle cx="31" cy="27" fill="black" r="0.5" /><circle cx="32" cy="27" fill="black" r="0.5" /><circle cx="33" cy="27" fill="black" r="0.5" /><circle cx="34" cy="27" fill="black" r="0.5" /><circle cx="35" cy="27" fill="black" r="0.5" /><circle cx="36" cy="27" fill="black" r="0.5" /><circle cx="13" cy="28" fill="black" r="0.5" /><circle cx="14" cy="28" fill="black" r="0.5" /><circle cx="15" cy="28" fill="black" r="0.5" /><circle cx="16" cy="28" fill="black" r="0.5" /><circle cx="17" cy="28" fill="black" r="0.5" /><circle cx="18" cy="28" fill="black" r="0.5" /><circle cx="19" cy="28" fill="black" r="0.5" /><circle cx="20" cy="28" fill="black" r="0.5" /><circle cx="21" cy="28" fill="black" r="0.5" /><circle cx="22" cy="28" fill="black" r="0.5" /><circle cx="23" cy="28" fill="black" r="0.5" /><circle cx="24" cy="28" fill="black" r="0.5" /><circle cx="25" cy="28" fill="black" r="0.5" /><circle cx="26" cy="28" fill="black" r="0.5" /><circle cx="27" cy="28" fill="black" r="0.5" /><circle cx="28" cy="28" fill="black" r="0.5" /><circle cx="29" cy="28" fill="black" r="0.5" /><circle cx="30" cy="28" fill="black" r="0.5" /><circle cx="31" cy="28" fill="black" r="0.5" /><circle cx="32" cy="28" fill="black" r="0.5" /><circle cx="33" cy="28" fill="black" r="0.5" /><circle cx="34" cy="28" fill="black" r="0.5" /><circle cx="35" cy="28" fill="black" r="0.5" /><circle cx="36" cy="28" fill="black" r="0.5" /><circle cx="37" cy="28" fill="black" r="0.5" /><circle cx="38" cy="28" fill="black" r="0.5" /><circle cx="11" cy="29" fill="black" r="0.5" /><circle cx="12" cy="29" fill="black" r="0.5" /><circle cx="13" cy="29" fill="black" r="0.5" /><circle cx="14" cy="29" fill="black" r="0.5" /><circle cx="36" cy="29" fill="black" r="0.5" /><circle cx="37" cy="29" fill="black" r="0.5" /><circle cx="38" cy="29" fill="black" r="0.5" /><circle cx="39" cy="29" fill="black" r="0.5" /><circle cx="10" cy="30" fill="black" r="0.5" /><circle cx="11" cy="30" fill="black" r="0.5" /><circle cx="12" cy="30" fill="black" r="0.5" /><circle cx="38" cy="30" fill="black" r="0.5" /><circle cx="39" cy="30" fill="black" r="0.5" /><circle cx="40" cy="30" fill="black" r="0.5" /><circle cx="9" cy="31" fill="black" r="0.5" /><circle cx="10" cy="31" fill="black" r="0.5" /><circle cx="11" cy="31" fill="black" r="0.5" /><circle cx="40" cy="31" fill="black" r="0.5" /><circle cx="41" cy="31" fill="black" r="0.5" /><circle cx="9" cy="32" fill="black" r="0.5" /><circle cx="10" cy="32" fill="black" r="0.5" /><circle cx="41" cy="32" fill="black" r="0.5" /><circle cx="42" cy="32" fill="black" r="0.5" /><circle cx="8" cy="33" fill="black" r="0.5" /><circle cx="9" cy="33" fill="black" r="0.5" /><circle cx="41" cy="33" fill="black" r="0.5" /><circle cx="42" cy="33" fill="black" r="0.5" /><circle cx="43" cy="33" fill="black" r="0.5" /><circle cx="8" cy="34" fill="black" r="0.5" /><circle cx="9" cy="34" fill="black" r="0.5" /><circle cx="42" cy="34" fill="black" r="0.5" /><circle cx="43" cy="34" fill="black" r="0.5" /><circle cx="7" cy="35" fill="black" r="0.5" /><circle cx="8" cy="35" fill="black" r="0.5" /><circle cx="43" cy="35" fill="black" r="0.5" /><circle cx="7" cy="36" fill="black" r="0.5" /><circle cx="8" cy="36" fill="black" r="0.5" /><circle cx="42" cy="36" fill="black" r="0.5" /><circle cx="43" cy="36" fill="black" r="0.5" /><circle cx="7" cy="37" fill="black" r="0.5" /><circle cx="42" cy="37" fill="black" r="0.5" /><circle cx="43" cy="37" fill="black" r="0.5" /><circle cx="44" cy="37" fill="black" r="0.5" /><circle cx="45" cy="37" fill="black" r="0.5" /><circle cx="46" cy="37" fill="black" r="0.5" /><circle cx="7" cy="38" fill="black" r="0.5" /><circle cx="41" cy="38" fill="black" r="0.5" /><circle cx="42" cy="38" fill="black" r="0.5" /><circle cx="44" cy="38" fill="black" r="0.5" /><circle cx="45" cy="38" fill="black" r="0.5" /><circle cx="46" cy="38" fill="black" r="0.5" /><circle cx="7" cy="39" fill="black" r="0.5" /><circle cx="41" cy="39" fill="black" r="0.5" /><circle cx="42" cy="39" fill="black" r="0.5" /><circle cx="43" cy="39" fill="black" r="0.5" /><circle cx="44" cy="39" fill="black" r="0.5" /><circle cx="46" cy="39" fill="black" r="0.5" /><circle cx="47" cy="39" fill="black" r="0.5" /><circle cx="7" cy="40" fill="black" r="0.5" /><circle cx="40" cy="40" fill="black" r="0.5" /><circle cx="41" cy="40" fill="black" r="0.5" /><circle cx="43" cy="40" fill="black" r="0.5" /><circle cx="44" cy="40" fill="black" r="0.5" /><circle cx="46" cy="40" fill="black" r="0.5" /><circle cx="47" cy="40" fill="black" r="0.5" /><circle cx="40" cy="41" fill="black" r="0.5" /><circle cx="41" cy="41" fill="black" r="0.5" /><circle cx="42" cy="41" fill="black" r="0.5" /><circle cx="43" cy="41" fill="black" r="0.5" /><circle cx="47" cy="41" fill="black" r="0.5" /><circle cx="48" cy="41" fill="black" r="0.5" /><circle cx="34" cy="42" fill="black" r="0.5" /><circle cx="35" cy="42" fill="black" r="0.5" /><circle cx="36" cy="42" fill="black" r="0.5" /><circle cx="37" cy="42" fill="black" r="0.5" /><circle cx="38" cy="42" fill="black" r="0.5" /><circle cx="39" cy="42" fill="black" r="0.5" /><circle cx="40" cy="42" fill="black" r="0.5" /><circle cx="42" cy="42" fill="black" r="0.5" /><circle cx="43" cy="42" fill="black" r="0.5" /><circle cx="47" cy="42" fill="black" r="0.5" /><circle cx="48" cy="42" fill="black" r="0.5" /><circle cx="32" cy="43" fill="black" r="0.5" /><circle cx="33" cy="43" fill="black" r="0.5" /><circle cx="34" cy="43" fill="black" r="0.5" /><circle cx="35" cy="43" fill="black" r="0.5" /><circle cx="36" cy="43" fill="black" r="0.5" /><circle cx="37" cy="43" fill="black" r="0.5" /><circle cx="38" cy="43" fill="black" r="0.5" /><circle cx="39" cy="43" fill="black" r="0.5" /><circle cx="40" cy="43" fill="black" r="0.5" /><circle cx="41" cy="43" fill="black" r="0.5" /><circle cx="42" cy="43" fill="black" r="0.5" /><circle cx="48" cy="43" fill="black" r="0.5" /><circle cx="49" cy="43" fill="black" r="0.5" /><circle cx="32" cy="44" fill="black" r="0.5" /><circle cx="33" cy="44" fill="black" r="0.5" /><circle cx="34" cy="44" fill="black" r="0.5" /><circle cx="35" cy="44" fill="black" r="0.5" /><circle cx="36" cy="44" fill="black" r="0.5" /><circle cx="37" cy="44" fill="black" r="0.5" /><circle cx="38" cy="44" fill="black" r="0.5" /><circle cx="39" cy="44" fill="black" r="0.5" /><circle cx="40" cy="44" fill="black" r="0.5" /><circle cx="41" cy="44" fill="black" r="0.5" /><circle cx="48" cy="44" fill="black" r="0.5" /><circle cx="49" cy="44" fill="black" r="0.5" /><circle cx="50" cy="44" fill="black" r="0.5" /><circle cx="51" cy="44" fill="black" r="0.5" /><circle cx="52" cy="44" fill="black" r="0.5" /><circle cx="53" cy="44" fill="black" r="0.5" /><circle cx="54" cy="44" fill="black" r="0.5" /><circle cx="55" cy="44" fill="black" r="0.5" /><circle cx="32" cy="45" fill="black" r="0.5" /><circle cx="34" cy="45" fill="black" r="0.5" /><circle cx="35" cy="45" fill="black" r="0.5" /><circle cx="36" cy="45" fill="black" r="0.5" /><circle cx="37" cy="45" fill="black" r="0.5" /><circle cx="38" cy="45" fill="black" r="0.5" /><circle cx="39" cy="45" fill="black" r="0.5" /><circle cx="40" cy="45" fill="black" r="0.5" /><circle cx="49" cy="45" fill="black" r="0.5" /><circle cx="50" cy="45" fill="black" r="0.5" /><circle cx="51" cy="45" fill="black" r="0.5" /><circle cx="52" cy="45" fill="black" r="0.5" /><circle cx="53" cy="45" fill="black" r="0.5" /><circle cx="54" cy="45" fill="black" r="0.5" /><circle cx="55" cy="45" fill="black" r="0.5" /><circle cx="56" cy="45" fill="black" r="0.5" /><circle cx="32" cy="46" fill="black" r="0.5" /><circle cx="34" cy="46" fill="black" r="0.5" /><circle cx="55" cy="46" fill="black" r="0.5" /><circle cx="56" cy="46" fill="black" r="0.5" /><circle cx="7" cy="47" fill="black" r="0.5" /><circle cx="8" cy="47" fill="black" r="0.5" /><circle cx="9" cy="47" fill="black" r="0.5" /><circle cx="10" cy="47" fill="black" r="0.5" /><circle cx="11" cy="47" fill="black" r="0.5" /><circle cx="12" cy="47" fill="black" r="0.5" /><circle cx="13" cy="47" fill="black" r="0.5" /><circle cx="14" cy="47" fill="black" r="0.5" /><circle cx="15" cy="47" fill="black" r="0.5" /><circle cx="16" cy="47" fill="black" r="0.5" /><circle cx="17" cy="47" fill="black" r="0.5" /><circle cx="18" cy="47" fill="black" r="0.5" /><circle cx="19" cy="47" fill="black" r="0.5" /><circle cx="20" cy="47" fill="black" r="0.5" /><circle cx="21" cy="47" fill="black" r="0.5" /><circle cx="22" cy="47" fill="black" r="0.5" /><circle cx="23" cy="47" fill="black" r="0.5" /><circle cx="24" cy="47" fill="black" r="0.5" /><circle cx="25" cy="47" fill="black" r="0.5" /><circle cx="26" cy="47" fill="black" r="0.5" /><circle cx="27" cy="47" fill="black" r="0.5" /><circle cx="28" cy="47" fill="black" r="0.5" /><circle cx="29" cy="47" fill="black" r="0.5" /><circle cx="30" cy="47" fill="black" r="0.5" /><circle cx="31" cy="47" fill="black" r="0.5" /><circle cx="32" cy="47" fill="black" r="0.5" /><circle cx="34" cy="47" fill="black" r="0.5" /><circle cx="35" cy="47" fill="black" r="0.5" /><circle cx="54" cy="47" fill="black" r="0.5" /><circle cx="55" cy="47" fill="black" r="0.5" /><circle cx="56" cy="47" fill="black" r="0.5" /><circle cx="7" cy="48" fill="black" r="0.5" /><circle cx="8" cy="48" fill="black" r="0.5" /><circle cx="9" cy="48" fill="black" r="0.5" /><circle cx="10" cy="48" fill="black" r="0.5" /><circle cx="11" cy="48" fill="black" r="0.5" /><circle cx="12" cy="48" fill="black" r="0.5" /><circle cx="13" cy="48" fill="black" r="0.5" /><circle cx="14" cy="48" fill="black" r="0.5" /><circle cx="15" cy="48" fill="black" r="0.5" /><circle cx="16" cy="48" fill="black" r="0.5" /><circle cx="17" cy="48" fill="black" r="0.5" /><circle cx="18" cy="48" fill="black" r="0.5" /><circle cx="19" cy="48" fill="black" r="0.5" /><circle cx="20" cy="48" fill="black" r="0.5" /><circle cx="21" cy="48" fill="black" r="0.5" /><circle cx="22" cy="48" fill="black" r="0.5" /><circle cx="23" cy="48" fill="black" r="0.5" /><circle cx="24" cy="48" fill="black" r="0.5" /><circle cx="25" cy="48" fill="black" r="0.5" /><circle cx="26" cy="48" fill="black" r="0.5" /><circle cx="27" cy="48" fill="black" r="0.5" /><circle cx="28" cy="48" fill="black" r="0.5" /><circle cx="29" cy="48" fill="black" r="0.5" /><circle cx="30" cy="48" fill="black" r="0.5" /><circle cx="31" cy="48" fill="black" r="0.5" /><circle cx="32" cy="48" fill="black" r="0.5" /><circle cx="35" cy="48" fill="black" r="0.5" /><circle cx="36" cy="48" fill="black" r="0.5" /><circle cx="53" cy="48" fill="black" r="0.5" /><circle cx="54" cy="48" fill="black" r="0.5" /><circle cx="55" cy="48" fill="black" r="0.5" /><circle cx="36" cy="49" fill="black" r="0.5" /><circle cx="37" cy="49" fill="black" r="0.5" /><circle cx="52" cy="49" fill="black" r="0.5" /><circle cx="53" cy="49" fill="black" r="0.5" /><circle cx="54" cy="49" fill="black" r="0.5" /><circle cx="37" cy="50" fill="black" r="0.5" /><circle cx="38" cy="50" fill="black" r="0.5" /><circle cx="52" cy="50" fill="black" r="0.5" /><circle cx="53" cy="50" fill="black" r="0.5" /><circle cx="38" cy="51" fill="black" r="0.5" /><circle cx="39" cy="51" fill="black" r="0.5" /><circle cx="51" cy="51" fill="black" r="0.5" /><circle cx="52" cy="51" fill="black" r="0.5" /><circle cx="38" cy="52" fill="black" r="0.5" /><circle cx="39" cy="52" fill="black" r="0.5" /><circle cx="51" cy="52" fill="black" r="0.5" /><circle cx="38" cy="53" fill="black" r="0.5" /><circle cx="39" cy="53" fill="black" r="0.5" /><circle cx="51" cy="53" fill="black" r="0.5" /><circle cx="38" cy="54" fill="black" r="0.5" /><circle cx="51" cy="54" fill="black" r="0.5" /><circle cx="52" cy="54" fill="black" r="0.5" /><circle cx="38" cy="55" fill="black" r="0.5" /><circle cx="52" cy="55" fill="black" r="0.5" /><circle cx="38" cy="56" fill="black" r="0.5" /><circle cx="42" cy="56" fill="black" r="0.5" /><circle cx="43" cy="56" fill="black" r="0.5" /><circle cx="44" cy="56" fill="black" r="0.5" /><circle cx="45" cy="56" fill="black" r="0.5" /><circle cx="46" cy="56" fill="black" r="0.5" /><circle cx="47" cy="56" fill="black" r="0.5" /><circle cx="52" cy="56" fill="black" r="0.5" /><circle cx="38" cy="57" fill="black" r="0.5" /><circle cx="41" cy="57" fill="black" r="0.5" /><circle cx="42" cy="57" fill="black" r="0.5" /><circle cx="43" cy="57" fill="black" r="0.5" /><circle cx="44" cy="57" fill="black" r="0.5" /><circle cx="45" cy="57" fill="black" r="0.5" /><circle cx="46" cy="57" fill="black" r="0.5" /><circle cx="47" cy="57" fill="black" r="0.5" /><circle cx="48" cy="57" fill="black" r="0.5" /><circle cx="49" cy="57" fill="black" r="0.5" /><circle cx="52" cy="57" fill="black" r="0.5" /><circle cx="38" cy="58" fill="black" r="0.5" /><circle cx="39" cy="58" fill="black" r="0.5" /><circle cx="40" cy="58" fill="black" r="0.5" /><circle cx="41" cy="58" fill="black" r="0.5" /><circle cx="42" cy="58" fill="black" r="0.5" /><circle cx="48" cy="58" fill="black" r="0.5" /><circle cx="49" cy="58" fill="black" r="0.5" /><circle cx="50" cy="58" fill="black" r="0.5" /><circle cx="51" cy="58" fill="black" r="0.5" /><circle cx="52" cy="58" fill="black" r="0.5" /><circle cx="38" cy="59" fill="black" r="0.5" /><circle cx="39" cy="59" fill="black" r="0.5" /><circle cx="40" cy="59" fill="black" r="0.5" /><circle cx="49" cy="59" fill="black" r="0.5" /><circle cx="50" cy="59" fill="black" r="0.5" /><circle cx="51" cy="59" fill="black" r="0.5" /><circle cx="52" cy="59" fill="black" r="0.5" /></svg>