<?xml version="1.0" encoding="utf-8" ?>
<svg baseProfile="full" height="100%" version="1.1" width="100%" xmlns="http://www.w3.org/2000/svg" xmlns:ev="http://www.w3.org/2001/xml-events" xmlns:xlink="http://www.w3.org/1999/xlink"><defs /><circle cx="9" cy="3" fill="black" r="0.5" /><circle cx="10" cy="3" fill="black" r="0.5" /><circle cx="11" cy="3" fill="black" r="0.5" /><circle cx="12" cy="3" fill="black" r="0.5" /><circle cx="13" cy="3" fill="black" r="0.5" /><circle cx="14" cy="3" fill="black" r="0.5" /><circle cx="15" cy="3" fill="black" r="0.5" /><circle cx="16" cy="3" fill="black" r="0.5" /><circle cx="17" cy="3" fill="black" r="0.5" /><circle cx="18" cy="3" fill="black" r="0.5" /><circle cx="19" cy="3" fill="black" r="0.5" /><circle cx="20" cy="3" fill="black" r="0.5" /><circle cx="21" cy="3" fill="black" r="0.5" /><circle cx="22" cy="3" fill="black" r="0.5" /><circle cx="23" cy="3" fill="black" r="0.5" /><circle cx="24" cy="3" fill="black" r="0.5" /><circle cx="25" cy="3" fill="black" r="0.5" /><circle cx="26" cy="3" fill="black" r="0.5" /><circle cx="27" cy="3" fill="black" r="0.5" /><circle cx="28" cy="3" fill="black" r="0.5" /><circle cx="29" cy="3" fill="black" r="0.5" /><circle cx="30" cy="3" fill="black" r="0.5" /><circle cx="31" cy="3" fill="black" r="0.5" /><circle cx="32" cy="3" fill="black" r="0.5" /><circle cx="33" cy="3" fill="black" r="0.5" /><circle cx="34" cy="3" fill="black" r="0.5" /><circle cx="35" cy="3" fill="black" r="0.5" /><circle cx="36" cy="3" fill="black" r="0.5" /><circle cx="37" cy="3" fill="black" r="0.5" /><circle cx="38" cy="3" fill="black" r="0.5" /><circle cx="39" cy="3" fill="black" r="0.5" /><circle cx="40" cy="3" fill="black" r="0.5" /><circle cx="41" cy="3" fill="black" r="0.5" /><circle cx="42" cy="3" fill="black" r="0.5" /><circle cx="43" cy="3" fill="black" r="0.5" /><circle cx="44" cy="3" fill="black" r="0.5" /><circle cx="45" cy="3" fill="black" r="0.5" /><circle cx="46" cy="3" fill="black" r="0.5" /><circle cx="47" cy="3" fill="black" r="0.5" /><circle cx="48" cy="3" fill="black" r="0.5" /><circle cx="49" cy="3" fill="black" r="0.5" /><circle cx="50" cy="3" fill="black" r="0.5" /><circle cx="51" cy="3" fill="black" r="0.5" /><circle cx="52" cy="3" fill="black" r="0.5" /><circle cx="53" cy="3" fill="black" r="0.5" /><circle cx="54" cy="3" fill="black" r="0.5" /><circle cx="55" cy="3" fill="black" r="0.5" /><circle cx="56" cy="3" fill="black" r="0.5" /><circle cx="57" cy="3" fill="black" r="0.5" /><circle cx="58" cy="3" fill="black" r="0.5" /><circle cx="59" cy="3" fill="black" r="0.5" /><circle cx="60" cy="3" fill="black" r="0.5" /><circle cx="61" cy="3" fill="black" r="0.5" /><circle cx="62" cy="3" fill="black" r="0.5" /><circle cx="63" cy="3" fill="black" r="0.5" /><circle cx="9" cy="4" fill="black" r="0.5" /><circle cx="10" cy="4" fill="black" r="0.5" /><circle cx="11" cy="4" fill="black" r="0.5" /><circle cx="12" cy="4" fill="black" r="0.5" /><circle cx="13" cy="4" fill="black" r="0.5" /><circle cx="14" cy="4" fill="black" r="0.5" /><circle cx="15" cy="4" fill="black" r="0.5" /><circle cx="16" cy="4" fill="black" r="0.5" /><circle cx="17" cy="4" fill="black" r="0.5" /><circle cx="18" cy="4" fill="black" r="0.5" /><circle cx="19" cy="4" fill="black" r="0.5" /><circle cx="20" cy="4" fill="black" r="0.5" /><circle cx="21" cy="4" fill="black" r="0.5" /><circle cx="22" cy="4" fill="black" r="0.5" /><circle cx="23" cy="4" fill="black" r="0.5" /><circle cx="24" cy="4" fill="black" r="0.5" /><circle cx="25" cy="4" fill="black" r="0.5" /><circle cx="26" cy="4" fill="black" r="0.5" /><circle cx="27" cy="4" fill="black" r="0.5" /><circle cx="28" cy="4" fill="black" r="0.5" /><circle cx="29" cy="4" fill="black" r="0.5" /><circle cx="30" cy="4" fill="black" r="0.5" /><circle cx="31" cy="4" fill="black" r="0.5" /><circle cx="32" cy="4" fill="black" r="0.5" /><circle cx="33" cy="4" fill="black" r="0.5" /><circle cx="34" cy="4" fill="black" r="0.5" /><circle cx="35" cy="4" fill="black" r="0.5" /><circle cx="36" cy="4" fill="black" r="0.5" /><circle cx="37" cy="4" fill="black" r="0.5" /><circle cx="38" cy="4" fill="black" r="0.5" /><circle cx="39" cy="4" fill="black" r="0.5" /><circle cx="40" cy="4" fill="black" r="0.5" /><circle cx="41" cy="4" fill="black" r="0.5" /><circle cx="42" cy="4" fill="black" r="0.5" /><circle cx="43" cy="4" fill="black" r="0.5" /><circle cx="44" cy="4" fill="black" r="0.5" /><circle cx="45" cy="4" fill="black" r="0.5" /><circle cx="46" cy="4" fill="black" r="0.5" /><circle cx="47" cy="4" fill="black" r="0.5" /><circle cx="48" cy="4" fill="black" r="0.5" /><circle cx="49" cy="4" fill="black" r="0.5" /><circle cx="50" cy="4" fill="black" r="0.5" /><circle cx="51" cy="4" fill="black" r="0.5" /><circle cx="52" cy="4" fill="black" r="0.5" /><circle cx="53" cy="4" fill="black" r="0.5" /><circle cx="54" cy="4" fill="black" r="0.5" /><circle cx="55" cy="4" fill="black" r="0.5" /><circle cx="56" cy="4" fill="black" r="0.5" /><circle cx="57" cy="4" fill="black" r="0.5" /><circle cx="58" cy="4" fill="black" r="0.5" /><circle cx="59" cy="4" fill="black" r="0.5" /><circle cx="60" cy="4" fill="black" r="0.5" /><circle cx="61" cy="4" fill="black" r="0.5" /><circle cx="62" cy="4" fill="black" r="0.5" /><circle cx="63" cy="4" fill="black" r="0.5" /><circle cx="13" cy="5" fill="black" r="0.5" /><circle cx="14" cy="5" fill="black" r="0.5" /><circle cx="15" cy="5" fill="black" r="0.5" /><circle cx="16" cy="5" fill="black" r="0.5" /><circle cx="17" cy="5" fill="black" r="0.5" /><circle cx="18" cy="5" fill="black" r="0.5" /><circle cx="19" cy="5" fill="black" r="0.5" /><circle cx="23" cy="5" fill="black" r="0.5" /><circle cx="24" cy="5" fill="black" r="0.5" /><circle cx="25" cy="5" fill="black" r="0.5" /><circle cx="26" cy="5" fill="black" r="0.5" /><circle cx="27" cy="5" fill="black" r="0.5" /><circle cx="28" cy="5" fill="black" r="0.5" /><circle cx="13" cy="6" fill="black" r="0.5" /><circle cx="14" cy="6" fill="black" r="0.5" /><circle cx="15" cy="6" fill="black" r="0.5" /><circle cx="16" cy="6" fill="black" r="0.5" /><circle cx="17" cy="6" fill="black" r="0.5" /><circle cx="18" cy="6" fill="black" r="0.5" /><circle cx="19" cy="6" fill="black" r="0.5" /><circle cx="22" cy="6" fill="black" r="0.5" /><circle cx="23" cy="6" fill="black" r="0.5" /><circle cx="24" cy="6" fill="black" r="0.5" /><circle cx="25" cy="6" fill="black" r="0.5" /><circle cx="26" cy="6" fill="black" r="0.5" /><circle cx="27" cy="6" fill="black" r="0.5" /><circle cx="28" cy="6" fill="black" r="0.5" /><circle cx="13" cy="7" fill="black" r="0.5" /><circle cx="18" cy="7" fill="black" r="0.5" /><circle cx="19" cy="7" fill="black" r="0.5" /><circle cx="22" cy="7" fill="black" r="0.5" /><circle cx="23" cy="7" fill="black" r="0.5" /><circle cx="28" cy="7" fill="black" r="0.5" /><circle cx="13" cy="8" fill="black" r="0.5" /><circle cx="14" cy="8" fill="black" r="0.5" /><circle cx="15" cy="8" fill="black" r="0.5" /><circle cx="16" cy="8" fill="black" r="0.5" /><circle cx="17" cy="8" fill="black" r="0.5" /><circle cx="18" cy="8" fill="black" r="0.5" /><circle cx="19" cy="8" fill="black" r="0.5" /><circle cx="22" cy="8" fill="black" r="0.5" /><circle cx="23" cy="8" fill="black" r="0.5" /><circle cx="24" cy="8" fill="black" r="0.5" /><circle cx="25" cy="8" fill="black" r="0.5" /><circle cx="26" cy="8" fill="black" r="0.5" /><circle cx="27" cy="8" fill="black" r="0.5" /><circle cx="28" cy="8" fill="black" r="0.5" /><circle cx="9" cy="11" fill="black" r="0.5" /><circle cx="10" cy="11" fill="black" r="0.5" /><circle cx="11" cy="11" fill="black" r="0.5" /><circle cx="12" cy="11" fill="black" r="0.5" /><circle cx="13" cy="11" fill="black" r="0.5" /><circle cx="14" cy="11" fill="black" r="0.5" /><circle cx="15" cy="11" fill="black" r="0.5" /><circle cx="16" cy="11" fill="black" r="0.5" /><circle cx="17" cy="11" fill="black" r="0.5" /><circle cx="18" cy="11" fill="black" r="0.5" /><circle cx="19" cy="11" fill="black" r="0.5" /><circle cx="20" cy="11" fill="black" r="0.5" /><circle cx="21" cy="11" fill="black" r="0.5" /><circle cx="22" cy="11" fill="black" r="0.5" /><circle cx="23" cy="11" fill="black" r="0.5" /><circle cx="24" cy="11" fill="black" r="0.5" /><circle cx="25" cy="11" fill="black" r="0.5" /><circle cx="26" cy="11" fill="black" r="0.5" /><circle cx="27" cy="11" fill="black" r="0.5" /><circle cx="28" cy="11" fill="black" r="0.5" /><circle cx="29" cy="11" fill="black" r="0.5" /><circle cx="30" cy="11" fill="black" r="0.5" /><circle cx="31" cy="11" fill="black" r="0.5" /><circle cx="32" cy="11" fill="black" r="0.5" /><circle cx="33" cy="11" fill="black" r="0.5" /><circle cx="34" cy="11" fill="black" r="0.5" /><circle cx="35" cy="11" fill="black" r="0.5" /><circle cx="36" cy="11" fill="black" r="0.5" /><circle cx="37" cy="11" fill="black" r="0.5" /><circle cx="38" cy="11" fill="black" r="0.5" /><circle cx="39" cy="11" fill="black" r="0.5" /><circle cx="40" cy="11" fill="black" r="0.5" /><circle cx="41" cy="11" fill="black" r="0.5" /><circle cx="42" cy="11" fill="black" r="0.5" /><circle cx="43" cy="11" fill="black" r="0.5" /><circle cx="44" cy="11" fill="black" r="0.5" /><circle cx="45" cy="11" fill="black" r="0.5" /><circle cx="46" cy="11" fill="black" r="0.5" /><circle cx="47" cy="11" fill="black" r="0.5" /><circle cx="48" cy="11" fill="black" r="0.5" /><circle cx="49" cy="11" fill="black" r="0.5" /><circle cx="50" cy="11" fill="black" r="0.5" /><circle cx="51" cy="11" fill="black" r="0.5" /><circle cx="52" cy="11" fill="black" r="0.5" /><circle cx="53" cy="11" fill="black" r="0.5" /><circle cx="54" cy="11" fill="black" r="0.5" /><circle cx="55" cy="11" fill="black" r="0.5" /><circle cx="56" cy="11" fill="black" r="0.5" /><circle cx="57" cy="11" fill="black" r="0.5" /><circle cx="58" cy="11" fill="black" r="0.5" /><circle cx="59" cy="11" fill="black" r="0.5" /><circle cx="60" cy="11" fill="black" r="0.5" /><circle cx="61" cy="11" fill="black" r="0.5" /><circle cx="62" cy="11" fill="black" r="0.5" /><circle cx="63" cy="11" fill="black" r="0.5" /><circle cx="0" cy="12" fill="black" r="0.5" /><circle cx="1" cy="12" fill="black" r="0.5" /><circle cx="2" cy="12" fill="black" r="0.5" /><circle cx="3" cy="12" fill="black" r="0.5" /><circle cx="4" cy="12" fill="black" r="0.5" /><circle cx="5" cy="12" fill="black" r="0.5" /><circle cx="6" cy="12" fill="black" r="0.5" /><circle cx="9" cy="12" fill="black" r="0.5" /><circle cx="10" cy="12" fill="black" r="0.5" /><circle cx="11" cy="12" fill="black" r="0.5" /><circle cx="12" cy="12" fill="black" r="0.5" /><circle cx="13" cy="12" fill="black" r="0.5" /><circle cx="14" cy="12" fill="black" r="0.5" /><circle cx="15" cy="12" fill="black" r="0.5" /><circle cx="16" cy="12" fill="black" r="0.5" /><circle cx="17" cy="12" fill="black" r="0.5" /><circle cx="18" cy="12" fill="black" r="0.5" /><circle cx="19" cy="12" fill="black" r="0.5" /><circle cx="20" cy="12" fill="black" r="0.5" /><circle cx="21" cy="12" fill="black" r="0.5" /><circle cx="22" cy="12" fill="black" r="0.5" /><circle cx="23" cy="12" fill="black" r="0.5" /><circle cx="24" cy="12" fill="black" r="0.5" /><circle cx="25" cy="12" fill="black" r="0.5" /><circle cx="26" cy="12" fill="black" r="0.5" /><circle cx="27" cy="12" fill="black" r="0.5" /><circle cx="28" cy="12" fill="black" r="0.5" /><circle cx="29" cy="12" fill="black" r="0.5" /><circle cx="30" cy="12" fill="black" r="0.5" /><circle cx="31" cy="12" fill="black" r="0.5" /><circle cx="32" cy="12" fill="black" r="0.5" /><circle cx="33" cy="12" fill="black" r="0.5" /><circle cx="34" cy="12" fill="black" r="0.5" /><circle cx="35" cy="12" fill="black" r="0.5" /><circle cx="36" cy="12" fill="black" r="0.5" /><circle cx="37" cy="12" fill="black" r="0.5" /><circle cx="38" cy="12" fill="black" r="0.5" /><circle cx="39" cy="12" fill="black" r="0.5" /><circle cx="40" cy="12" fill="black" r="0.5" /><circle cx="41" cy="12" fill="black" r="0.5" /><circle cx="42" cy="12" fill="black" r="0.5" /><circle cx="43" cy="12" fill="black" r="0.5" /><circle cx="44" cy="12" fill="black" r="0.5" /><circle cx="45" cy="12" fill="black" r="0.5" /><circle cx="46" cy="12" fill="black" r="0.5" /><circle cx="47" cy="12" fill="black" r="0.5" /><circle cx="48" cy="12" fill="black" r="0.5" /><circle cx="49" cy="12" fill="black" r="0.5" /><circle cx="50" cy="12" fill="black" r="0.5" /><circle cx="51" cy="12" fill="black" r="0.5" /><circle cx="52" cy="12" fill="black" r="0.5" /><circle cx="53" cy="12" fill="black" r="0.5" /><circle cx="54" cy="12" fill="black" r="0.5" /><circle cx="55" cy="12" fill="black" r="0.5" /><circle cx="56" cy="12" fill="black" r="0.5" /><circle cx="57" cy="12" fill="black" r="0.5" /><circle cx="58" cy="12" fill="black" r="0.5" /><circle cx="59" cy="12" fill="black" r="0.5" /><circle cx="60" cy="12" fill="black" r="0.5" /><circle cx="61" cy="12" fill="black" r="0.5" /><circle cx="62" cy="12" fill="black" r="0.5" /><circle cx="63" cy="12" fill="black" r="0.5" /><circle cx="0" cy="13" fill="black" r="0.5" /><circle cx="1" cy="13" fill="black" r="0.5" /><circle cx="2" cy="13" fill="black" r="0.5" /><circle cx="3" cy="13" fill="black" r="0.5" /><circle cx="4" cy="13" fill="black" r="0.5" /><circle cx="5" cy="13" fill="black" r="0.5" /><circle cx="6" cy="13" fill="black" r="0.5" /><circle cx="9" cy="13" fill="black" r="0.5" /><circle cx="10" cy="13" fill="black" r="0.5" /><circle cx="11" cy="13" fill="black" r="0.5" /><circle cx="12" cy="13" fill="black" r="0.5" /><circle cx="13" cy="13" fill="black" r="0.5" /><circle cx="14" cy="13" fill="black" r="0.5" /><circle cx="15" cy="13" fill="black" r="0.5" /><circle cx="16" cy="13" fill="black" r="0.5" /><circle cx="17" cy="13" fill="black" r="0.5" /><circle cx="18" cy="13" fill="black" r="0.5" /><circle cx="19" cy="13" fill="black" r="0.5" /><circle cx="20" cy="13" fill="black" r="0.5" /><circle cx="21" cy="13" fill="black" r="0.5" /><circle cx="22" cy="13" fill="black" r="0.5" /><circle cx="23" cy="13" fill="black" r="0.5" /><circle cx="24" cy="13" fill="black" r="0.5" /><circle cx="25" cy="13" fill="black" r="0.5" /><circle cx="26" cy="13" fill="black" r="0.5" /><circle cx="27" cy="13" fill="black" r="0.5" /><circle cx="28" cy="13" fill="black" r="0.5" /><circle cx="29" cy="13" fill="black" r="0.5" /><circle cx="30" cy="13" fill="black" r="0.5" /><circle cx="31" cy="13" fill="black" r="0.5" /><circle cx="32" cy="13" fill="black" r="0.5" /><circle cx="33" cy="13" fill="black" r="0.5" /><circle cx="34" cy="13" fill="black" r="0.5" /><circle cx="35" cy="13" fill="black" r="0.5" /><circle cx="36" cy="13" fill="black" r="0.5" /><circle cx="37" cy="13" fill="black" r="0.5" /><circle cx="38" cy="13" fill="black" r="0.5" /><circle cx="39" cy="13" fill="black" r="0.5" /><circle cx="40" cy="13" fill="black" r="0.5" /><circle cx="41" cy="13" fill="black" r="0.5" /><circle cx="42" cy="13" fill="black" r="0.5" /><circle cx="43" cy="13" fill="black" r="0.5" /><circle cx="44" cy="13" fill="black" r="0.5" /><circle cx="45" cy="13" fill="black" r="0.5" /><circle cx="46" cy="13" fill="black" r="0.5" /><circle cx="47" cy="13" fill="black" r="0.5" /><circle cx="48" cy="13" fill="black" r="0.5" /><circle cx="49" cy="13" fill="black" r="0.5" /><circle cx="50" cy="13" fill="black" r="0.5" /><circle cx="51" cy="13" fill="black" r="0.5" /><circle cx="52" cy="13" fill="black" r="0.5" /><circle cx="53" cy="13" fill="black" r="0.5" /><circle cx="54" cy="13" fill="black" r="0.5" /><circle cx="55" cy="13" fill="black" r="0.5" /><circle cx="56" cy="13" fill="black" r="0.5" /><circle cx="57" cy="13" fill="black" r="0.5" /><circle cx="58" cy="13" fill="black" r="0.5" /><circle cx="59" cy="13" fill="black" r="0.5" /><circle cx="60" cy="13" fill="black" r="0.5" /><circle cx="61" cy="13" fill="black" r="0.5" /><circle cx="62" cy="13" fill="black" r="0.5" /><circle cx="63" cy="13" fill="black" r="0.5" /><circle cx="9" cy="14" fill="black" r="0.5" /><circle cx="10" cy="14" fill="black" r="0.5" /><circle cx="11" cy="14" fill="black" r="0.5" /><circle cx="12" cy="14" fill="black" r="0.5" /><circle cx="13" cy="14" fill="black" r="0.5" /><circle cx="14" cy="14" fill="black" r="0.5" /><circle cx="15" cy="14" fill="black" r="0.5" /><circle cx="16" cy="14" fill="black" r="0.5" /><circle cx="17" cy="14" fill="black" r="0.5" /><circle cx="18" cy="14" fill="black" r="0.5" /><circle cx="19" cy="14" fill="black" r="0.5" /><circle cx="20" cy="14" fill="black" r="0.5" /><circle cx="21" cy="14" fill="black" r="0.5" /><circle cx="22" cy="14" fill="black" r="0.5" /><circle cx="23" cy="14" fill="black" r="0.5" /><circle cx="24" cy="14" fill="black" r="0.5" /><circle cx="25" cy="14" fill="black" r="0.5" /><circle cx="26" cy="14" fill="black" r="0.5" /><circle cx="27" cy="14" fill="black" r="0.5" /><circle cx="28" cy="14" fill="black" r="0.5" /><circle cx="29" cy="14" fill="black" r="0.5" /><circle cx="30" cy="14" fill="black" r="0.5" /><circle cx="31" cy="14" fill="black" r="0.5" /><circle cx="32" cy="14" fill="black" r="0.5" /><circle cx="33" cy="14" fill="black" r="0.5" /><circle cx="34" cy="14" fill="black" r="0.5" /><circle cx="35" cy="14" fill="black" r="0.5" /><circle cx="36" cy="14" fill="black" r="0.5" /><circle cx="37" cy="14" fill="black" r="0.5" /><circle cx="38" cy="14" fill="black" r="0.5" /><circle cx="39" cy="14" fill="black" r="0.5" /><circle cx="40" cy="14" fill="black" r="0.5" /><circle cx="41" cy="14" fill="black" r="0.5" /><circle cx="42" cy="14" fill="black" r="0.5" /><circle cx="43" cy="14" fill="black" r="0.5" /><circle cx="44" cy="14" fill="black" r="0.5" /><circle cx="45" cy="14" fill="black" r="0.5" /><circle cx="46" cy="14" fill="black" r="0.5" /><circle cx="47" cy="14" fill="black" r="0.5" /><circle cx="48" cy="14" fill="black" r="0.5" /><circle cx="49" cy="14" fill="black" r="0.5" /><circle cx="50" cy="14" fill="black" r="0.5" /><circle cx="51" cy="14" fill="black" r="0.5" /><circle cx="52" cy="14" fill="black" r="0.5" /><circle cx="53" cy="14" fill="black" r="0.5" /><circle cx="54" cy="14" fill="black" r="0.5" /><circle cx="55" cy="14" fill="black" r="0.5" /><circle cx="56" cy="14" fill="black" r="0.5" /><circle cx="57" cy="14" fill="black" r="0.5" /><circle cx="58" cy="14" fill="black" r="0.5" /><circle cx="59" cy="14" fill="black" r="0.5" /><circle cx="60" cy="14" fill="black" r="0.5" /><circle cx="61" cy="14" fill="black" r="0.5" /><circle cx="62" cy="14" fill="black" r="0.5" /><circle cx="63" cy="14" fill="black" r="0.5" /><circle cx="39" cy="19" fill="black" r="0.5" /><circle cx="40" cy="19" fill="black" r="0.5" /><circle cx="41" cy="19" fill="black" r="0.5" /><circle cx="0" cy="20" fill="black" r="0.5" /><circle cx="1" cy="20" fill="black" r="0.5" /><circle cx="2" cy="20" fill="black" r="0.5" /><circle cx="3" cy="20" fill="black" r="0.5" /><circle cx="4" cy="20" fill="black" r="0.5" /><circle cx="5" cy="20" fill="black" r="0.5" /><circle cx="6" cy="20" fill="black" r="0.5" /><circle cx="38" cy="20" fill="black" r="0.5" /><circle cx="39" cy="20" fill="black" r="0.5" /><circle cx="40" cy="20" fill="black" r="0.5" /><circle cx="41" cy="20" fill="black" r="0.5" /><circle cx="0" cy="21" fill="black" r="0.5" /><circle cx="1" cy="21" fill="black" r="0.5" /><circle cx="2" cy="21" fill="black" r="0.5" /><circle cx="3" cy="21" fill="black" r="0.5" /><circle cx="4" cy="21" fill="black" r="0.5" /><circle cx="5" cy="21" fill="black" r="0.5" /><circle cx="6" cy="21" fill="black" r="0.5" /><circle cx="38" cy="21" fill="black" r="0.5" /><circle cx="39" cy="21" fill="black" r="0.5" /><circle cx="40" cy="21" fill="black" r="0.5" /><circle cx="41" cy="21" fill="black" r="0.5" /><circle cx="0" cy="22" fill="black" r="0.5" /><circle cx="1" cy="22" fill="black" r="0.5" /><circle cx="2" cy="22" fill="black" r="0.5" /><circle cx="3" cy="22" fill="black" r="0.5" /><circle cx="4" cy="22" fill="black" r="0.5" /><circle cx="5" cy="22" fill="black" r="0.5" /><circle cx="6" cy="22" fill="black" r="0.5" /><circle cx="38" cy="22" fill="black" r="0.5" /><circle cx="40" cy="22" fill="black" r="0.5" /><circle cx="41" cy="22" fill="black" r="0.5" /><circle cx="0" cy="23" fill="black" r="0.5" /><circle cx="1" cy="23" fill="black" r="0.5" /><circle cx="2" cy="23" fill="black" r="0.5" /><circle cx="3" cy="23" fill="black" r="0.5" /><circle cx="4" cy="23" fill="black" r="0.5" /><circle cx="5" cy="23" fill="black" r="0.5" /><circle cx="6" cy="23" fill="black" r="0.5" /><circle cx="37" cy="23" fill="black" r="0.5" /><circle cx="38" cy="23" fill="black" r="0.5" /><circle cx="40" cy="23" fill="black" r="0.5" /><circle cx="37" cy="24" fill="black" r="0.5" /><circle cx="38" cy="24" fill="black" r="0.5" /><circle cx="39" cy="24" fill="black" r="0.5" /><circle cx="40" cy="24" fill="black" r="0.5" /><circle cx="28" cy="25" fill="black" r="0.5" /><circle cx="29" cy="25" fill="black" r="0.5" /><circle cx="37" cy="25" fill="black" r="0.5" /><circle cx="39" cy="25" fill="black" r="0.5" /><circle cx="40" cy="25" fill="black" r="0.5" /><circle cx="43" cy="25" fill="black" r="0.5" /><circle cx="44" cy="25" fill="black" r="0.5" /><circle cx="26" cy="26" fill="black" r="0.5" /><circle cx="27" cy="26" fill="black" r="0.5" /><circle cx="28" cy="26" fill="black" r="0.5" /><circle cx="29" cy="26" fill="black" r="0.5" /><circle cx="30" cy="26" fill="black" r="0.5" /><circle cx="36" cy="26" fill="black" r="0.5" /><circle cx="37" cy="26" fill="black" r="0.5" /><circle cx="39" cy="26" fill="black" r="0.5" /><circle cx="42" cy="26" fill="black" r="0.5" /><circle cx="43" cy="26" fill="black" r="0.5" /><circle cx="44" cy="26" fill="black" r="0.5" /><circle cx="45" cy="26" fill="black" r="0.5" /><circle cx="46" cy="26" fill="black" r="0.5" /><circle cx="24" cy="27" fill="black" r="0.5" /><circle cx="25" cy="27" fill="black" r="0.5" /><circle cx="26" cy="27" fill="black" r="0.5" /><circle cx="27" cy="27" fill="black" r="0.5" /><circle cx="28" cy="27" fill="black" r="0.5" /><circle cx="29" cy="27" fill="black" r="0.5" /><circle cx="30" cy="27" fill="black" r="0.5" /><circle cx="36" cy="27" fill="black" r="0.5" /><circle cx="37" cy="27" fill="black" r="0.5" /><circle cx="38" cy="27" fill="black" r="0.5" /><circle cx="39" cy="27" fill="black" r="0.5" /><circle cx="42" cy="27" fill="black" r="0.5" /><circle cx="43" cy="27" fill="black" r="0.5" /><circle cx="44" cy="27" fill="black" r="0.5" /><circle cx="45" cy="27" fill="black" r="0.5" /><circle cx="46" cy="27" fill="black" r="0.5" /><circle cx="47" cy="27" fill="black" r="0.5" /><circle cx="48" cy="27" fill="black" r="0.5" /><circle cx="21" cy="28" fill="black" r="0.5" /><circle cx="22" cy="28" fill="black" r="0.5" /><circle cx="23" cy="28" fill="black" r="0.5" /><circle cx="24" cy="28" fill="black" r="0.5" /><circle cx="25" cy="28" fill="black" r="0.5" /><circle cx="26" cy="28" fill="black" r="0.5" /><circle cx="27" cy="28" fill="black" r="0.5" /><circle cx="28" cy="28" fill="black" r="0.5" /><circle cx="29" cy="28" fill="black" r="0.5" /><circle cx="30" cy="28" fill="black" r="0.5" /><circle cx="36" cy="28" fill="black" r="0.5" /><circle cx="38" cy="28" fill="black" r="0.5" /><circle cx="39" cy="28" fill="black" r="0.5" /><circle cx="42" cy="28" fill="black" r="0.5" /><circle cx="43" cy="28" fill="black" r="0.5" /><circle cx="44" cy="28" fill="black" r="0.5" /><circle cx="45" cy="28" fill="black" r="0.5" /><circle cx="46" cy="28" fill="black" r="0.5" /><circle cx="47" cy="28" fill="black" r="0.5" /><circle cx="48" cy="28" fill="black" r="0.5" /><circle cx="49" cy="28" fill="black" r="0.5" /><circle cx="50" cy="28" fill="black" r="0.5" /><circle cx="51" cy="28" fill="black" r="0.5" /><circle cx="19" cy="29" fill="black" r="0.5" /><circle cx="20" cy="29" fill="black" r="0.5" /><circle cx="21" cy="29" fill="black" r="0.5" /><circle cx="22" cy="29" fill="black" r="0.5" /><circle cx="23" cy="29" fill="black" r="0.5" /><circle cx="24" cy="29" fill="black" r="0.5" /><circle cx="25" cy="29" fill="black" r="0.5" /><circle cx="26" cy="29" fill="black" r="0.5" /><circle cx="27" cy="29" fill="black" r="0.5" /><circle cx="28" cy="29" fill="black" r="0.5" /><circle cx="29" cy="29" fill="black" r="0.5" /><circle cx="35" cy="29" fill="black" r="0.5" /><circle cx="36" cy="29" fill="black" r="0.5" /><circle cx="38" cy="29" fill="black" r="0.5" /><circle cx="43" cy="29" fill="black" r="0.5" /><circle cx="44" cy="29" fill="black" r="0.5" /><circle cx="45" cy="29" fill="black" r="0.5" /><circle cx="46" cy="29" fill="black" r="0.5" /><circle cx="47" cy="29" fill="black" r="0.5" /><circle cx="48" cy="29" fill="black" r="0.5" /><circle cx="49" cy="29" fill="black" r="0.5" /><circle cx="50" cy="29" fill="black" r="0.5" /><circle cx="51" cy="29" fill="black" r="0.5" /><circle cx="52" cy="29" fill="black" r="0.5" /><circle cx="53" cy="29" fill="black" r="0.5" /><circle cx="18" cy="30" fill="black" r="0.5" /><circle cx="19" cy="30" fill="black" r="0.5" /><circle cx="20" cy="30" fill="black" r="0.5" /><circle cx="21" cy="30" fill="black" r="0.5" /><circle cx="22" cy="30" fill="black" r="0.5" /><circle cx="23" cy="30" fill="black" r="0.5" /><circle cx="24" cy="30" fill="black" r="0.5" /><circle cx="25" cy="30" fill="black" r="0.5" /><circle cx="26" cy="30" fill="black" r="0.5" /><circle cx="35" cy="30" fill="black" r="0.5" /><circle cx="36" cy="30" fill="black" r="0.5" /><circle cx="37" cy="30" fill="black" r="0.5" /><circle cx="38" cy="30" fill="black" r="0.5" /><circle cx="46" cy="30" fill="black" r="0.5" /><circle cx="47" cy="30" fill="black" r="0.5" /><circle cx="48" cy="30" fill="black" r="0.5" /><circle cx="49" cy="30" fill="black" r="0.5" /><circle cx="50" cy="30" fill="black" r="0.5" /><circle cx="51" cy="30" fill="black" r="0.5" /><circle cx="52" cy="30" fill="black" r="0.5" /><circle cx="53" cy="30" fill="black" r="0.5" /><circle cx="54" cy="30" fill="black" r="0.5" /><circle cx="18" cy="31" fill="black" r="0.5" /><circle cx="19" cy="31" fill="black" r="0.5" /><circle cx="21" cy="31" fill="black" r="0.5" /><circle cx="22" cy="31" fill="black" r="0.5" /><circle cx="23" cy="31" fill="black" r="0.5" /><circle cx="24" cy="31" fill="black" r="0.5" /><circle cx="35" cy="31" fill="black" r="0.5" /><circle cx="37" cy="31" fill="black" r="0.5" /><circle cx="38" cy="31" fill="black" r="0.5" /><circle cx="48" cy="31" fill="black" r="0.5" /><circle cx="49" cy="31" fill="black" r="0.5" /><circle cx="50" cy="31" fill="black" r="0.5" /><circle cx="51" cy="31" fill="black" r="0.5" /><circle cx="53" cy="31" fill="black" r="0.5" /><circle cx="54" cy="31" fill="black" r="0.5" /><circle cx="18" cy="32" fill="black" r="0.5" /><circle cx="19" cy="32" fill="black" r="0.5" /><circle cx="20" cy="32" fill="black" r="0.5" /><circle cx="21" cy="32" fill="black" r="0.5" /><circle cx="22" cy="32" fill="black" r="0.5" /><circle cx="23" cy="32" fill="black" r="0.5" /><circle cx="24" cy="32" fill="black" r="0.5" /><circle cx="25" cy="32" fill="black" r="0.5" /><circle cx="34" cy="32" fill="black" r="0.5" /><circle cx="35" cy="32" fill="black" r="0.5" /><circle cx="37" cy="32" fill="black" r="0.5" /><circle cx="47" cy="32" fill="black" r="0.5" /><circle cx="48" cy="32" fill="black" r="0.5" /><circle cx="49" cy="32" fill="black" r="0.5" /><circle cx="50" cy="32" fill="black" r="0.5" /><circle cx="51" cy="32" fill="black" r="0.5" /><circle cx="52" cy="32" fill="black" r="0.5" /><circle cx="53" cy="32" fill="black" r="0.5" /><circle cx="54" cy="32" fill="black" r="0.5" /><circle cx="18" cy="33" fill="black" r="0.5" /><circle cx="19" cy="33" fill="black" r="0.5" /><circle cx="20" cy="33" fill="black" r="0.5" /><circle cx="21" cy="33" fill="black" r="0.5" /><circle cx="22" cy="33" fill="black" r="0.5" /><circle cx="23" cy="33" fill="black" r="0.5" /><circle cx="24" cy="33" fill="black" r="0.5" /><circle cx="25" cy="33" fill="black" r="0.5" /><circle cx="26" cy="33" fill="black" r="0.5" /><circle cx="27" cy="33" fill="black" r="0.5" /><circle cx="28" cy="33" fill="black" r="0.5" /><circle cx="34" cy="33" fill="black" r="0.5" /><circle cx="35" cy="33" fill="black" r="0.5" /><circle cx="36" cy="33" fill="black" r="0.5" /><circle cx="37" cy="33" fill="black" r="0.5" /><circle cx="44" cy="33" fill="black" r="0.5" /><circle cx="45" cy="33" fill="black" r="0.5" /><circle cx="46" cy="33" fill="black" r="0.5" /><circle cx="47" cy="33" fill="black" r="0.5" /><circle cx="48" cy="33" fill="black" r="0.5" /><circle cx="49" cy="33" fill="black" r="0.5" /><circle cx="50" cy="33" fill="black" r="0.5" /><circle cx="51" cy="33" fill="black" r="0.5" /><circle cx="52" cy="33" fill="black" r="0.5" /><circle cx="53" cy="33" fill="black" r="0.5" /><circle cx="54" cy="33" fill="black" r="0.5" /><circle cx="20" cy="34" fill="black" r="0.5" /><circle cx="21" cy="34" fill="black" r="0.5" /><circle cx="22" cy="34" fill="black" r="0.5" /><circle cx="23" cy="34" fill="black" r="0.5" /><circle cx="24" cy="34" fill="black" r="0.5" /><circle cx="25" cy="34" fill="black" r="0.5" /><circle cx="26" cy="34" fill="black" r="0.5" /><circle cx="27" cy="34" fill="black" r="0.5" /><circle cx="28" cy="34" fill="black" r="0.5" /><circle cx="29" cy="34" fill="black" r="0.5" /><circle cx="30" cy="34" fill="black" r="0.5" /><circle cx="34" cy="34" fill="black" r="0.5" /><circle cx="36" cy="34" fill="black" r="0.5" /><circle cx="37" cy="34" fill="black" r="0.5" /><circle cx="42" cy="34" fill="black" r="0.5" /><circle cx="43" cy="34" fill="black" r="0.5" /><circle cx="44" cy="34" fill="black" r="0.5" /><circle cx="45" cy="34" fill="black" r="0.5" /><circle cx="46" cy="34" fill="black" r="0.5" /><circle cx="47" cy="34" fill="black" r="0.5" /><circle cx="48" cy="34" fill="black" r="0.5" /><circle cx="49" cy="34" fill="black" r="0.5" /><circle cx="50" cy="34" fill="black" r="0.5" /><circle cx="51" cy="34" fill="black" r="0.5" /><circle cx="52" cy="34" fill="black" r="0.5" /><circle cx="23" cy="35" fill="black" r="0.5" /><circle cx="24" cy="35" fill="black" r="0.5" /><circle cx="25" cy="35" fill="black" r="0.5" /><circle cx="26" cy="35" fill="black" r="0.5" /><circle cx="27" cy="35" fill="black" r="0.5" /><circle cx="28" cy="35" fill="black" r="0.5" /><circle cx="29" cy="35" fill="black" r="0.5" /><circle cx="30" cy="35" fill="black" r="0.5" /><circle cx="33" cy="35" fill="black" r="0.5" /><circle cx="34" cy="35" fill="black" r="0.5" /><circle cx="36" cy="35" fill="black" r="0.5" /><circle cx="42" cy="35" fill="black" r="0.5" /><circle cx="43" cy="35" fill="black" r="0.5" /><circle cx="44" cy="35" fill="black" r="0.5" /><circle cx="45" cy="35" fill="black" r="0.5" /><circle cx="46" cy="35" fill="black" r="0.5" /><circle cx="47" cy="35" fill="black" r="0.5" /><circle cx="48" cy="35" fill="black" r="0.5" /><circle cx="49" cy="35" fill="black" r="0.5" /><circle cx="25" cy="36" fill="black" r="0.5" /><circle cx="26" cy="36" fill="black" r="0.5" /><circle cx="27" cy="36" fill="black" r="0.5" /><circle cx="28" cy="36" fill="black" r="0.5" /><circle cx="29" cy="36" fill="black" r="0.5" /><circle cx="30" cy="36" fill="black" r="0.5" /><circle cx="33" cy="36" fill="black" r="0.5" /><circle cx="35" cy="36" fill="black" r="0.5" /><circle cx="36" cy="36" fill="black" r="0.5" /><circle cx="42" cy="36" fill="black" r="0.5" /><circle cx="43" cy="36" fill="black" r="0.5" /><circle cx="44" cy="36" fill="black" r="0.5" /><circle cx="45" cy="36" fill="black" r="0.5" /><circle cx="46" cy="36" fill="black" r="0.5" /><circle cx="47" cy="36" fill="black" r="0.5" /><circle cx="27" cy="37" fill="black" r="0.5" /><circle cx="28" cy="37" fill="black" r="0.5" /><circle cx="29" cy="37" fill="black" r="0.5" /><circle cx="32" cy="37" fill="black" r="0.5" /><circle cx="33" cy="37" fill="black" r="0.5" /><circle cx="35" cy="37" fill="black" r="0.5" /><circle cx="43" cy="37" fill="black" r="0.5" /><circle cx="44" cy="37" fill="black" r="0.5" /><circle cx="45" cy="37" fill="black" r="0.5" /><circle cx="32" cy="38" fill="black" r="0.5" /><circle cx="33" cy="38" fill="black" r="0.5" /><circle cx="35" cy="38" fill="black" r="0.5" /><circle cx="32" cy="39" fill="black" r="0.5" /><circle cx="34" cy="39" fill="black" r="0.5" /><circle cx="35" cy="39" fill="black" r="0.5" /><circle cx="31" cy="40" fill="black" r="0.5" /><circle cx="32" cy="40" fill="black" r="0.5" /><circle cx="34" cy="40" fill="black" r="0.5" /><circle cx="31" cy="41" fill="black" r="0.5" /><circle cx="32" cy="41" fill="black" r="0.5" /><circle cx="33" cy="41" fill="black" r="0.5" /><circle cx="34" cy="41" fill="black" r="0.5" /><circle cx="31" cy="42" fill="black" r="0.5" /><circle cx="33" cy="42" fill="black" r="0.5" /><circle cx="34" cy="42" fill="black" r="0.5" /><circle cx="31" cy="43" fill="black" r="0.5" /><circle cx="32" cy="43" fill="black" r="0.5" /><circle cx="33" cy="43" fill="black" r="0.5" /><circle cx="31" cy="44" fill="black" r="0.5" /><circle cx="32" cy="44" fill="black" r="0.5" /><circle cx="33" cy="44" fill="black" r="0.5" /><circle cx="6" cy="49" fill="black" r="0.5" /><circle cx="9" cy="49" fill="black" r="0.5" /><circle cx="10" cy="49" fill="black" r="0.5" /><circle cx="11" cy="49" fill="black" r="0.5" /><circle cx="12" cy="49" fill="black" r="0.5" /><circle cx="13" cy="49" fill="black" r="0.5" /><circle cx="14" cy="49" fill="black" r="0.5" /><circle cx="15" cy="49" fill="black" r="0.5" /><circle cx="16" cy="49" fill="black" r="0.5" /><circle cx="17" cy="49" fill="black" r="0.5" /><circle cx="18" cy="49" fill="black" r="0.5" /><circle cx="19" cy="49" fill="black" r="0.5" /><circle cx="20" cy="49" fill="black" r="0.5" /><circle cx="21" cy="49" fill="black" r="0.5" /><circle cx="22" cy="49" fill="black" r="0.5" /><circle cx="23" cy="49" fill="black" r="0.5" /><circle cx="24" cy="49" fill="black" r="0.5" /><circle cx="25" cy="49" fill="black" r="0.5" /><circle cx="26" cy="49" fill="black" r="0.5" /><circle cx="27" cy="49" fill="black" r="0.5" /><circle cx="28" cy="49" fill="black" r="0.5" /><circle cx="29" cy="49" fill="black" r="0.5" /><circle cx="30" cy="49" fill="black" r="0.5" /><circle cx="31" cy="49" fill="black" r="0.5" /><circle cx="32" cy="49" fill="black" r="0.5" /><circle cx="33" cy="49" fill="black" r="0.5" /><circle cx="34" cy="49" fill="black" r="0.5" /><circle cx="35" cy="49" fill="black" r="0.5" /><circle cx="36" cy="49" fill="black" r="0.5" /><circle cx="37" cy="49" fill="black" r="0.5" /><circle cx="38" cy="49" fill="black" r="0.5" /><circle cx="39" cy="49" fill="black" r="0.5" /><circle cx="40" cy="49" fill="black" r="0.5" /><circle cx="41" cy="49" fill="black" r="0.5" /><circle cx="42" cy="49" fill="black" r="0.5" /><circle cx="43" cy="49" fill="black" r="0.5" /><circle cx="44" cy="49" fill="black" r="0.5" /><circle cx="45" cy="49" fill="black" r="0.5" /><circle cx="46" cy="49" fill="black" r="0.5" /><circle cx="47" cy="49" fill="black" r="0.5" /><circle cx="48" cy="49" fill="black" r="0.5" /><circle cx="49" cy="49" fill="black" r="0.5" /><circle cx="50" cy="49" fill="black" r="0.5" /><circle cx="51" cy="49" fill="black" r="0.5" /><circle cx="52" cy="49" fill="black" r="0.5" /><circle cx="53" cy="49" fill="black" r="0.5" /><circle cx="54" cy="49" fill="black" r="0.5" /><circle cx="55" cy="49" fill="black" r="0.5" /><circle cx="56" cy="49" fill="black" r="0.5" /><circle cx="57" cy="49" fill="black" r="0.5" /><circle cx="58" cy="49" fill="black" r="0.5" /><circle cx="59" cy="49" fill="black" r="0.5" /><circle cx="60" cy="49" fill="black" r="0.5" /><circle cx="61" cy="49" fill="black" r="0.5" /><circle cx="62" cy="49" fill="black" r="0.5" /><circle cx="63" cy="49" fill="black" r="0.5" /><circle cx="6" cy="50" fill="black" r="0.5" /><circle cx="7" cy="50" fill="black" r="0.5" /><circle cx="9" cy="50" fill="black" r="0.5" /><circle cx="10" cy="50" fill="black" r="0.5" /><circle cx="11" cy="50" fill="black" r="0.5" /><circle cx="12" cy="50" fill="black" r="0.5" /><circle cx="13" cy="50" fill="black" r="0.5" /><circle cx="14" cy="50" fill="black" r="0.5" /><circle cx="15" cy="50" fill="black" r="0.5" /><circle cx="16" cy="50" fill="black" r="0.5" /><circle cx="17" cy="50" fill="black" r="0.5" /><circle cx="18" cy="50" fill="black" r="0.5" /><circle cx="19" cy="50" fill="black" r="0.5" /><circle cx="20" cy="50" fill="black" r="0.5" /><circle cx="21" cy="50" fill="black" r="0.5" /><circle cx="22" cy="50" fill="black" r="0.5" /><circle cx="23" cy="50" fill="black" r="0.5" /><circle cx="24" cy="50" fill="black" r="0.5" /><circle cx="25" cy="50" fill="black" r="0.5" /><circle cx="26" cy="50" fill="black" r="0.5" /><circle cx="27" cy="50" fill="black" r="0.5" /><circle cx="28" cy="50" fill="black" r="0.5" /><circle cx="29" cy="50" fill="black" r="0.5" /><circle cx="30" cy="50" fill="black" r="0.5" /><circle cx="31" cy="50" fill="black" r="0.5" /><circle cx="32" cy="50" fill="black" r="0.5" /><circle cx="33" cy="50" fill="black" r="0.5" /><circle cx="34" cy="50" fill="black" r="0.5" /><circle cx="35" cy="50" fill="black" r="0.5" /><circle cx="36" cy="50" fill="black" r="0.5" /><circle cx="37" cy="50" fill="black" r="0.5" /><circle cx="38" cy="50" fill="black" r="0.5" /><circle cx="39" cy="50" fill="black" r="0.5" /><circle cx="40" cy="50" fill="black" r="0.5" /><circle cx="41" cy="50" fill="black" r="0.5" /><circle cx="42" cy="50" fill="black" r="0.5" /><circle cx="43" cy="50" fill="black" r="0.5" /><circle cx="44" cy="50" fill="black" r="0.5" /><circle cx="45" cy="50" fill="black" r="0.5" /><circle cx="46" cy="50" fill="black" r="0.5" /><circle cx="47" cy="50" fill="black" r="0.5" /><circle cx="48" cy="50" fill="black" r="0.5" /><circle cx="49" cy="50" fill="black" r="0.5" /><circle cx="50" cy="50" fill="black" r="0.5" /><circle cx="51" cy="50" fill="black" r="0.5" /><circle cx="52" cy="50" fill="black" r="0.5" /><circle cx="53" cy="50" fill="black" r="0.5" /><circle cx="54" cy="50" fill="black" r="0.5" /><circle cx="55" cy="50" fill="black" r="0.5" /><circle cx="56" cy="50" fill="black" r="0.5" /><circle cx="57" cy="50" fill="black" r="0.5" /><circle cx="58" cy="50" fill="black" r="0.5" /><circle cx="59" cy="50" fill="black" r="0.5" /><circle cx="60" cy="50" fill="black" r="0.5" /><circle cx="61" cy="50" fill="black" r="0.5" /><circle cx="62" cy="50" fill="black" r="0.5" /><circle cx="63" cy="50" fill="black" r="0.5" /><circle cx="6" cy="51" fill="black" r="0.5" /><circle cx="7" cy="51" fill="black" r="0.5" /><circle cx="8" cy="51" fill="black" r="0.5" /><circle cx="7" cy="52" fill="black" r="0.5" /><circle cx="8" cy="52" fill="black" r="0.5" /><circle cx="9" cy="52" fill="black" r="0.5" /><circle cx="10" cy="52" fill="black" r="0.5" /><circle cx="11" cy="52" fill="black" r="0.5" /><circle cx="12" cy="52" fill="black" r="0.5" /><circle cx="13" cy="52" fill="black" r="0.5" /><circle cx="14" cy="52" fill="black" r="0.5" /><circle cx="15" cy="52" fill="black" r="0.5" /><circle cx="16" cy="52" fill="black" r="0.5" /><circle cx="17" cy="52" fill="black" r="0.5" /><circle cx="18" cy="52" fill="black" r="0.5" /><circle cx="19" cy="52" fill="black" r="0.5" /><circle cx="20" cy="52" fill="black" r="0.5" /><circle cx="21" cy="52" fill="black" r="0.5" /><circle cx="22" cy="52" fill="black" r="0.5" /><circle cx="23" cy="52" fill="black" r="0.5" /><circle cx="24" cy="52" fill="black" r="0.5" /><circle cx="25" cy="52" fill="black" r="0.5" /><circle cx="26" cy="52" fill="black" r="0.5" /><circle cx="27" cy="52" fill="black" r="0.5" /><circle cx="28" cy="52" fill="black" r="0.5" /><circle cx="29" cy="52" fill="black" r="0.5" /><circle cx="30" cy="52" fill="black" r="0.5" /><circle cx="31" cy="52" fill="black" r="0.5" /><circle cx="32" cy="52" fill="black" r="0.5" /><circle cx="33" cy="52" fill="black" r="0.5" /><circle cx="34" cy="52" fill="black" r="0.5" /><circle cx="35" cy="52" fill="black" r="0.5" /><circle cx="36" cy="52" fill="black" r="0.5" /><circle cx="37" cy="52" fill="black" r="0.5" /><circle cx="38" cy="52" fill="black" r="0.5" /><circle cx="39" cy="52" fill="black" r="0.5" /><circle cx="40" cy="52" fill="black" r="0.5" /><circle cx="41" cy="52" fill="black" r="0.5" /><circle cx="42" cy="52" fill="black" r="0.5" /><circle cx="43" cy="52" fill="black" r="0.5" /><circle cx="44" cy="52" fill="black" r="0.5" /><circle cx="45" cy="52" fill="black" r="0.5" /><circle cx="46" cy="52" fill="black" r="0.5" /><circle cx="47" cy="52" fill="black" r="0.5" /><circle cx="48" cy="52" fill="black" r="0.5" /><circle cx="49" cy="52" fill="black" r="0.5" /><circle cx="50" cy="52" fill="black" r="0.5" /><circle cx="51" cy="52" fill="black" r="0.5" /><circle cx="52" cy="52" fill="black" r="0.5" /><circle cx="53" cy="52" fill="black" r="0.5" /><circle cx="54" cy="52" fill="black" r="0.5" /><circle cx="8" cy="53" fill="black" r="0.5" /><circle cx="9" cy="53" fill="black" r="0.5" /><circle cx="10" cy="53" fill="black" r="0.5" /><circle cx="11" cy="53" fill="black" r="0.5" /><circle cx="12" cy="53" fill="black" r="0.5" /><circle cx="13" cy="53" fill="black" r="0.5" /><circle cx="14" cy="53" fill="black" r="0.5" /><circle cx="15" cy="53" fill="black" r="0.5" /><circle cx="16" cy="53" fill="black" r="0.5" /><circle cx="17" cy="53" fill="black" r="0.5" /><circle cx="18" cy="53" fill="black" r="0.5" /><circle cx="19" cy="53" fill="black" r="0.5" /><circle cx="20" cy="53" fill="black" r="0.5" /><circle cx="21" cy="53" fill="black" r="0.5" /><circle cx="22" cy="53" fill="black" r="0.5" /><circle cx="23" cy="53" fill="black" r="0.5" /><circle cx="24" cy="53" fill="black" r="0.5" /><circle cx="25" cy="53" fill="black" r="0.5" /><circle cx="26" cy="53" fill="black" r="0.5" /><circle cx="27" cy="53" fill="black" r="0.5" /><circle cx="28" cy="53" fill="black" r="0.5" /><circle cx="29" cy="53" fill="black" r="0.5" /><circle cx="30" cy="53" fill="black" r="0.5" /><circle cx="31" cy="53" fill="black" r="0.5" /><circle cx="32" cy="53" fill="black" r="0.5" /><circle cx="33" cy="53" fill="black" r="0.5" /><circle cx="34" cy="53" fill="black" r="0.5" /><circle cx="35" cy="53" fill="black" r="0.5" /><circle cx="36" cy="53" fill="black" r="0.5" /><circle cx="37" cy="53" fill="black" r="0.5" /><circle cx="38" cy="53" fill="black" r="0.5" /><circle cx="39" cy="53" fill="black" r="0.5" /><circle cx="40" cy="53" fill="black" r="0.5" /><circle cx="41" cy="53" fill="black" r="0.5" /><circle cx="42" cy="53" fill="black" r="0.5" /><circle cx="43" cy="53" fill="black" r="0.5" /><circle cx="44" cy="53" fill="black" r="0.5" /><circle cx="45" cy="53" fill="black" r="0.5" /><circle cx="46" cy="53" fill="black" r="0.5" /><circle cx="47" cy="53" fill="black" r="0.5" /><circle cx="48" cy="53" fill="black" r="0.5" /><circle cx="49" cy="53" fill="black" r="0.5" /><circle cx="50" cy="53" fill="black" r="0.5" /><circle cx="51" cy="53" fill="black" r="0.5" /><circle cx="52" cy="53" fill="black" r="0.5" /><circle cx="53" cy="53" fill="black" r="0.5" /><circle cx="54" cy="53" fill="black" r="0.5" /><circle cx="0" cy="58" fill="black" r="0.5" /><circle cx="1" cy="58" fill="black" r="0.5" /><circle cx="2" cy="58" fill="black" r="0.5" /><circle cx="3" cy="58" fill="black" r="0.5" /><circle cx="4" cy="58" fill="black" r="0.5" /><circle cx="5" cy="58" fill="black" r="0.5" /><circle cx="6" cy="58" fill="black" r="0.5" /><circle cx="7" cy="58" fill="black" r="0.5" /><circle cx="8" cy="58" fill="black" r="0.5" /><circle cx="9" cy="58" fill="black" r="0.5" /><circle cx="10" cy="58" fill="black" r="0.5" /><circle cx="11" cy="58" fill="black" r="0.5" /><circle cx="12" cy="58" fill="black" r="0.5" /><circle cx="13" cy="58" fill="black" r="0.5" /><circle cx="14" cy="58" fill="black" r="0.5" /><circle cx="15" cy="58" fill="black" r="0.5" /><circle cx="16" cy="58" fill="black" r="0.5" /><circle cx="17" cy="58" fill="black" r="0.5" /><circle cx="18" cy="58" fill="black" r="0.5" /><circle cx="19" cy="58" fill="black" r="0.5" /><circle cx="20" cy="58" fill="black" r="0.5" /><circle cx="21" cy="58" fill="black" r="0.5" /><circle cx="22" cy="58" fill="black" r="0.5" /><circle cx="23" cy="58" fill="black" r="0.5" /><circle cx="24" cy="58" fill="black" r="0.5" /><circle cx="25" cy="58" fill="black" r="0.5" /><circle cx="26" cy="58" fill="black" r="0.5" /><circle cx="27" cy="58" fill="black" r="0.5" /><circle cx="28" cy="58" fill="black" r="0.5" /><circle cx="29" cy="58" fill="black" r="0.5" /><circle cx="30" cy="58" fill="black" r="0.5" /><circle cx="31" cy="58" fill="black" r="0.5" /><circle cx="32" cy="58" fill="black" r="0.5" /><circle cx="33" cy="58" fill="black" r="0.5" /><circle cx="34" cy="58" fill="black" r="0.5" /><circle cx="35" cy="58" fill="black" r="0.5" /><circle cx="36" cy="58" fill="black" r="0.5" /><circle cx="37" cy="58" fill="black" r="0.5" /><circle cx="38" cy="58" fill="black" r="0.5" /><circle cx="39" cy="58" fill="black" r="0.5" /><circle cx="40" cy="58" fill="black" r="0.5" /><circle cx="41" cy="58" fill="black" r="0.5" /><circle cx="42" cy="58" fill="black" r="0.5" /><circle cx="43" cy="58" fill="black" r="0.5" /><circle cx="44" cy="58" fill="black" r="0.5" /><circle cx="45" cy="58" fill="black" r="0.5" /><circle cx="46" cy="58" fill="black" r="0.5" /><circle cx="47" cy="58" fill="black" r="0.5" /><circle cx="48" cy="58" fill="black" r="0.5" /><circle cx="49" cy="58" fill="black" r="0.5" /><circle cx="50" cy="58" fill="black" r="0.5" /><circle cx="51" cy="58" fill="black" r="0.5" /><circle cx="52" cy="58" fill="black" r="0.5" /><circle cx="53" cy="58" fill="black" r="0.5" /><circle cx="54" cy="58" fill="black" r="0.5" /><circle cx="0" cy="59" fill="black" r="0.5" /><circle cx="1" cy="59" fill="black" r="0.5" /><circle cx="2" cy="59" fill="black" r="0.5" /><circle cx="3" cy="59" fill="black" r="0.5" /><circle cx="4" cy="59" fill="black" r="0.5" /><circle cx="5" cy="59" fill="black" r="0.5" /><circle cx="6" cy="59" fill="black" r="0.5" /><circle cx="7" cy="59" fill="black" r="0.5" /><circle cx="8" cy="59" fill="black" r="0.5" /><circle cx="9" cy="59" fill="black" r="0.5" /><circle cx="10" cy="59" fill="black" r="0.5" /><circle cx="11" cy="59" fill="black" r="0.5" /><circle cx="12" cy="59" fill="black" r="0.5" /><circle cx="13" cy="59" fill="black" r="0.5" /><circle cx="14" cy="59" fill="black" r="0.5" /><circle cx="15" cy="59" fill="black" r="0.5" /><circle cx="16" cy="59" fill="black" r="0.5" /><circle cx="17" cy="59" fill="black" r="0.5" /><circle cx="18" cy="59" fill="black" r="0.5" /><circle cx="19" cy="59" fill="black" r="0.5" /><circle cx="20" cy="59" fill="black" r="0.5" /><circle cx="21" cy="59" fill="black" r="0.5" /><circle cx="22" cy="59" fill="black" r="0.5" /><circle cx="23" cy="59" fill="black" r="0.5" /><circle cx="24" cy="59" fill="black" r="0.5" /><circle cx="25" cy="59" fill="black" r="0.5" /><circle cx="26" cy="59" fill="black" r="0.5" /><circle cx="27" cy="59" fill="black" r="0.5" /><circle cx="28" cy="59" fill="black" r="0.5" /><circle cx="29" cy="59" fill="black" r="0.5" /><circle cx="30" cy="59" fill="black" r="0.5" /><circle cx="31" cy="59" fill="black" r="0.5" /><circle cx="32" cy="59" fill="black" r="0.5" /><circle cx="33" cy="59" fill="black" r="0.5" /><circle cx="34" cy="59" fill="black" r="0.5" /><circle cx="35" cy="59" fill="black" r="0.5" /><circle cx="36" cy="59" fill="black" r="0.5" /><circle cx="37" cy="59" fill="black" r="0.5" /><circle cx="38" cy="59" fill="black" r="0.5" /><circle cx="39" cy="59" fill="black" r="0.5" /><circle cx="40" cy="59" fill="black" r="0.5" /><circle cx="41" cy="59" fill="black" r="0.5" /><circle cx="42" cy="59" fill="black" r="0.5" /><circle cx="43" cy="59" fill="black" r="0.5" /><circle cx="44" cy="59" fill="black" r="0.5" /><circle cx="45" cy="59" fill="black" r="0.5" /><circle cx="46" cy="59" fill="black" r="0.5" /><circle cx="47" cy="59" fill="black" r="0.5" /><circle cx="48" cy="59" fill="black" r="0.5" /><circle cx="49" cy="59" fill="black" r="0.5" /><circle cx="50" cy="59" fill="black" r="0.5" /><circle cx="51" cy="59" fill="black" r="0.5" /><circle cx="52" cy="59" fill="black" r="0.5" /><circle cx="53" cy="59" fill="black" r="0.5" /><circle cx="54" cy="59" fill="black" r="0.5" /></svg>