<?xml version="1.0" encoding="utf-8" ?>
<svg baseProfile="full" height="100%" version="1.1" width="100%" xmlns="http://www.w3.org/2000/svg" xmlns:ev="http://www.w3.org/2001/xml-events" xmlns:xlink="http://www.w3.org/1999/xlink"><defs /><circle cx="27" cy="0" fill="black" r="0.5" /><circle cx="28" cy="0" fill="black" r="0.5" /><circle cx="29" cy="0" fill="black" r="0.5" /><circle cx="30" cy="0" fill="black" r="0.5" /><circle cx="31" cy="0" fill="black" r="0.5" /><circle cx="32" cy="0" fill="black" r="0.5" /><circle cx="33" cy="0" fill="black" r="0.5" /><circle cx="34" cy="0" fill="black" r="0.5" /><circle cx="35" cy="0" fill="black" r="0.5" /><circle cx="36" cy="0" fill="black" r="0.5" /><circle cx="25" cy="1" fill="black" r="0.5" /><circle cx="26" cy="1" fill="black" r="0.5" /><circle cx="27" cy="1" fill="black" r="0.5" /><circle cx="28" cy="1" fill="black" r="0.5" /><circle cx="34" cy="1" fill="black" r="0.5" /><circle cx="35" cy="1" fill="black" r="0.5" /><circle cx="36" cy="1" fill="black" r="0.5" /><circle cx="37" cy="1" fill="black" r="0.5" /><circle cx="38" cy="1" fill="black" r="0.5" /><circle cx="23" cy="2" fill="black" r="0.5" /><circle cx="24" cy="2" fill="black" r="0.5" /><circle cx="25" cy="2" fill="black" r="0.5" /><circle cx="26" cy="2" fill="black" r="0.5" /><circle cx="27" cy="2" fill="black" r="0.5" /><circle cx="36" cy="2" fill="black" r="0.5" /><circle cx="37" cy="2" fill="black" r="0.5" /><circle cx="38" cy="2" fill="black" r="0.5" /><circle cx="39" cy="2" fill="black" r="0.5" /><circle cx="40" cy="2" fill="black" r="0.5" /><circle cx="21" cy="3" fill="black" r="0.5" /><circle cx="22" cy="3" fill="black" r="0.5" /><circle cx="23" cy="3" fill="black" r="0.5" /><circle cx="24" cy="3" fill="black" r="0.5" /><circle cx="25" cy="3" fill="black" r="0.5" /><circle cx="38" cy="3" fill="black" r="0.5" /><circle cx="39" cy="3" fill="black" r="0.5" /><circle cx="40" cy="3" fill="black" r="0.5" /><circle cx="41" cy="3" fill="black" r="0.5" /><circle cx="19" cy="4" fill="black" r="0.5" /><circle cx="20" cy="4" fill="black" r="0.5" /><circle cx="21" cy="4" fill="black" r="0.5" /><circle cx="22" cy="4" fill="black" r="0.5" /><circle cx="23" cy="4" fill="black" r="0.5" /><circle cx="40" cy="4" fill="black" r="0.5" /><circle cx="41" cy="4" fill="black" r="0.5" /><circle cx="42" cy="4" fill="black" r="0.5" /><circle cx="43" cy="4" fill="black" r="0.5" /><circle cx="17" cy="5" fill="black" r="0.5" /><circle cx="18" cy="5" fill="black" r="0.5" /><circle cx="19" cy="5" fill="black" r="0.5" /><circle cx="20" cy="5" fill="black" r="0.5" /><circle cx="21" cy="5" fill="black" r="0.5" /><circle cx="42" cy="5" fill="black" r="0.5" /><circle cx="43" cy="5" fill="black" r="0.5" /><circle cx="44" cy="5" fill="black" r="0.5" /><circle cx="45" cy="5" fill="black" r="0.5" /><circle cx="15" cy="6" fill="black" r="0.5" /><circle cx="16" cy="6" fill="black" r="0.5" /><circle cx="17" cy="6" fill="black" r="0.5" /><circle cx="18" cy="6" fill="black" r="0.5" /><circle cx="19" cy="6" fill="black" r="0.5" /><circle cx="44" cy="6" fill="black" r="0.5" /><circle cx="45" cy="6" fill="black" r="0.5" /><circle cx="46" cy="6" fill="black" r="0.5" /><circle cx="47" cy="6" fill="black" r="0.5" /><circle cx="13" cy="7" fill="black" r="0.5" /><circle cx="14" cy="7" fill="black" r="0.5" /><circle cx="15" cy="7" fill="black" r="0.5" /><circle cx="16" cy="7" fill="black" r="0.5" /><circle cx="17" cy="7" fill="black" r="0.5" /><circle cx="45" cy="7" fill="black" r="0.5" /><circle cx="46" cy="7" fill="black" r="0.5" /><circle cx="47" cy="7" fill="black" r="0.5" /><circle cx="48" cy="7" fill="black" r="0.5" /><circle cx="49" cy="7" fill="black" r="0.5" /><circle cx="12" cy="8" fill="black" r="0.5" /><circle cx="13" cy="8" fill="black" r="0.5" /><circle cx="14" cy="8" fill="black" r="0.5" /><circle cx="15" cy="8" fill="black" r="0.5" /><circle cx="47" cy="8" fill="black" r="0.5" /><circle cx="48" cy="8" fill="black" r="0.5" /><circle cx="49" cy="8" fill="black" r="0.5" /><circle cx="50" cy="8" fill="black" r="0.5" /><circle cx="51" cy="8" fill="black" r="0.5" /><circle cx="10" cy="9" fill="black" r="0.5" /><circle cx="11" cy="9" fill="black" r="0.5" /><circle cx="12" cy="9" fill="black" r="0.5" /><circle cx="13" cy="9" fill="black" r="0.5" /><circle cx="49" cy="9" fill="black" r="0.5" /><circle cx="50" cy="9" fill="black" r="0.5" /><circle cx="51" cy="9" fill="black" r="0.5" /><circle cx="52" cy="9" fill="black" r="0.5" /><circle cx="53" cy="9" fill="black" r="0.5" /><circle cx="8" cy="10" fill="black" r="0.5" /><circle cx="9" cy="10" fill="black" r="0.5" /><circle cx="10" cy="10" fill="black" r="0.5" /><circle cx="11" cy="10" fill="black" r="0.5" /><circle cx="51" cy="10" fill="black" r="0.5" /><circle cx="52" cy="10" fill="black" r="0.5" /><circle cx="53" cy="10" fill="black" r="0.5" /><circle cx="54" cy="10" fill="black" r="0.5" /><circle cx="55" cy="10" fill="black" r="0.5" /><circle cx="7" cy="11" fill="black" r="0.5" /><circle cx="8" cy="11" fill="black" r="0.5" /><circle cx="9" cy="11" fill="black" r="0.5" /><circle cx="53" cy="11" fill="black" r="0.5" /><circle cx="54" cy="11" fill="black" r="0.5" /><circle cx="55" cy="11" fill="black" r="0.5" /><circle cx="56" cy="11" fill="black" r="0.5" /><circle cx="6" cy="12" fill="black" r="0.5" /><circle cx="7" cy="12" fill="black" r="0.5" /><circle cx="8" cy="12" fill="black" r="0.5" /><circle cx="55" cy="12" fill="black" r="0.5" /><circle cx="56" cy="12" fill="black" r="0.5" /><circle cx="6" cy="13" fill="black" r="0.5" /><circle cx="7" cy="13" fill="black" r="0.5" /><circle cx="56" cy="13" fill="black" r="0.5" /><circle cx="6" cy="14" fill="black" r="0.5" /><circle cx="7" cy="14" fill="black" r="0.5" /><circle cx="56" cy="14" fill="black" r="0.5" /><circle cx="6" cy="15" fill="black" r="0.5" /><circle cx="7" cy="15" fill="black" r="0.5" /><circle cx="8" cy="15" fill="black" r="0.5" /><circle cx="55" cy="15" fill="black" r="0.5" /><circle cx="56" cy="15" fill="black" r="0.5" /><circle cx="7" cy="16" fill="black" r="0.5" /><circle cx="8" cy="16" fill="black" r="0.5" /><circle cx="9" cy="16" fill="black" r="0.5" /><circle cx="10" cy="16" fill="black" r="0.5" /><circle cx="53" cy="16" fill="black" r="0.5" /><circle cx="54" cy="16" fill="black" r="0.5" /><circle cx="55" cy="16" fill="black" r="0.5" /><circle cx="56" cy="16" fill="black" r="0.5" /><circle cx="8" cy="17" fill="black" r="0.5" /><circle cx="9" cy="17" fill="black" r="0.5" /><circle cx="10" cy="17" fill="black" r="0.5" /><circle cx="11" cy="17" fill="black" r="0.5" /><circle cx="12" cy="17" fill="black" r="0.5" /><circle cx="51" cy="17" fill="black" r="0.5" /><circle cx="52" cy="17" fill="black" r="0.5" /><circle cx="53" cy="17" fill="black" r="0.5" /><circle cx="54" cy="17" fill="black" r="0.5" /><circle cx="55" cy="17" fill="black" r="0.5" /><circle cx="10" cy="18" fill="black" r="0.5" /><circle cx="11" cy="18" fill="black" r="0.5" /><circle cx="12" cy="18" fill="black" r="0.5" /><circle cx="13" cy="18" fill="black" r="0.5" /><circle cx="49" cy="18" fill="black" r="0.5" /><circle cx="50" cy="18" fill="black" r="0.5" /><circle cx="51" cy="18" fill="black" r="0.5" /><circle cx="52" cy="18" fill="black" r="0.5" /><circle cx="53" cy="18" fill="black" r="0.5" /><circle cx="5" cy="19" fill="black" r="0.5" /><circle cx="6" cy="19" fill="black" r="0.5" /><circle cx="7" cy="19" fill="black" r="0.5" /><circle cx="12" cy="19" fill="black" r="0.5" /><circle cx="13" cy="19" fill="black" r="0.5" /><circle cx="14" cy="19" fill="black" r="0.5" /><circle cx="15" cy="19" fill="black" r="0.5" /><circle cx="47" cy="19" fill="black" r="0.5" /><circle cx="48" cy="19" fill="black" r="0.5" /><circle cx="49" cy="19" fill="black" r="0.5" /><circle cx="50" cy="19" fill="black" r="0.5" /><circle cx="51" cy="19" fill="black" r="0.5" /><circle cx="56" cy="19" fill="black" r="0.5" /><circle cx="57" cy="19" fill="black" r="0.5" /><circle cx="58" cy="19" fill="black" r="0.5" /><circle cx="4" cy="20" fill="black" r="0.5" /><circle cx="5" cy="20" fill="black" r="0.5" /><circle cx="6" cy="20" fill="black" r="0.5" /><circle cx="7" cy="20" fill="black" r="0.5" /><circle cx="8" cy="20" fill="black" r="0.5" /><circle cx="9" cy="20" fill="black" r="0.5" /><circle cx="14" cy="20" fill="black" r="0.5" /><circle cx="15" cy="20" fill="black" r="0.5" /><circle cx="16" cy="20" fill="black" r="0.5" /><circle cx="17" cy="20" fill="black" r="0.5" /><circle cx="45" cy="20" fill="black" r="0.5" /><circle cx="46" cy="20" fill="black" r="0.5" /><circle cx="47" cy="20" fill="black" r="0.5" /><circle cx="48" cy="20" fill="black" r="0.5" /><circle cx="49" cy="20" fill="black" r="0.5" /><circle cx="54" cy="20" fill="black" r="0.5" /><circle cx="55" cy="20" fill="black" r="0.5" /><circle cx="56" cy="20" fill="black" r="0.5" /><circle cx="57" cy="20" fill="black" r="0.5" /><circle cx="58" cy="20" fill="black" r="0.5" /><circle cx="59" cy="20" fill="black" r="0.5" /><circle cx="3" cy="21" fill="black" r="0.5" /><circle cx="4" cy="21" fill="black" r="0.5" /><circle cx="5" cy="21" fill="black" r="0.5" /><circle cx="7" cy="21" fill="black" r="0.5" /><circle cx="8" cy="21" fill="black" r="0.5" /><circle cx="9" cy="21" fill="black" r="0.5" /><circle cx="10" cy="21" fill="black" r="0.5" /><circle cx="11" cy="21" fill="black" r="0.5" /><circle cx="15" cy="21" fill="black" r="0.5" /><circle cx="16" cy="21" fill="black" r="0.5" /><circle cx="17" cy="21" fill="black" r="0.5" /><circle cx="18" cy="21" fill="black" r="0.5" /><circle cx="19" cy="21" fill="black" r="0.5" /><circle cx="43" cy="21" fill="black" r="0.5" /><circle cx="44" cy="21" fill="black" r="0.5" /><circle cx="45" cy="21" fill="black" r="0.5" /><circle cx="46" cy="21" fill="black" r="0.5" /><circle cx="47" cy="21" fill="black" r="0.5" /><circle cx="52" cy="21" fill="black" r="0.5" /><circle cx="53" cy="21" fill="black" r="0.5" /><circle cx="54" cy="21" fill="black" r="0.5" /><circle cx="55" cy="21" fill="black" r="0.5" /><circle cx="56" cy="21" fill="black" r="0.5" /><circle cx="58" cy="21" fill="black" r="0.5" /><circle cx="59" cy="21" fill="black" r="0.5" /><circle cx="60" cy="21" fill="black" r="0.5" /><circle cx="3" cy="22" fill="black" r="0.5" /><circle cx="9" cy="22" fill="black" r="0.5" /><circle cx="10" cy="22" fill="black" r="0.5" /><circle cx="11" cy="22" fill="black" r="0.5" /><circle cx="12" cy="22" fill="black" r="0.5" /><circle cx="17" cy="22" fill="black" r="0.5" /><circle cx="18" cy="22" fill="black" r="0.5" /><circle cx="19" cy="22" fill="black" r="0.5" /><circle cx="20" cy="22" fill="black" r="0.5" /><circle cx="21" cy="22" fill="black" r="0.5" /><circle cx="42" cy="22" fill="black" r="0.5" /><circle cx="43" cy="22" fill="black" r="0.5" /><circle cx="44" cy="22" fill="black" r="0.5" /><circle cx="45" cy="22" fill="black" r="0.5" /><circle cx="51" cy="22" fill="black" r="0.5" /><circle cx="52" cy="22" fill="black" r="0.5" /><circle cx="53" cy="22" fill="black" r="0.5" /><circle cx="54" cy="22" fill="black" r="0.5" /><circle cx="60" cy="22" fill="black" r="0.5" /><circle cx="3" cy="23" fill="black" r="0.5" /><circle cx="11" cy="23" fill="black" r="0.5" /><circle cx="12" cy="23" fill="black" r="0.5" /><circle cx="13" cy="23" fill="black" r="0.5" /><circle cx="14" cy="23" fill="black" r="0.5" /><circle cx="19" cy="23" fill="black" r="0.5" /><circle cx="20" cy="23" fill="black" r="0.5" /><circle cx="21" cy="23" fill="black" r="0.5" /><circle cx="22" cy="23" fill="black" r="0.5" /><circle cx="23" cy="23" fill="black" r="0.5" /><circle cx="40" cy="23" fill="black" r="0.5" /><circle cx="41" cy="23" fill="black" r="0.5" /><circle cx="42" cy="23" fill="black" r="0.5" /><circle cx="43" cy="23" fill="black" r="0.5" /><circle cx="49" cy="23" fill="black" r="0.5" /><circle cx="50" cy="23" fill="black" r="0.5" /><circle cx="51" cy="23" fill="black" r="0.5" /><circle cx="52" cy="23" fill="black" r="0.5" /><circle cx="60" cy="23" fill="black" r="0.5" /><circle cx="13" cy="24" fill="black" r="0.5" /><circle cx="14" cy="24" fill="black" r="0.5" /><circle cx="15" cy="24" fill="black" r="0.5" /><circle cx="16" cy="24" fill="black" r="0.5" /><circle cx="21" cy="24" fill="black" r="0.5" /><circle cx="22" cy="24" fill="black" r="0.5" /><circle cx="23" cy="24" fill="black" r="0.5" /><circle cx="24" cy="24" fill="black" r="0.5" /><circle cx="25" cy="24" fill="black" r="0.5" /><circle cx="38" cy="24" fill="black" r="0.5" /><circle cx="39" cy="24" fill="black" r="0.5" /><circle cx="40" cy="24" fill="black" r="0.5" /><circle cx="41" cy="24" fill="black" r="0.5" /><circle cx="47" cy="24" fill="black" r="0.5" /><circle cx="48" cy="24" fill="black" r="0.5" /><circle cx="49" cy="24" fill="black" r="0.5" /><circle cx="50" cy="24" fill="black" r="0.5" /><circle cx="14" cy="25" fill="black" r="0.5" /><circle cx="15" cy="25" fill="black" r="0.5" /><circle cx="16" cy="25" fill="black" r="0.5" /><circle cx="17" cy="25" fill="black" r="0.5" /><circle cx="18" cy="25" fill="black" r="0.5" /><circle cx="23" cy="25" fill="black" r="0.5" /><circle cx="24" cy="25" fill="black" r="0.5" /><circle cx="25" cy="25" fill="black" r="0.5" /><circle cx="26" cy="25" fill="black" r="0.5" /><circle cx="27" cy="25" fill="black" r="0.5" /><circle cx="36" cy="25" fill="black" r="0.5" /><circle cx="37" cy="25" fill="black" r="0.5" /><circle cx="38" cy="25" fill="black" r="0.5" /><circle cx="39" cy="25" fill="black" r="0.5" /><circle cx="45" cy="25" fill="black" r="0.5" /><circle cx="46" cy="25" fill="black" r="0.5" /><circle cx="47" cy="25" fill="black" r="0.5" /><circle cx="48" cy="25" fill="black" r="0.5" /><circle cx="49" cy="25" fill="black" r="0.5" /><circle cx="16" cy="26" fill="black" r="0.5" /><circle cx="17" cy="26" fill="black" r="0.5" /><circle cx="18" cy="26" fill="black" r="0.5" /><circle cx="19" cy="26" fill="black" r="0.5" /><circle cx="20" cy="26" fill="black" r="0.5" /><circle cx="25" cy="26" fill="black" r="0.5" /><circle cx="26" cy="26" fill="black" r="0.5" /><circle cx="27" cy="26" fill="black" r="0.5" /><circle cx="28" cy="26" fill="black" r="0.5" /><circle cx="29" cy="26" fill="black" r="0.5" /><circle cx="34" cy="26" fill="black" r="0.5" /><circle cx="35" cy="26" fill="black" r="0.5" /><circle cx="36" cy="26" fill="black" r="0.5" /><circle cx="37" cy="26" fill="black" r="0.5" /><circle cx="38" cy="26" fill="black" r="0.5" /><circle cx="43" cy="26" fill="black" r="0.5" /><circle cx="44" cy="26" fill="black" r="0.5" /><circle cx="45" cy="26" fill="black" r="0.5" /><circle cx="46" cy="26" fill="black" r="0.5" /><circle cx="47" cy="26" fill="black" r="0.5" /><circle cx="18" cy="27" fill="black" r="0.5" /><circle cx="19" cy="27" fill="black" r="0.5" /><circle cx="20" cy="27" fill="black" r="0.5" /><circle cx="21" cy="27" fill="black" r="0.5" /><circle cx="22" cy="27" fill="black" r="0.5" /><circle cx="27" cy="27" fill="black" r="0.5" /><circle cx="28" cy="27" fill="black" r="0.5" /><circle cx="29" cy="27" fill="black" r="0.5" /><circle cx="30" cy="27" fill="black" r="0.5" /><circle cx="31" cy="27" fill="black" r="0.5" /><circle cx="32" cy="27" fill="black" r="0.5" /><circle cx="33" cy="27" fill="black" r="0.5" /><circle cx="34" cy="27" fill="black" r="0.5" /><circle cx="35" cy="27" fill="black" r="0.5" /><circle cx="36" cy="27" fill="black" r="0.5" /><circle cx="41" cy="27" fill="black" r="0.5" /><circle cx="42" cy="27" fill="black" r="0.5" /><circle cx="43" cy="27" fill="black" r="0.5" /><circle cx="44" cy="27" fill="black" r="0.5" /><circle cx="45" cy="27" fill="black" r="0.5" /><circle cx="20" cy="28" fill="black" r="0.5" /><circle cx="21" cy="28" fill="black" r="0.5" /><circle cx="22" cy="28" fill="black" r="0.5" /><circle cx="23" cy="28" fill="black" r="0.5" /><circle cx="29" cy="28" fill="black" r="0.5" /><circle cx="30" cy="28" fill="black" r="0.5" /><circle cx="31" cy="28" fill="black" r="0.5" /><circle cx="32" cy="28" fill="black" r="0.5" /><circle cx="33" cy="28" fill="black" r="0.5" /><circle cx="34" cy="28" fill="black" r="0.5" /><circle cx="40" cy="28" fill="black" r="0.5" /><circle cx="41" cy="28" fill="black" r="0.5" /><circle cx="42" cy="28" fill="black" r="0.5" /><circle cx="43" cy="28" fill="black" r="0.5" /><circle cx="22" cy="29" fill="black" r="0.5" /><circle cx="23" cy="29" fill="black" r="0.5" /><circle cx="24" cy="29" fill="black" r="0.5" /><circle cx="25" cy="29" fill="black" r="0.5" /><circle cx="38" cy="29" fill="black" r="0.5" /><circle cx="39" cy="29" fill="black" r="0.5" /><circle cx="40" cy="29" fill="black" r="0.5" /><circle cx="41" cy="29" fill="black" r="0.5" /><circle cx="24" cy="30" fill="black" r="0.5" /><circle cx="25" cy="30" fill="black" r="0.5" /><circle cx="26" cy="30" fill="black" r="0.5" /><circle cx="27" cy="30" fill="black" r="0.5" /><circle cx="36" cy="30" fill="black" r="0.5" /><circle cx="37" cy="30" fill="black" r="0.5" /><circle cx="38" cy="30" fill="black" r="0.5" /><circle cx="39" cy="30" fill="black" r="0.5" /><circle cx="25" cy="31" fill="black" r="0.5" /><circle cx="26" cy="31" fill="black" r="0.5" /><circle cx="27" cy="31" fill="black" r="0.5" /><circle cx="28" cy="31" fill="black" r="0.5" /><circle cx="35" cy="31" fill="black" r="0.5" /><circle cx="36" cy="31" fill="black" r="0.5" /><circle cx="37" cy="31" fill="black" r="0.5" /><circle cx="38" cy="31" fill="black" r="0.5" /><circle cx="27" cy="32" fill="black" r="0.5" /><circle cx="28" cy="32" fill="black" r="0.5" /><circle cx="29" cy="32" fill="black" r="0.5" /><circle cx="34" cy="32" fill="black" r="0.5" /><circle cx="35" cy="32" fill="black" r="0.5" /><circle cx="36" cy="32" fill="black" r="0.5" /><circle cx="29" cy="33" fill="black" r="0.5" /><circle cx="34" cy="33" fill="black" r="0.5" /><circle cx="29" cy="34" fill="black" r="0.5" /><circle cx="34" cy="34" fill="black" r="0.5" /><circle cx="3" cy="48" fill="black" r="0.5" /><circle cx="60" cy="48" fill="black" r="0.5" /><circle cx="3" cy="49" fill="black" r="0.5" /><circle cx="60" cy="49" fill="black" r="0.5" /><circle cx="3" cy="50" fill="black" r="0.5" /><circle cx="4" cy="50" fill="black" r="0.5" /><circle cx="59" cy="50" fill="black" r="0.5" /><circle cx="60" cy="50" fill="black" r="0.5" /><circle cx="3" cy="51" fill="black" r="0.5" /><circle cx="4" cy="51" fill="black" r="0.5" /><circle cx="5" cy="51" fill="black" r="0.5" /><circle cx="6" cy="51" fill="black" r="0.5" /><circle cx="57" cy="51" fill="black" r="0.5" /><circle cx="58" cy="51" fill="black" r="0.5" /><circle cx="59" cy="51" fill="black" r="0.5" /><circle cx="60" cy="51" fill="black" r="0.5" /><circle cx="5" cy="52" fill="black" r="0.5" /><circle cx="6" cy="52" fill="black" r="0.5" /><circle cx="7" cy="52" fill="black" r="0.5" /><circle cx="8" cy="52" fill="black" r="0.5" /><circle cx="55" cy="52" fill="black" r="0.5" /><circle cx="56" cy="52" fill="black" r="0.5" /><circle cx="57" cy="52" fill="black" r="0.5" /><circle cx="58" cy="52" fill="black" r="0.5" /><circle cx="59" cy="52" fill="black" r="0.5" /><circle cx="6" cy="53" fill="black" r="0.5" /><circle cx="7" cy="53" fill="black" r="0.5" /><circle cx="8" cy="53" fill="black" r="0.5" /><circle cx="9" cy="53" fill="black" r="0.5" /><circle cx="10" cy="53" fill="black" r="0.5" /><circle cx="53" cy="53" fill="black" r="0.5" /><circle cx="54" cy="53" fill="black" r="0.5" /><circle cx="55" cy="53" fill="black" r="0.5" /><circle cx="56" cy="53" fill="black" r="0.5" /><circle cx="57" cy="53" fill="black" r="0.5" /><circle cx="8" cy="54" fill="black" r="0.5" /><circle cx="9" cy="54" fill="black" r="0.5" /><circle cx="10" cy="54" fill="black" r="0.5" /><circle cx="11" cy="54" fill="black" r="0.5" /><circle cx="52" cy="54" fill="black" r="0.5" /><circle cx="53" cy="54" fill="black" r="0.5" /><circle cx="54" cy="54" fill="black" r="0.5" /><circle cx="55" cy="54" fill="black" r="0.5" /><circle cx="10" cy="55" fill="black" r="0.5" /><circle cx="11" cy="55" fill="black" r="0.5" /><circle cx="12" cy="55" fill="black" r="0.5" /><circle cx="13" cy="55" fill="black" r="0.5" /><circle cx="50" cy="55" fill="black" r="0.5" /><circle cx="51" cy="55" fill="black" r="0.5" /><circle cx="52" cy="55" fill="black" r="0.5" /><circle cx="53" cy="55" fill="black" r="0.5" /><circle cx="12" cy="56" fill="black" r="0.5" /><circle cx="13" cy="56" fill="black" r="0.5" /><circle cx="14" cy="56" fill="black" r="0.5" /><circle cx="15" cy="56" fill="black" r="0.5" /><circle cx="48" cy="56" fill="black" r="0.5" /><circle cx="49" cy="56" fill="black" r="0.5" /><circle cx="50" cy="56" fill="black" r="0.5" /><circle cx="51" cy="56" fill="black" r="0.5" /><circle cx="13" cy="57" fill="black" r="0.5" /><circle cx="14" cy="57" fill="black" r="0.5" /><circle cx="15" cy="57" fill="black" r="0.5" /><circle cx="16" cy="57" fill="black" r="0.5" /><circle cx="17" cy="57" fill="black" r="0.5" /><circle cx="46" cy="57" fill="black" r="0.5" /><circle cx="47" cy="57" fill="black" r="0.5" /><circle cx="48" cy="57" fill="black" r="0.5" /><circle cx="49" cy="57" fill="black" r="0.5" /><circle cx="50" cy="57" fill="black" r="0.5" /><circle cx="15" cy="58" fill="black" r="0.5" /><circle cx="16" cy="58" fill="black" r="0.5" /><circle cx="17" cy="58" fill="black" r="0.5" /><circle cx="18" cy="58" fill="black" r="0.5" /><circle cx="45" cy="58" fill="black" r="0.5" /><circle cx="46" cy="58" fill="black" r="0.5" /><circle cx="47" cy="58" fill="black" r="0.5" /><circle cx="48" cy="58" fill="black" r="0.5" /><circle cx="17" cy="59" fill="black" r="0.5" /><circle cx="18" cy="59" fill="black" r="0.5" /><circle cx="19" cy="59" fill="black" r="0.5" /><circle cx="20" cy="59" fill="black" r="0.5" /><circle cx="43" cy="59" fill="black" r="0.5" /><circle cx="44" cy="59" fill="black" r="0.5" /><circle cx="45" cy="59" fill="black" r="0.5" /><circle cx="46" cy="59" fill="black" r="0.5" /><circle cx="19" cy="60" fill="black" r="0.5" /><circle cx="20" cy="60" fill="black" r="0.5" /><circle cx="21" cy="60" fill="black" r="0.5" /><circle cx="22" cy="60" fill="black" r="0.5" /><circle cx="29" cy="60" fill="black" r="0.5" /><circle cx="34" cy="60" fill="black" r="0.5" /><circle cx="41" cy="60" fill="black" r="0.5" /><circle cx="42" cy="60" fill="black" r="0.5" /><circle cx="43" cy="60" fill="black" r="0.5" /><circle cx="44" cy="60" fill="black" r="0.5" /><circle cx="20" cy="61" fill="black" r="0.5" /><circle cx="21" cy="61" fill="black" r="0.5" /><circle cx="22" cy="61" fill="black" r="0.5" /><circle cx="23" cy="61" fill="black" r="0.5" /><circle cx="24" cy="61" fill="black" r="0.5" /><circle cx="29" cy="61" fill="black" r="0.5" /><circle cx="34" cy="61" fill="black" r="0.5" /><circle cx="39" cy="61" fill="black" r="0.5" /><circle cx="40" cy="61" fill="black" r="0.5" /><circle cx="41" cy="61" fill="black" r="0.5" /><circle cx="42" cy="61" fill="black" r="0.5" /><circle cx="43" cy="61" fill="black" r="0.5" /><circle cx="22" cy="62" fill="black" r="0.5" /><circle cx="23" cy="62" fill="black" r="0.5" /><circle cx="24" cy="62" fill="black" r="0.5" /><circle cx="25" cy="62" fill="black" r="0.5" /><circle cx="26" cy="62" fill="black" r="0.5" /><circle cx="27" cy="62" fill="black" r="0.5" /><circle cx="28" cy="62" fill="black" r="0.5" /><circle cx="29" cy="62" fill="black" r="0.5" /><circle cx="34" cy="62" fill="black" r="0.5" /><circle cx="35" cy="62" fill="black" r="0.5" /><circle cx="36" cy="62" fill="black" r="0.5" /><circle cx="37" cy="62" fill="black" r="0.5" /><circle cx="38" cy="62" fill="black" r="0.5" /><circle cx="39" cy="62" fill="black" r="0.5" /><circle cx="40" cy="62" fill="black" r="0.5" /><circle cx="41" cy="62" fill="black" r="0.5" /></svg>