<?xml version="1.0" encoding="utf-8" ?>
<svg baseProfile="full" height="100%" version="1.1" width="100%" xmlns="http://www.w3.org/2000/svg" xmlns:ev="http://www.w3.org/2001/xml-events" xmlns:xlink="http://www.w3.org/1999/xlink"><defs /><circle cx="21" cy="0" fill="black" r="0.5" /><circle cx="22" cy="0" fill="black" r="0.5" /><circle cx="23" cy="0" fill="black" r="0.5" /><circle cx="24" cy="0" fill="black" r="0.5" /><circle cx="25" cy="0" fill="black" r="0.5" /><circle cx="26" cy="0" fill="black" r="0.5" /><circle cx="27" cy="0" fill="black" r="0.5" /><circle cx="28" cy="0" fill="black" r="0.5" /><circle cx="29" cy="0" fill="black" r="0.5" /><circle cx="30" cy="0" fill="black" r="0.5" /><circle cx="31" cy="0" fill="black" r="0.5" /><circle cx="32" cy="0" fill="black" r="0.5" /><circle cx="33" cy="0" fill="black" r="0.5" /><circle cx="34" cy="0" fill="black" r="0.5" /><circle cx="35" cy="0" fill="black" r="0.5" /><circle cx="36" cy="0" fill="black" r="0.5" /><circle cx="37" cy="0" fill="black" r="0.5" /><circle cx="38" cy="0" fill="black" r="0.5" /><circle cx="39" cy="0" fill="black" r="0.5" /><circle cx="40" cy="0" fill="black" r="0.5" /><circle cx="41" cy="0" fill="black" r="0.5" /><circle cx="42" cy="0" fill="black" r="0.5" /><circle cx="18" cy="1" fill="black" r="0.5" /><circle cx="19" cy="1" fill="black" r="0.5" /><circle cx="20" cy="1" fill="black" r="0.5" /><circle cx="21" cy="1" fill="black" r="0.5" /><circle cx="22" cy="1" fill="black" r="0.5" /><circle cx="23" cy="1" fill="black" r="0.5" /><circle cx="24" cy="1" fill="black" r="0.5" /><circle cx="39" cy="1" fill="black" r="0.5" /><circle cx="40" cy="1" fill="black" r="0.5" /><circle cx="41" cy="1" fill="black" r="0.5" /><circle cx="42" cy="1" fill="black" r="0.5" /><circle cx="43" cy="1" fill="black" r="0.5" /><circle cx="44" cy="1" fill="black" r="0.5" /><circle cx="45" cy="1" fill="black" r="0.5" /><circle cx="16" cy="2" fill="black" r="0.5" /><circle cx="17" cy="2" fill="black" r="0.5" /><circle cx="18" cy="2" fill="black" r="0.5" /><circle cx="19" cy="2" fill="black" r="0.5" /><circle cx="20" cy="2" fill="black" r="0.5" /><circle cx="43" cy="2" fill="black" r="0.5" /><circle cx="44" cy="2" fill="black" r="0.5" /><circle cx="45" cy="2" fill="black" r="0.5" /><circle cx="46" cy="2" fill="black" r="0.5" /><circle cx="47" cy="2" fill="black" r="0.5" /><circle cx="14" cy="3" fill="black" r="0.5" /><circle cx="15" cy="3" fill="black" r="0.5" /><circle cx="16" cy="3" fill="black" r="0.5" /><circle cx="17" cy="3" fill="black" r="0.5" /><circle cx="18" cy="3" fill="black" r="0.5" /><circle cx="45" cy="3" fill="black" r="0.5" /><circle cx="46" cy="3" fill="black" r="0.5" /><circle cx="47" cy="3" fill="black" r="0.5" /><circle cx="48" cy="3" fill="black" r="0.5" /><circle cx="49" cy="3" fill="black" r="0.5" /><circle cx="13" cy="4" fill="black" r="0.5" /><circle cx="14" cy="4" fill="black" r="0.5" /><circle cx="15" cy="4" fill="black" r="0.5" /><circle cx="16" cy="4" fill="black" r="0.5" /><circle cx="47" cy="4" fill="black" r="0.5" /><circle cx="48" cy="4" fill="black" r="0.5" /><circle cx="49" cy="4" fill="black" r="0.5" /><circle cx="50" cy="4" fill="black" r="0.5" /><circle cx="12" cy="5" fill="black" r="0.5" /><circle cx="13" cy="5" fill="black" r="0.5" /><circle cx="14" cy="5" fill="black" r="0.5" /><circle cx="49" cy="5" fill="black" r="0.5" /><circle cx="50" cy="5" fill="black" r="0.5" /><circle cx="51" cy="5" fill="black" r="0.5" /><circle cx="10" cy="6" fill="black" r="0.5" /><circle cx="11" cy="6" fill="black" r="0.5" /><circle cx="12" cy="6" fill="black" r="0.5" /><circle cx="13" cy="6" fill="black" r="0.5" /><circle cx="50" cy="6" fill="black" r="0.5" /><circle cx="51" cy="6" fill="black" r="0.5" /><circle cx="52" cy="6" fill="black" r="0.5" /><circle cx="53" cy="6" fill="black" r="0.5" /><circle cx="9" cy="7" fill="black" r="0.5" /><circle cx="10" cy="7" fill="black" r="0.5" /><circle cx="11" cy="7" fill="black" r="0.5" /><circle cx="52" cy="7" fill="black" r="0.5" /><circle cx="53" cy="7" fill="black" r="0.5" /><circle cx="54" cy="7" fill="black" r="0.5" /><circle cx="8" cy="8" fill="black" r="0.5" /><circle cx="9" cy="8" fill="black" r="0.5" /><circle cx="10" cy="8" fill="black" r="0.5" /><circle cx="53" cy="8" fill="black" r="0.5" /><circle cx="54" cy="8" fill="black" r="0.5" /><circle cx="55" cy="8" fill="black" r="0.5" /><circle cx="7" cy="9" fill="black" r="0.5" /><circle cx="8" cy="9" fill="black" r="0.5" /><circle cx="9" cy="9" fill="black" r="0.5" /><circle cx="54" cy="9" fill="black" r="0.5" /><circle cx="55" cy="9" fill="black" r="0.5" /><circle cx="56" cy="9" fill="black" r="0.5" /><circle cx="7" cy="10" fill="black" r="0.5" /><circle cx="8" cy="10" fill="black" r="0.5" /><circle cx="55" cy="10" fill="black" r="0.5" /><circle cx="56" cy="10" fill="black" r="0.5" /><circle cx="6" cy="11" fill="black" r="0.5" /><circle cx="7" cy="11" fill="black" r="0.5" /><circle cx="56" cy="11" fill="black" r="0.5" /><circle cx="57" cy="11" fill="black" r="0.5" /><circle cx="5" cy="12" fill="black" r="0.5" /><circle cx="6" cy="12" fill="black" r="0.5" /><circle cx="57" cy="12" fill="black" r="0.5" /><circle cx="58" cy="12" fill="black" r="0.5" /><circle cx="4" cy="13" fill="black" r="0.5" /><circle cx="5" cy="13" fill="black" r="0.5" /><circle cx="6" cy="13" fill="black" r="0.5" /><circle cx="29" cy="13" fill="black" r="0.5" /><circle cx="30" cy="13" fill="black" r="0.5" /><circle cx="31" cy="13" fill="black" r="0.5" /><circle cx="32" cy="13" fill="black" r="0.5" /><circle cx="33" cy="13" fill="black" r="0.5" /><circle cx="34" cy="13" fill="black" r="0.5" /><circle cx="57" cy="13" fill="black" r="0.5" /><circle cx="58" cy="13" fill="black" r="0.5" /><circle cx="59" cy="13" fill="black" r="0.5" /><circle cx="4" cy="14" fill="black" r="0.5" /><circle cx="5" cy="14" fill="black" r="0.5" /><circle cx="28" cy="14" fill="black" r="0.5" /><circle cx="29" cy="14" fill="black" r="0.5" /><circle cx="30" cy="14" fill="black" r="0.5" /><circle cx="31" cy="14" fill="black" r="0.5" /><circle cx="32" cy="14" fill="black" r="0.5" /><circle cx="33" cy="14" fill="black" r="0.5" /><circle cx="34" cy="14" fill="black" r="0.5" /><circle cx="35" cy="14" fill="black" r="0.5" /><circle cx="58" cy="14" fill="black" r="0.5" /><circle cx="59" cy="14" fill="black" r="0.5" /><circle cx="3" cy="15" fill="black" r="0.5" /><circle cx="4" cy="15" fill="black" r="0.5" /><circle cx="28" cy="15" fill="black" r="0.5" /><circle cx="29" cy="15" fill="black" r="0.5" /><circle cx="34" cy="15" fill="black" r="0.5" /><circle cx="35" cy="15" fill="black" r="0.5" /><circle cx="59" cy="15" fill="black" r="0.5" /><circle cx="60" cy="15" fill="black" r="0.5" /><circle cx="3" cy="16" fill="black" r="0.5" /><circle cx="4" cy="16" fill="black" r="0.5" /><circle cx="28" cy="16" fill="black" r="0.5" /><circle cx="35" cy="16" fill="black" r="0.5" /><circle cx="59" cy="16" fill="black" r="0.5" /><circle cx="60" cy="16" fill="black" r="0.5" /><circle cx="2" cy="17" fill="black" r="0.5" /><circle cx="3" cy="17" fill="black" r="0.5" /><circle cx="27" cy="17" fill="black" r="0.5" /><circle cx="28" cy="17" fill="black" r="0.5" /><circle cx="35" cy="17" fill="black" r="0.5" /><circle cx="36" cy="17" fill="black" r="0.5" /><circle cx="60" cy="17" fill="black" r="0.5" /><circle cx="61" cy="17" fill="black" r="0.5" /><circle cx="2" cy="18" fill="black" r="0.5" /><circle cx="3" cy="18" fill="black" r="0.5" /><circle cx="27" cy="18" fill="black" r="0.5" /><circle cx="28" cy="18" fill="black" r="0.5" /><circle cx="35" cy="18" fill="black" r="0.5" /><circle cx="36" cy="18" fill="black" r="0.5" /><circle cx="60" cy="18" fill="black" r="0.5" /><circle cx="61" cy="18" fill="black" r="0.5" /><circle cx="2" cy="19" fill="black" r="0.5" /><circle cx="28" cy="19" fill="black" r="0.5" /><circle cx="34" cy="19" fill="black" r="0.5" /><circle cx="35" cy="19" fill="black" r="0.5" /><circle cx="61" cy="19" fill="black" r="0.5" /><circle cx="1" cy="20" fill="black" r="0.5" /><circle cx="2" cy="20" fill="black" r="0.5" /><circle cx="28" cy="20" fill="black" r="0.5" /><circle cx="29" cy="20" fill="black" r="0.5" /><circle cx="30" cy="20" fill="black" r="0.5" /><circle cx="32" cy="20" fill="black" r="0.5" /><circle cx="33" cy="20" fill="black" r="0.5" /><circle cx="34" cy="20" fill="black" r="0.5" /><circle cx="35" cy="20" fill="black" r="0.5" /><circle cx="61" cy="20" fill="black" r="0.5" /><circle cx="62" cy="20" fill="black" r="0.5" /><circle cx="1" cy="21" fill="black" r="0.5" /><circle cx="29" cy="21" fill="black" r="0.5" /><circle cx="30" cy="21" fill="black" r="0.5" /><circle cx="31" cy="21" fill="black" r="0.5" /><circle cx="32" cy="21" fill="black" r="0.5" /><circle cx="33" cy="21" fill="black" r="0.5" /><circle cx="34" cy="21" fill="black" r="0.5" /><circle cx="62" cy="21" fill="black" r="0.5" /><circle cx="1" cy="22" fill="black" r="0.5" /><circle cx="31" cy="22" fill="black" r="0.5" /><circle cx="32" cy="22" fill="black" r="0.5" /><circle cx="62" cy="22" fill="black" r="0.5" /><circle cx="0" cy="23" fill="black" r="0.5" /><circle cx="1" cy="23" fill="black" r="0.5" /><circle cx="62" cy="23" fill="black" r="0.5" /><circle cx="63" cy="23" fill="black" r="0.5" /><circle cx="0" cy="24" fill="black" r="0.5" /><circle cx="1" cy="24" fill="black" r="0.5" /><circle cx="29" cy="24" fill="black" r="0.5" /><circle cx="30" cy="24" fill="black" r="0.5" /><circle cx="31" cy="24" fill="black" r="0.5" /><circle cx="32" cy="24" fill="black" r="0.5" /><circle cx="33" cy="24" fill="black" r="0.5" /><circle cx="34" cy="24" fill="black" r="0.5" /><circle cx="62" cy="24" fill="black" r="0.5" /><circle cx="63" cy="24" fill="black" r="0.5" /><circle cx="0" cy="25" fill="black" r="0.5" /><circle cx="28" cy="25" fill="black" r="0.5" /><circle cx="29" cy="25" fill="black" r="0.5" /><circle cx="30" cy="25" fill="black" r="0.5" /><circle cx="31" cy="25" fill="black" r="0.5" /><circle cx="32" cy="25" fill="black" r="0.5" /><circle cx="33" cy="25" fill="black" r="0.5" /><circle cx="34" cy="25" fill="black" r="0.5" /><circle cx="35" cy="25" fill="black" r="0.5" /><circle cx="63" cy="25" fill="black" r="0.5" /><circle cx="0" cy="26" fill="black" r="0.5" /><circle cx="28" cy="26" fill="black" r="0.5" /><circle cx="29" cy="26" fill="black" r="0.5" /><circle cx="34" cy="26" fill="black" r="0.5" /><circle cx="35" cy="26" fill="black" r="0.5" /><circle cx="63" cy="26" fill="black" r="0.5" /><circle cx="0" cy="27" fill="black" r="0.5" /><circle cx="27" cy="27" fill="black" r="0.5" /><circle cx="28" cy="27" fill="black" r="0.5" /><circle cx="35" cy="27" fill="black" r="0.5" /><circle cx="36" cy="27" fill="black" r="0.5" /><circle cx="63" cy="27" fill="black" r="0.5" /><circle cx="0" cy="28" fill="black" r="0.5" /><circle cx="27" cy="28" fill="black" r="0.5" /><circle cx="36" cy="28" fill="black" r="0.5" /><circle cx="63" cy="28" fill="black" r="0.5" /><circle cx="0" cy="29" fill="black" r="0.5" /><circle cx="27" cy="29" fill="black" r="0.5" /><circle cx="36" cy="29" fill="black" r="0.5" /><circle cx="63" cy="29" fill="black" r="0.5" /><circle cx="0" cy="30" fill="black" r="0.5" /><circle cx="63" cy="30" fill="black" r="0.5" /><circle cx="63" cy="31" fill="black" r="0.5" /><circle cx="0" cy="32" fill="black" r="0.5" /><circle cx="63" cy="32" fill="black" r="0.5" /><circle cx="0" cy="33" fill="black" r="0.5" /><circle cx="63" cy="33" fill="black" r="0.5" /><circle cx="0" cy="34" fill="black" r="0.5" /><circle cx="63" cy="34" fill="black" r="0.5" /><circle cx="0" cy="35" fill="black" r="0.5" /><circle cx="63" cy="35" fill="black" r="0.5" /><circle cx="0" cy="36" fill="black" r="0.5" /><circle cx="63" cy="36" fill="black" r="0.5" /><circle cx="0" cy="37" fill="black" r="0.5" /><circle cx="63" cy="37" fill="black" r="0.5" /><circle cx="0" cy="38" fill="black" r="0.5" /><circle cx="1" cy="38" fill="black" r="0.5" /><circle cx="62" cy="38" fill="black" r="0.5" /><circle cx="63" cy="38" fill="black" r="0.5" /><circle cx="0" cy="39" fill="black" r="0.5" /><circle cx="1" cy="39" fill="black" r="0.5" /><circle cx="62" cy="39" fill="black" r="0.5" /><circle cx="63" cy="39" fill="black" r="0.5" /><circle cx="1" cy="40" fill="black" r="0.5" /><circle cx="62" cy="40" fill="black" r="0.5" /><circle cx="1" cy="41" fill="black" r="0.5" /><circle cx="62" cy="41" fill="black" r="0.5" /><circle cx="1" cy="42" fill="black" r="0.5" /><circle cx="2" cy="42" fill="black" r="0.5" /><circle cx="61" cy="42" fill="black" r="0.5" /><circle cx="62" cy="42" fill="black" r="0.5" /><circle cx="2" cy="43" fill="black" r="0.5" /><circle cx="61" cy="43" fill="black" r="0.5" /><circle cx="2" cy="44" fill="black" r="0.5" /><circle cx="3" cy="44" fill="black" r="0.5" /><circle cx="60" cy="44" fill="black" r="0.5" /><circle cx="61" cy="44" fill="black" r="0.5" /><circle cx="2" cy="45" fill="black" r="0.5" /><circle cx="3" cy="45" fill="black" r="0.5" /><circle cx="27" cy="45" fill="black" r="0.5" /><circle cx="36" cy="45" fill="black" r="0.5" /><circle cx="60" cy="45" fill="black" r="0.5" /><circle cx="61" cy="45" fill="black" r="0.5" /><circle cx="3" cy="46" fill="black" r="0.5" /><circle cx="4" cy="46" fill="black" r="0.5" /><circle cx="27" cy="46" fill="black" r="0.5" /><circle cx="28" cy="46" fill="black" r="0.5" /><circle cx="35" cy="46" fill="black" r="0.5" /><circle cx="36" cy="46" fill="black" r="0.5" /><circle cx="59" cy="46" fill="black" r="0.5" /><circle cx="60" cy="46" fill="black" r="0.5" /><circle cx="3" cy="47" fill="black" r="0.5" /><circle cx="4" cy="47" fill="black" r="0.5" /><circle cx="27" cy="47" fill="black" r="0.5" /><circle cx="28" cy="47" fill="black" r="0.5" /><circle cx="29" cy="47" fill="black" r="0.5" /><circle cx="34" cy="47" fill="black" r="0.5" /><circle cx="35" cy="47" fill="black" r="0.5" /><circle cx="36" cy="47" fill="black" r="0.5" /><circle cx="59" cy="47" fill="black" r="0.5" /><circle cx="60" cy="47" fill="black" r="0.5" /><circle cx="4" cy="48" fill="black" r="0.5" /><circle cx="5" cy="48" fill="black" r="0.5" /><circle cx="28" cy="48" fill="black" r="0.5" /><circle cx="29" cy="48" fill="black" r="0.5" /><circle cx="30" cy="48" fill="black" r="0.5" /><circle cx="31" cy="48" fill="black" r="0.5" /><circle cx="32" cy="48" fill="black" r="0.5" /><circle cx="33" cy="48" fill="black" r="0.5" /><circle cx="34" cy="48" fill="black" r="0.5" /><circle cx="35" cy="48" fill="black" r="0.5" /><circle cx="58" cy="48" fill="black" r="0.5" /><circle cx="59" cy="48" fill="black" r="0.5" /><circle cx="4" cy="49" fill="black" r="0.5" /><circle cx="5" cy="49" fill="black" r="0.5" /><circle cx="6" cy="49" fill="black" r="0.5" /><circle cx="29" cy="49" fill="black" r="0.5" /><circle cx="30" cy="49" fill="black" r="0.5" /><circle cx="31" cy="49" fill="black" r="0.5" /><circle cx="32" cy="49" fill="black" r="0.5" /><circle cx="33" cy="49" fill="black" r="0.5" /><circle cx="34" cy="49" fill="black" r="0.5" /><circle cx="57" cy="49" fill="black" r="0.5" /><circle cx="58" cy="49" fill="black" r="0.5" /><circle cx="59" cy="49" fill="black" r="0.5" /><circle cx="5" cy="50" fill="black" r="0.5" /><circle cx="6" cy="50" fill="black" r="0.5" /><circle cx="31" cy="50" fill="black" r="0.5" /><circle cx="32" cy="50" fill="black" r="0.5" /><circle cx="57" cy="50" fill="black" r="0.5" /><circle cx="58" cy="50" fill="black" r="0.5" /><circle cx="6" cy="51" fill="black" r="0.5" /><circle cx="7" cy="51" fill="black" r="0.5" /><circle cx="56" cy="51" fill="black" r="0.5" /><circle cx="57" cy="51" fill="black" r="0.5" /><circle cx="7" cy="52" fill="black" r="0.5" /><circle cx="8" cy="52" fill="black" r="0.5" /><circle cx="55" cy="52" fill="black" r="0.5" /><circle cx="56" cy="52" fill="black" r="0.5" /><circle cx="7" cy="53" fill="black" r="0.5" /><circle cx="8" cy="53" fill="black" r="0.5" /><circle cx="9" cy="53" fill="black" r="0.5" /><circle cx="54" cy="53" fill="black" r="0.5" /><circle cx="55" cy="53" fill="black" r="0.5" /><circle cx="56" cy="53" fill="black" r="0.5" /><circle cx="8" cy="54" fill="black" r="0.5" /><circle cx="9" cy="54" fill="black" r="0.5" /><circle cx="10" cy="54" fill="black" r="0.5" /><circle cx="53" cy="54" fill="black" r="0.5" /><circle cx="54" cy="54" fill="black" r="0.5" /><circle cx="55" cy="54" fill="black" r="0.5" /><circle cx="9" cy="55" fill="black" r="0.5" /><circle cx="10" cy="55" fill="black" r="0.5" /><circle cx="11" cy="55" fill="black" r="0.5" /><circle cx="52" cy="55" fill="black" r="0.5" /><circle cx="53" cy="55" fill="black" r="0.5" /><circle cx="54" cy="55" fill="black" r="0.5" /><circle cx="10" cy="56" fill="black" r="0.5" /><circle cx="11" cy="56" fill="black" r="0.5" /><circle cx="12" cy="56" fill="black" r="0.5" /><circle cx="13" cy="56" fill="black" r="0.5" /><circle cx="50" cy="56" fill="black" r="0.5" /><circle cx="51" cy="56" fill="black" r="0.5" /><circle cx="52" cy="56" fill="black" r="0.5" /><circle cx="53" cy="56" fill="black" r="0.5" /><circle cx="12" cy="57" fill="black" r="0.5" /><circle cx="13" cy="57" fill="black" r="0.5" /><circle cx="14" cy="57" fill="black" r="0.5" /><circle cx="49" cy="57" fill="black" r="0.5" /><circle cx="50" cy="57" fill="black" r="0.5" /><circle cx="51" cy="57" fill="black" r="0.5" /><circle cx="13" cy="58" fill="black" r="0.5" /><circle cx="14" cy="58" fill="black" r="0.5" /><circle cx="15" cy="58" fill="black" r="0.5" /><circle cx="16" cy="58" fill="black" r="0.5" /><circle cx="47" cy="58" fill="black" r="0.5" /><circle cx="48" cy="58" fill="black" r="0.5" /><circle cx="49" cy="58" fill="black" r="0.5" /><circle cx="50" cy="58" fill="black" r="0.5" /><circle cx="14" cy="59" fill="black" r="0.5" /><circle cx="15" cy="59" fill="black" r="0.5" /><circle cx="16" cy="59" fill="black" r="0.5" /><circle cx="17" cy="59" fill="black" r="0.5" /><circle cx="18" cy="59" fill="black" r="0.5" /><circle cx="45" cy="59" fill="black" r="0.5" /><circle cx="46" cy="59" fill="black" r="0.5" /><circle cx="47" cy="59" fill="black" r="0.5" /><circle cx="48" cy="59" fill="black" r="0.5" /><circle cx="49" cy="59" fill="black" r="0.5" /><circle cx="16" cy="60" fill="black" r="0.5" /><circle cx="17" cy="60" fill="black" r="0.5" /><circle cx="18" cy="60" fill="black" r="0.5" /><circle cx="19" cy="60" fill="black" r="0.5" /><circle cx="20" cy="60" fill="black" r="0.5" /><circle cx="43" cy="60" fill="black" r="0.5" /><circle cx="44" cy="60" fill="black" r="0.5" /><circle cx="45" cy="60" fill="black" r="0.5" /><circle cx="46" cy="60" fill="black" r="0.5" /><circle cx="47" cy="60" fill="black" r="0.5" /><circle cx="18" cy="61" fill="black" r="0.5" /><circle cx="19" cy="61" fill="black" r="0.5" /><circle cx="20" cy="61" fill="black" r="0.5" /><circle cx="21" cy="61" fill="black" r="0.5" /><circle cx="22" cy="61" fill="black" r="0.5" /><circle cx="23" cy="61" fill="black" r="0.5" /><circle cx="24" cy="61" fill="black" r="0.5" /><circle cx="39" cy="61" fill="black" r="0.5" /><circle cx="40" cy="61" fill="black" r="0.5" /><circle cx="41" cy="61" fill="black" r="0.5" /><circle cx="42" cy="61" fill="black" r="0.5" /><circle cx="43" cy="61" fill="black" r="0.5" /><circle cx="44" cy="61" fill="black" r="0.5" /><circle cx="45" cy="61" fill="black" r="0.5" /><circle cx="21" cy="62" fill="black" r="0.5" /><circle cx="22" cy="62" fill="black" r="0.5" /><circle cx="23" cy="62" fill="black" r="0.5" /><circle cx="24" cy="62" fill="black" r="0.5" /><circle cx="25" cy="62" fill="black" r="0.5" /><circle cx="26" cy="62" fill="black" r="0.5" /><circle cx="27" cy="62" fill="black" r="0.5" /><circle cx="28" cy="62" fill="black" r="0.5" /><circle cx="29" cy="62" fill="black" r="0.5" /><circle cx="30" cy="62" fill="black" r="0.5" /><circle cx="31" cy="62" fill="black" r="0.5" /><circle cx="32" cy="62" fill="black" r="0.5" /><circle cx="33" cy="62" fill="black" r="0.5" /><circle cx="34" cy="62" fill="black" r="0.5" /><circle cx="35" cy="62" fill="black" r="0.5" /><circle cx="36" cy="62" fill="black" r="0.5" /><circle cx="37" cy="62" fill="black" r="0.5" /><circle cx="38" cy="62" fill="black" r="0.5" /><circle cx="39" cy="62" fill="black" r="0.5" /><circle cx="40" cy="62" fill="black" r="0.5" /><circle cx="41" cy="62" fill="black" r="0.5" /><circle cx="42" cy="62" fill="black" r="0.5" /></svg>