<?xml version="1.0" encoding="utf-8" ?>
<svg baseProfile="full" height="100%" version="1.1" width="100%" xmlns="http://www.w3.org/2000/svg" xmlns:ev="http://www.w3.org/2001/xml-events" xmlns:xlink="http://www.w3.org/1999/xlink"><defs /><circle cx="9" cy="8" fill="black" r="0.5" /><circle cx="10" cy="8" fill="black" r="0.5" /><circle cx="11" cy="8" fill="black" r="0.5" /><circle cx="12" cy="8" fill="black" r="0.5" /><circle cx="13" cy="8" fill="black" r="0.5" /><circle cx="14" cy="8" fill="black" r="0.5" /><circle cx="15" cy="8" fill="black" r="0.5" /><circle cx="16" cy="8" fill="black" r="0.5" /><circle cx="17" cy="8" fill="black" r="0.5" /><circle cx="18" cy="8" fill="black" r="0.5" /><circle cx="19" cy="8" fill="black" r="0.5" /><circle cx="20" cy="8" fill="black" r="0.5" /><circle cx="21" cy="8" fill="black" r="0.5" /><circle cx="22" cy="8" fill="black" r="0.5" /><circle cx="23" cy="8" fill="black" r="0.5" /><circle cx="24" cy="8" fill="black" r="0.5" /><circle cx="25" cy="8" fill="black" r="0.5" /><circle cx="26" cy="8" fill="black" r="0.5" /><circle cx="27" cy="8" fill="black" r="0.5" /><circle cx="28" cy="8" fill="black" r="0.5" /><circle cx="29" cy="8" fill="black" r="0.5" /><circle cx="30" cy="8" fill="black" r="0.5" /><circle cx="31" cy="8" fill="black" r="0.5" /><circle cx="32" cy="8" fill="black" r="0.5" /><circle cx="33" cy="8" fill="black" r="0.5" /><circle cx="34" cy="8" fill="black" r="0.5" /><circle cx="35" cy="8" fill="black" r="0.5" /><circle cx="36" cy="8" fill="black" r="0.5" /><circle cx="37" cy="8" fill="black" r="0.5" /><circle cx="38" cy="8" fill="black" r="0.5" /><circle cx="39" cy="8" fill="black" r="0.5" /><circle cx="40" cy="8" fill="black" r="0.5" /><circle cx="41" cy="8" fill="black" r="0.5" /><circle cx="42" cy="8" fill="black" r="0.5" /><circle cx="43" cy="8" fill="black" r="0.5" /><circle cx="44" cy="8" fill="black" r="0.5" /><circle cx="45" cy="8" fill="black" r="0.5" /><circle cx="46" cy="8" fill="black" r="0.5" /><circle cx="47" cy="8" fill="black" r="0.5" /><circle cx="48" cy="8" fill="black" r="0.5" /><circle cx="49" cy="8" fill="black" r="0.5" /><circle cx="50" cy="8" fill="black" r="0.5" /><circle cx="51" cy="8" fill="black" r="0.5" /><circle cx="52" cy="8" fill="black" r="0.5" /><circle cx="53" cy="8" fill="black" r="0.5" /><circle cx="54" cy="8" fill="black" r="0.5" /><circle cx="9" cy="9" fill="black" r="0.5" /><circle cx="10" cy="9" fill="black" r="0.5" /><circle cx="53" cy="9" fill="black" r="0.5" /><circle cx="54" cy="9" fill="black" r="0.5" /><circle cx="17" cy="12" fill="black" r="0.5" /><circle cx="18" cy="12" fill="black" r="0.5" /><circle cx="19" cy="12" fill="black" r="0.5" /><circle cx="20" cy="12" fill="black" r="0.5" /><circle cx="21" cy="12" fill="black" r="0.5" /><circle cx="22" cy="12" fill="black" r="0.5" /><circle cx="23" cy="12" fill="black" r="0.5" /><circle cx="24" cy="12" fill="black" r="0.5" /><circle cx="25" cy="12" fill="black" r="0.5" /><circle cx="26" cy="12" fill="black" r="0.5" /><circle cx="27" cy="12" fill="black" r="0.5" /><circle cx="28" cy="12" fill="black" r="0.5" /><circle cx="29" cy="12" fill="black" r="0.5" /><circle cx="30" cy="12" fill="black" r="0.5" /><circle cx="31" cy="12" fill="black" r="0.5" /><circle cx="32" cy="12" fill="black" r="0.5" /><circle cx="33" cy="12" fill="black" r="0.5" /><circle cx="34" cy="12" fill="black" r="0.5" /><circle cx="35" cy="12" fill="black" r="0.5" /><circle cx="36" cy="12" fill="black" r="0.5" /><circle cx="37" cy="12" fill="black" r="0.5" /><circle cx="38" cy="12" fill="black" r="0.5" /><circle cx="39" cy="12" fill="black" r="0.5" /><circle cx="40" cy="12" fill="black" r="0.5" /><circle cx="41" cy="12" fill="black" r="0.5" /><circle cx="42" cy="12" fill="black" r="0.5" /><circle cx="43" cy="12" fill="black" r="0.5" /><circle cx="44" cy="12" fill="black" r="0.5" /><circle cx="45" cy="12" fill="black" r="0.5" /><circle cx="46" cy="12" fill="black" r="0.5" /><circle cx="17" cy="13" fill="black" r="0.5" /><circle cx="18" cy="13" fill="black" r="0.5" /><circle cx="19" cy="13" fill="black" r="0.5" /><circle cx="20" cy="13" fill="black" r="0.5" /><circle cx="21" cy="13" fill="black" r="0.5" /><circle cx="22" cy="13" fill="black" r="0.5" /><circle cx="23" cy="13" fill="black" r="0.5" /><circle cx="24" cy="13" fill="black" r="0.5" /><circle cx="25" cy="13" fill="black" r="0.5" /><circle cx="26" cy="13" fill="black" r="0.5" /><circle cx="27" cy="13" fill="black" r="0.5" /><circle cx="28" cy="13" fill="black" r="0.5" /><circle cx="29" cy="13" fill="black" r="0.5" /><circle cx="30" cy="13" fill="black" r="0.5" /><circle cx="31" cy="13" fill="black" r="0.5" /><circle cx="32" cy="13" fill="black" r="0.5" /><circle cx="33" cy="13" fill="black" r="0.5" /><circle cx="34" cy="13" fill="black" r="0.5" /><circle cx="35" cy="13" fill="black" r="0.5" /><circle cx="36" cy="13" fill="black" r="0.5" /><circle cx="37" cy="13" fill="black" r="0.5" /><circle cx="38" cy="13" fill="black" r="0.5" /><circle cx="39" cy="13" fill="black" r="0.5" /><circle cx="40" cy="13" fill="black" r="0.5" /><circle cx="41" cy="13" fill="black" r="0.5" /><circle cx="42" cy="13" fill="black" r="0.5" /><circle cx="43" cy="13" fill="black" r="0.5" /><circle cx="44" cy="13" fill="black" r="0.5" /><circle cx="45" cy="13" fill="black" r="0.5" /><circle cx="46" cy="13" fill="black" r="0.5" /><circle cx="17" cy="14" fill="black" r="0.5" /><circle cx="18" cy="14" fill="black" r="0.5" /><circle cx="19" cy="14" fill="black" r="0.5" /><circle cx="20" cy="14" fill="black" r="0.5" /><circle cx="21" cy="14" fill="black" r="0.5" /><circle cx="22" cy="14" fill="black" r="0.5" /><circle cx="23" cy="14" fill="black" r="0.5" /><circle cx="24" cy="14" fill="black" r="0.5" /><circle cx="25" cy="14" fill="black" r="0.5" /><circle cx="26" cy="14" fill="black" r="0.5" /><circle cx="27" cy="14" fill="black" r="0.5" /><circle cx="28" cy="14" fill="black" r="0.5" /><circle cx="29" cy="14" fill="black" r="0.5" /><circle cx="30" cy="14" fill="black" r="0.5" /><circle cx="31" cy="14" fill="black" r="0.5" /><circle cx="32" cy="14" fill="black" r="0.5" /><circle cx="33" cy="14" fill="black" r="0.5" /><circle cx="34" cy="14" fill="black" r="0.5" /><circle cx="35" cy="14" fill="black" r="0.5" /><circle cx="36" cy="14" fill="black" r="0.5" /><circle cx="37" cy="14" fill="black" r="0.5" /><circle cx="38" cy="14" fill="black" r="0.5" /><circle cx="39" cy="14" fill="black" r="0.5" /><circle cx="40" cy="14" fill="black" r="0.5" /><circle cx="41" cy="14" fill="black" r="0.5" /><circle cx="42" cy="14" fill="black" r="0.5" /><circle cx="43" cy="14" fill="black" r="0.5" /><circle cx="44" cy="14" fill="black" r="0.5" /><circle cx="45" cy="14" fill="black" r="0.5" /><circle cx="46" cy="14" fill="black" r="0.5" /><circle cx="17" cy="15" fill="black" r="0.5" /><circle cx="18" cy="15" fill="black" r="0.5" /><circle cx="19" cy="15" fill="black" r="0.5" /><circle cx="20" cy="15" fill="black" r="0.5" /><circle cx="21" cy="15" fill="black" r="0.5" /><circle cx="22" cy="15" fill="black" r="0.5" /><circle cx="23" cy="15" fill="black" r="0.5" /><circle cx="24" cy="15" fill="black" r="0.5" /><circle cx="25" cy="15" fill="black" r="0.5" /><circle cx="26" cy="15" fill="black" r="0.5" /><circle cx="27" cy="15" fill="black" r="0.5" /><circle cx="28" cy="15" fill="black" r="0.5" /><circle cx="29" cy="15" fill="black" r="0.5" /><circle cx="30" cy="15" fill="black" r="0.5" /><circle cx="31" cy="15" fill="black" r="0.5" /><circle cx="32" cy="15" fill="black" r="0.5" /><circle cx="33" cy="15" fill="black" r="0.5" /><circle cx="34" cy="15" fill="black" r="0.5" /><circle cx="35" cy="15" fill="black" r="0.5" /><circle cx="36" cy="15" fill="black" r="0.5" /><circle cx="37" cy="15" fill="black" r="0.5" /><circle cx="38" cy="15" fill="black" r="0.5" /><circle cx="39" cy="15" fill="black" r="0.5" /><circle cx="40" cy="15" fill="black" r="0.5" /><circle cx="41" cy="15" fill="black" r="0.5" /><circle cx="42" cy="15" fill="black" r="0.5" /><circle cx="43" cy="15" fill="black" r="0.5" /><circle cx="44" cy="15" fill="black" r="0.5" /><circle cx="45" cy="15" fill="black" r="0.5" /><circle cx="46" cy="15" fill="black" r="0.5" /><circle cx="17" cy="18" fill="black" r="0.5" /><circle cx="18" cy="18" fill="black" r="0.5" /><circle cx="19" cy="18" fill="black" r="0.5" /><circle cx="20" cy="18" fill="black" r="0.5" /><circle cx="21" cy="18" fill="black" r="0.5" /><circle cx="22" cy="18" fill="black" r="0.5" /><circle cx="23" cy="18" fill="black" r="0.5" /><circle cx="24" cy="18" fill="black" r="0.5" /><circle cx="25" cy="18" fill="black" r="0.5" /><circle cx="26" cy="18" fill="black" r="0.5" /><circle cx="27" cy="18" fill="black" r="0.5" /><circle cx="28" cy="18" fill="black" r="0.5" /><circle cx="29" cy="18" fill="black" r="0.5" /><circle cx="30" cy="18" fill="black" r="0.5" /><circle cx="31" cy="18" fill="black" r="0.5" /><circle cx="32" cy="18" fill="black" r="0.5" /><circle cx="33" cy="18" fill="black" r="0.5" /><circle cx="34" cy="18" fill="black" r="0.5" /><circle cx="35" cy="18" fill="black" r="0.5" /><circle cx="36" cy="18" fill="black" r="0.5" /><circle cx="37" cy="18" fill="black" r="0.5" /><circle cx="38" cy="18" fill="black" r="0.5" /><circle cx="39" cy="18" fill="black" r="0.5" /><circle cx="40" cy="18" fill="black" r="0.5" /><circle cx="41" cy="18" fill="black" r="0.5" /><circle cx="42" cy="18" fill="black" r="0.5" /><circle cx="43" cy="18" fill="black" r="0.5" /><circle cx="44" cy="18" fill="black" r="0.5" /><circle cx="45" cy="18" fill="black" r="0.5" /><circle cx="46" cy="18" fill="black" r="0.5" /><circle cx="17" cy="19" fill="black" r="0.5" /><circle cx="18" cy="19" fill="black" r="0.5" /><circle cx="19" cy="19" fill="black" r="0.5" /><circle cx="20" cy="19" fill="black" r="0.5" /><circle cx="21" cy="19" fill="black" r="0.5" /><circle cx="22" cy="19" fill="black" r="0.5" /><circle cx="23" cy="19" fill="black" r="0.5" /><circle cx="24" cy="19" fill="black" r="0.5" /><circle cx="25" cy="19" fill="black" r="0.5" /><circle cx="26" cy="19" fill="black" r="0.5" /><circle cx="27" cy="19" fill="black" r="0.5" /><circle cx="28" cy="19" fill="black" r="0.5" /><circle cx="29" cy="19" fill="black" r="0.5" /><circle cx="30" cy="19" fill="black" r="0.5" /><circle cx="31" cy="19" fill="black" r="0.5" /><circle cx="32" cy="19" fill="black" r="0.5" /><circle cx="33" cy="19" fill="black" r="0.5" /><circle cx="34" cy="19" fill="black" r="0.5" /><circle cx="35" cy="19" fill="black" r="0.5" /><circle cx="36" cy="19" fill="black" r="0.5" /><circle cx="37" cy="19" fill="black" r="0.5" /><circle cx="38" cy="19" fill="black" r="0.5" /><circle cx="39" cy="19" fill="black" r="0.5" /><circle cx="40" cy="19" fill="black" r="0.5" /><circle cx="41" cy="19" fill="black" r="0.5" /><circle cx="42" cy="19" fill="black" r="0.5" /><circle cx="43" cy="19" fill="black" r="0.5" /><circle cx="44" cy="19" fill="black" r="0.5" /><circle cx="45" cy="19" fill="black" r="0.5" /><circle cx="46" cy="19" fill="black" r="0.5" /><circle cx="17" cy="20" fill="black" r="0.5" /><circle cx="18" cy="20" fill="black" r="0.5" /><circle cx="19" cy="20" fill="black" r="0.5" /><circle cx="20" cy="20" fill="black" r="0.5" /><circle cx="21" cy="20" fill="black" r="0.5" /><circle cx="22" cy="20" fill="black" r="0.5" /><circle cx="23" cy="20" fill="black" r="0.5" /><circle cx="24" cy="20" fill="black" r="0.5" /><circle cx="25" cy="20" fill="black" r="0.5" /><circle cx="26" cy="20" fill="black" r="0.5" /><circle cx="27" cy="20" fill="black" r="0.5" /><circle cx="28" cy="20" fill="black" r="0.5" /><circle cx="29" cy="20" fill="black" r="0.5" /><circle cx="30" cy="20" fill="black" r="0.5" /><circle cx="31" cy="20" fill="black" r="0.5" /><circle cx="32" cy="20" fill="black" r="0.5" /><circle cx="33" cy="20" fill="black" r="0.5" /><circle cx="34" cy="20" fill="black" r="0.5" /><circle cx="35" cy="20" fill="black" r="0.5" /><circle cx="36" cy="20" fill="black" r="0.5" /><circle cx="37" cy="20" fill="black" r="0.5" /><circle cx="38" cy="20" fill="black" r="0.5" /><circle cx="39" cy="20" fill="black" r="0.5" /><circle cx="40" cy="20" fill="black" r="0.5" /><circle cx="41" cy="20" fill="black" r="0.5" /><circle cx="42" cy="20" fill="black" r="0.5" /><circle cx="43" cy="20" fill="black" r="0.5" /><circle cx="44" cy="20" fill="black" r="0.5" /><circle cx="45" cy="20" fill="black" r="0.5" /><circle cx="46" cy="20" fill="black" r="0.5" /><circle cx="17" cy="21" fill="black" r="0.5" /><circle cx="18" cy="21" fill="black" r="0.5" /><circle cx="19" cy="21" fill="black" r="0.5" /><circle cx="20" cy="21" fill="black" r="0.5" /><circle cx="21" cy="21" fill="black" r="0.5" /><circle cx="22" cy="21" fill="black" r="0.5" /><circle cx="23" cy="21" fill="black" r="0.5" /><circle cx="24" cy="21" fill="black" r="0.5" /><circle cx="25" cy="21" fill="black" r="0.5" /><circle cx="26" cy="21" fill="black" r="0.5" /><circle cx="27" cy="21" fill="black" r="0.5" /><circle cx="28" cy="21" fill="black" r="0.5" /><circle cx="29" cy="21" fill="black" r="0.5" /><circle cx="30" cy="21" fill="black" r="0.5" /><circle cx="31" cy="21" fill="black" r="0.5" /><circle cx="32" cy="21" fill="black" r="0.5" /><circle cx="33" cy="21" fill="black" r="0.5" /><circle cx="34" cy="21" fill="black" r="0.5" /><circle cx="35" cy="21" fill="black" r="0.5" /><circle cx="36" cy="21" fill="black" r="0.5" /><circle cx="37" cy="21" fill="black" r="0.5" /><circle cx="38" cy="21" fill="black" r="0.5" /><circle cx="39" cy="21" fill="black" r="0.5" /><circle cx="40" cy="21" fill="black" r="0.5" /><circle cx="41" cy="21" fill="black" r="0.5" /><circle cx="42" cy="21" fill="black" r="0.5" /><circle cx="43" cy="21" fill="black" r="0.5" /><circle cx="44" cy="21" fill="black" r="0.5" /><circle cx="45" cy="21" fill="black" r="0.5" /><circle cx="46" cy="21" fill="black" r="0.5" /><circle cx="27" cy="25" fill="black" r="0.5" /><circle cx="28" cy="25" fill="black" r="0.5" /><circle cx="29" cy="25" fill="black" r="0.5" /><circle cx="30" cy="25" fill="black" r="0.5" /><circle cx="31" cy="25" fill="black" r="0.5" /><circle cx="32" cy="25" fill="black" r="0.5" /><circle cx="33" cy="25" fill="black" r="0.5" /><circle cx="34" cy="25" fill="black" r="0.5" /><circle cx="35" cy="25" fill="black" r="0.5" /><circle cx="36" cy="25" fill="black" r="0.5" /><circle cx="26" cy="26" fill="black" r="0.5" /><circle cx="27" cy="26" fill="black" r="0.5" /><circle cx="28" cy="26" fill="black" r="0.5" /><circle cx="29" cy="26" fill="black" r="0.5" /><circle cx="30" cy="26" fill="black" r="0.5" /><circle cx="31" cy="26" fill="black" r="0.5" /><circle cx="32" cy="26" fill="black" r="0.5" /><circle cx="33" cy="26" fill="black" r="0.5" /><circle cx="34" cy="26" fill="black" r="0.5" /><circle cx="35" cy="26" fill="black" r="0.5" /><circle cx="36" cy="26" fill="black" r="0.5" /><circle cx="37" cy="26" fill="black" r="0.5" /><circle cx="25" cy="27" fill="black" r="0.5" /><circle cx="26" cy="27" fill="black" r="0.5" /><circle cx="27" cy="27" fill="black" r="0.5" /><circle cx="28" cy="27" fill="black" r="0.5" /><circle cx="29" cy="27" fill="black" r="0.5" /><circle cx="30" cy="27" fill="black" r="0.5" /><circle cx="31" cy="27" fill="black" r="0.5" /><circle cx="32" cy="27" fill="black" r="0.5" /><circle cx="33" cy="27" fill="black" r="0.5" /><circle cx="34" cy="27" fill="black" r="0.5" /><circle cx="35" cy="27" fill="black" r="0.5" /><circle cx="36" cy="27" fill="black" r="0.5" /><circle cx="37" cy="27" fill="black" r="0.5" /><circle cx="38" cy="27" fill="black" r="0.5" /><circle cx="23" cy="28" fill="black" r="0.5" /><circle cx="24" cy="28" fill="black" r="0.5" /><circle cx="25" cy="28" fill="black" r="0.5" /><circle cx="26" cy="28" fill="black" r="0.5" /><circle cx="27" cy="28" fill="black" r="0.5" /><circle cx="28" cy="28" fill="black" r="0.5" /><circle cx="29" cy="28" fill="black" r="0.5" /><circle cx="30" cy="28" fill="black" r="0.5" /><circle cx="31" cy="28" fill="black" r="0.5" /><circle cx="32" cy="28" fill="black" r="0.5" /><circle cx="33" cy="28" fill="black" r="0.5" /><circle cx="34" cy="28" fill="black" r="0.5" /><circle cx="35" cy="28" fill="black" r="0.5" /><circle cx="36" cy="28" fill="black" r="0.5" /><circle cx="37" cy="28" fill="black" r="0.5" /><circle cx="38" cy="28" fill="black" r="0.5" /><circle cx="39" cy="28" fill="black" r="0.5" /><circle cx="40" cy="28" fill="black" r="0.5" /><circle cx="22" cy="29" fill="black" r="0.5" /><circle cx="23" cy="29" fill="black" r="0.5" /><circle cx="24" cy="29" fill="black" r="0.5" /><circle cx="25" cy="29" fill="black" r="0.5" /><circle cx="26" cy="29" fill="black" r="0.5" /><circle cx="27" cy="29" fill="black" r="0.5" /><circle cx="28" cy="29" fill="black" r="0.5" /><circle cx="35" cy="29" fill="black" r="0.5" /><circle cx="36" cy="29" fill="black" r="0.5" /><circle cx="37" cy="29" fill="black" r="0.5" /><circle cx="38" cy="29" fill="black" r="0.5" /><circle cx="39" cy="29" fill="black" r="0.5" /><circle cx="40" cy="29" fill="black" r="0.5" /><circle cx="41" cy="29" fill="black" r="0.5" /><circle cx="22" cy="30" fill="black" r="0.5" /><circle cx="23" cy="30" fill="black" r="0.5" /><circle cx="24" cy="30" fill="black" r="0.5" /><circle cx="25" cy="30" fill="black" r="0.5" /><circle cx="26" cy="30" fill="black" r="0.5" /><circle cx="27" cy="30" fill="black" r="0.5" /><circle cx="36" cy="30" fill="black" r="0.5" /><circle cx="37" cy="30" fill="black" r="0.5" /><circle cx="38" cy="30" fill="black" r="0.5" /><circle cx="39" cy="30" fill="black" r="0.5" /><circle cx="40" cy="30" fill="black" r="0.5" /><circle cx="41" cy="30" fill="black" r="0.5" /><circle cx="22" cy="31" fill="black" r="0.5" /><circle cx="24" cy="31" fill="black" r="0.5" /><circle cx="39" cy="31" fill="black" r="0.5" /><circle cx="41" cy="31" fill="black" r="0.5" /><circle cx="22" cy="32" fill="black" r="0.5" /><circle cx="24" cy="32" fill="black" r="0.5" /><circle cx="29" cy="32" fill="black" r="0.5" /><circle cx="30" cy="32" fill="black" r="0.5" /><circle cx="31" cy="32" fill="black" r="0.5" /><circle cx="32" cy="32" fill="black" r="0.5" /><circle cx="33" cy="32" fill="black" r="0.5" /><circle cx="34" cy="32" fill="black" r="0.5" /><circle cx="41" cy="32" fill="black" r="0.5" /><circle cx="21" cy="33" fill="black" r="0.5" /><circle cx="22" cy="33" fill="black" r="0.5" /><circle cx="23" cy="33" fill="black" r="0.5" /><circle cx="24" cy="33" fill="black" r="0.5" /><circle cx="28" cy="33" fill="black" r="0.5" /><circle cx="29" cy="33" fill="black" r="0.5" /><circle cx="30" cy="33" fill="black" r="0.5" /><circle cx="31" cy="33" fill="black" r="0.5" /><circle cx="32" cy="33" fill="black" r="0.5" /><circle cx="33" cy="33" fill="black" r="0.5" /><circle cx="34" cy="33" fill="black" r="0.5" /><circle cx="35" cy="33" fill="black" r="0.5" /><circle cx="39" cy="33" fill="black" r="0.5" /><circle cx="40" cy="33" fill="black" r="0.5" /><circle cx="41" cy="33" fill="black" r="0.5" /><circle cx="42" cy="33" fill="black" r="0.5" /><circle cx="21" cy="34" fill="black" r="0.5" /><circle cx="22" cy="34" fill="black" r="0.5" /><circle cx="23" cy="34" fill="black" r="0.5" /><circle cx="24" cy="34" fill="black" r="0.5" /><circle cx="28" cy="34" fill="black" r="0.5" /><circle cx="29" cy="34" fill="black" r="0.5" /><circle cx="34" cy="34" fill="black" r="0.5" /><circle cx="35" cy="34" fill="black" r="0.5" /><circle cx="39" cy="34" fill="black" r="0.5" /><circle cx="40" cy="34" fill="black" r="0.5" /><circle cx="41" cy="34" fill="black" r="0.5" /><circle cx="42" cy="34" fill="black" r="0.5" /><circle cx="9" cy="35" fill="black" r="0.5" /><circle cx="21" cy="35" fill="black" r="0.5" /><circle cx="22" cy="35" fill="black" r="0.5" /><circle cx="23" cy="35" fill="black" r="0.5" /><circle cx="28" cy="35" fill="black" r="0.5" /><circle cx="35" cy="35" fill="black" r="0.5" /><circle cx="40" cy="35" fill="black" r="0.5" /><circle cx="41" cy="35" fill="black" r="0.5" /><circle cx="42" cy="35" fill="black" r="0.5" /><circle cx="54" cy="35" fill="black" r="0.5" /><circle cx="9" cy="36" fill="black" r="0.5" /><circle cx="10" cy="36" fill="black" r="0.5" /><circle cx="11" cy="36" fill="black" r="0.5" /><circle cx="12" cy="36" fill="black" r="0.5" /><circle cx="13" cy="36" fill="black" r="0.5" /><circle cx="14" cy="36" fill="black" r="0.5" /><circle cx="15" cy="36" fill="black" r="0.5" /><circle cx="16" cy="36" fill="black" r="0.5" /><circle cx="17" cy="36" fill="black" r="0.5" /><circle cx="18" cy="36" fill="black" r="0.5" /><circle cx="19" cy="36" fill="black" r="0.5" /><circle cx="20" cy="36" fill="black" r="0.5" /><circle cx="21" cy="36" fill="black" r="0.5" /><circle cx="22" cy="36" fill="black" r="0.5" /><circle cx="23" cy="36" fill="black" r="0.5" /><circle cx="28" cy="36" fill="black" r="0.5" /><circle cx="35" cy="36" fill="black" r="0.5" /><circle cx="40" cy="36" fill="black" r="0.5" /><circle cx="41" cy="36" fill="black" r="0.5" /><circle cx="42" cy="36" fill="black" r="0.5" /><circle cx="43" cy="36" fill="black" r="0.5" /><circle cx="44" cy="36" fill="black" r="0.5" /><circle cx="45" cy="36" fill="black" r="0.5" /><circle cx="46" cy="36" fill="black" r="0.5" /><circle cx="47" cy="36" fill="black" r="0.5" /><circle cx="48" cy="36" fill="black" r="0.5" /><circle cx="49" cy="36" fill="black" r="0.5" /><circle cx="50" cy="36" fill="black" r="0.5" /><circle cx="51" cy="36" fill="black" r="0.5" /><circle cx="52" cy="36" fill="black" r="0.5" /><circle cx="53" cy="36" fill="black" r="0.5" /><circle cx="54" cy="36" fill="black" r="0.5" /><circle cx="9" cy="37" fill="black" r="0.5" /><circle cx="10" cy="37" fill="black" r="0.5" /><circle cx="11" cy="37" fill="black" r="0.5" /><circle cx="12" cy="37" fill="black" r="0.5" /><circle cx="13" cy="37" fill="black" r="0.5" /><circle cx="14" cy="37" fill="black" r="0.5" /><circle cx="15" cy="37" fill="black" r="0.5" /><circle cx="16" cy="37" fill="black" r="0.5" /><circle cx="17" cy="37" fill="black" r="0.5" /><circle cx="18" cy="37" fill="black" r="0.5" /><circle cx="19" cy="37" fill="black" r="0.5" /><circle cx="20" cy="37" fill="black" r="0.5" /><circle cx="21" cy="37" fill="black" r="0.5" /><circle cx="23" cy="37" fill="black" r="0.5" /><circle cx="24" cy="37" fill="black" r="0.5" /><circle cx="28" cy="37" fill="black" r="0.5" /><circle cx="29" cy="37" fill="black" r="0.5" /><circle cx="34" cy="37" fill="black" r="0.5" /><circle cx="35" cy="37" fill="black" r="0.5" /><circle cx="39" cy="37" fill="black" r="0.5" /><circle cx="40" cy="37" fill="black" r="0.5" /><circle cx="42" cy="37" fill="black" r="0.5" /><circle cx="43" cy="37" fill="black" r="0.5" /><circle cx="44" cy="37" fill="black" r="0.5" /><circle cx="45" cy="37" fill="black" r="0.5" /><circle cx="46" cy="37" fill="black" r="0.5" /><circle cx="47" cy="37" fill="black" r="0.5" /><circle cx="48" cy="37" fill="black" r="0.5" /><circle cx="49" cy="37" fill="black" r="0.5" /><circle cx="50" cy="37" fill="black" r="0.5" /><circle cx="51" cy="37" fill="black" r="0.5" /><circle cx="52" cy="37" fill="black" r="0.5" /><circle cx="53" cy="37" fill="black" r="0.5" /><circle cx="54" cy="37" fill="black" r="0.5" /><circle cx="23" cy="38" fill="black" r="0.5" /><circle cx="24" cy="38" fill="black" r="0.5" /><circle cx="28" cy="38" fill="black" r="0.5" /><circle cx="29" cy="38" fill="black" r="0.5" /><circle cx="30" cy="38" fill="black" r="0.5" /><circle cx="33" cy="38" fill="black" r="0.5" /><circle cx="34" cy="38" fill="black" r="0.5" /><circle cx="35" cy="38" fill="black" r="0.5" /><circle cx="39" cy="38" fill="black" r="0.5" /><circle cx="40" cy="38" fill="black" r="0.5" /><circle cx="24" cy="39" fill="black" r="0.5" /><circle cx="29" cy="39" fill="black" r="0.5" /><circle cx="30" cy="39" fill="black" r="0.5" /><circle cx="31" cy="39" fill="black" r="0.5" /><circle cx="32" cy="39" fill="black" r="0.5" /><circle cx="33" cy="39" fill="black" r="0.5" /><circle cx="34" cy="39" fill="black" r="0.5" /><circle cx="39" cy="39" fill="black" r="0.5" /><circle cx="24" cy="40" fill="black" r="0.5" /><circle cx="30" cy="40" fill="black" r="0.5" /><circle cx="31" cy="40" fill="black" r="0.5" /><circle cx="32" cy="40" fill="black" r="0.5" /><circle cx="33" cy="40" fill="black" r="0.5" /><circle cx="39" cy="40" fill="black" r="0.5" /><circle cx="24" cy="41" fill="black" r="0.5" /><circle cx="25" cy="41" fill="black" r="0.5" /><circle cx="26" cy="41" fill="black" r="0.5" /><circle cx="37" cy="41" fill="black" r="0.5" /><circle cx="38" cy="41" fill="black" r="0.5" /><circle cx="39" cy="41" fill="black" r="0.5" /><circle cx="24" cy="42" fill="black" r="0.5" /><circle cx="25" cy="42" fill="black" r="0.5" /><circle cx="26" cy="42" fill="black" r="0.5" /><circle cx="27" cy="42" fill="black" r="0.5" /><circle cx="36" cy="42" fill="black" r="0.5" /><circle cx="37" cy="42" fill="black" r="0.5" /><circle cx="38" cy="42" fill="black" r="0.5" /><circle cx="39" cy="42" fill="black" r="0.5" /><circle cx="24" cy="43" fill="black" r="0.5" /><circle cx="25" cy="43" fill="black" r="0.5" /><circle cx="26" cy="43" fill="black" r="0.5" /><circle cx="27" cy="43" fill="black" r="0.5" /><circle cx="28" cy="43" fill="black" r="0.5" /><circle cx="31" cy="43" fill="black" r="0.5" /><circle cx="32" cy="43" fill="black" r="0.5" /><circle cx="35" cy="43" fill="black" r="0.5" /><circle cx="36" cy="43" fill="black" r="0.5" /><circle cx="37" cy="43" fill="black" r="0.5" /><circle cx="38" cy="43" fill="black" r="0.5" /><circle cx="39" cy="43" fill="black" r="0.5" /><circle cx="24" cy="44" fill="black" r="0.5" /><circle cx="25" cy="44" fill="black" r="0.5" /><circle cx="26" cy="44" fill="black" r="0.5" /><circle cx="27" cy="44" fill="black" r="0.5" /><circle cx="28" cy="44" fill="black" r="0.5" /><circle cx="29" cy="44" fill="black" r="0.5" /><circle cx="30" cy="44" fill="black" r="0.5" /><circle cx="31" cy="44" fill="black" r="0.5" /><circle cx="32" cy="44" fill="black" r="0.5" /><circle cx="33" cy="44" fill="black" r="0.5" /><circle cx="34" cy="44" fill="black" r="0.5" /><circle cx="35" cy="44" fill="black" r="0.5" /><circle cx="36" cy="44" fill="black" r="0.5" /><circle cx="37" cy="44" fill="black" r="0.5" /><circle cx="38" cy="44" fill="black" r="0.5" /><circle cx="39" cy="44" fill="black" r="0.5" /><circle cx="23" cy="45" fill="black" r="0.5" /><circle cx="24" cy="45" fill="black" r="0.5" /><circle cx="26" cy="45" fill="black" r="0.5" /><circle cx="27" cy="45" fill="black" r="0.5" /><circle cx="28" cy="45" fill="black" r="0.5" /><circle cx="29" cy="45" fill="black" r="0.5" /><circle cx="30" cy="45" fill="black" r="0.5" /><circle cx="33" cy="45" fill="black" r="0.5" /><circle cx="34" cy="45" fill="black" r="0.5" /><circle cx="35" cy="45" fill="black" r="0.5" /><circle cx="36" cy="45" fill="black" r="0.5" /><circle cx="37" cy="45" fill="black" r="0.5" /><circle cx="39" cy="45" fill="black" r="0.5" /><circle cx="40" cy="45" fill="black" r="0.5" /><circle cx="23" cy="46" fill="black" r="0.5" /><circle cx="24" cy="46" fill="black" r="0.5" /><circle cx="27" cy="46" fill="black" r="0.5" /><circle cx="28" cy="46" fill="black" r="0.5" /><circle cx="29" cy="46" fill="black" r="0.5" /><circle cx="30" cy="46" fill="black" r="0.5" /><circle cx="33" cy="46" fill="black" r="0.5" /><circle cx="34" cy="46" fill="black" r="0.5" /><circle cx="35" cy="46" fill="black" r="0.5" /><circle cx="36" cy="46" fill="black" r="0.5" /><circle cx="39" cy="46" fill="black" r="0.5" /><circle cx="40" cy="46" fill="black" r="0.5" /><circle cx="22" cy="47" fill="black" r="0.5" /><circle cx="23" cy="47" fill="black" r="0.5" /><circle cx="28" cy="47" fill="black" r="0.5" /><circle cx="29" cy="47" fill="black" r="0.5" /><circle cx="30" cy="47" fill="black" r="0.5" /><circle cx="33" cy="47" fill="black" r="0.5" /><circle cx="34" cy="47" fill="black" r="0.5" /><circle cx="35" cy="47" fill="black" r="0.5" /><circle cx="40" cy="47" fill="black" r="0.5" /><circle cx="41" cy="47" fill="black" r="0.5" /><circle cx="22" cy="48" fill="black" r="0.5" /><circle cx="23" cy="48" fill="black" r="0.5" /><circle cx="29" cy="48" fill="black" r="0.5" /><circle cx="34" cy="48" fill="black" r="0.5" /><circle cx="40" cy="48" fill="black" r="0.5" /><circle cx="41" cy="48" fill="black" r="0.5" /><circle cx="22" cy="49" fill="black" r="0.5" /><circle cx="28" cy="49" fill="black" r="0.5" /><circle cx="29" cy="49" fill="black" r="0.5" /><circle cx="34" cy="49" fill="black" r="0.5" /><circle cx="35" cy="49" fill="black" r="0.5" /><circle cx="41" cy="49" fill="black" r="0.5" /><circle cx="21" cy="50" fill="black" r="0.5" /><circle cx="22" cy="50" fill="black" r="0.5" /><circle cx="24" cy="50" fill="black" r="0.5" /><circle cx="25" cy="50" fill="black" r="0.5" /><circle cx="28" cy="50" fill="black" r="0.5" /><circle cx="29" cy="50" fill="black" r="0.5" /><circle cx="34" cy="50" fill="black" r="0.5" /><circle cx="35" cy="50" fill="black" r="0.5" /><circle cx="38" cy="50" fill="black" r="0.5" /><circle cx="39" cy="50" fill="black" r="0.5" /><circle cx="41" cy="50" fill="black" r="0.5" /><circle cx="42" cy="50" fill="black" r="0.5" /><circle cx="21" cy="51" fill="black" r="0.5" /><circle cx="22" cy="51" fill="black" r="0.5" /><circle cx="23" cy="51" fill="black" r="0.5" /><circle cx="24" cy="51" fill="black" r="0.5" /><circle cx="25" cy="51" fill="black" r="0.5" /><circle cx="27" cy="51" fill="black" r="0.5" /><circle cx="28" cy="51" fill="black" r="0.5" /><circle cx="35" cy="51" fill="black" r="0.5" /><circle cx="36" cy="51" fill="black" r="0.5" /><circle cx="38" cy="51" fill="black" r="0.5" /><circle cx="39" cy="51" fill="black" r="0.5" /><circle cx="40" cy="51" fill="black" r="0.5" /><circle cx="41" cy="51" fill="black" r="0.5" /><circle cx="42" cy="51" fill="black" r="0.5" /><circle cx="21" cy="52" fill="black" r="0.5" /><circle cx="22" cy="52" fill="black" r="0.5" /><circle cx="23" cy="52" fill="black" r="0.5" /><circle cx="24" cy="52" fill="black" r="0.5" /><circle cx="25" cy="52" fill="black" r="0.5" /><circle cx="27" cy="52" fill="black" r="0.5" /><circle cx="28" cy="52" fill="black" r="0.5" /><circle cx="35" cy="52" fill="black" r="0.5" /><circle cx="36" cy="52" fill="black" r="0.5" /><circle cx="38" cy="52" fill="black" r="0.5" /><circle cx="39" cy="52" fill="black" r="0.5" /><circle cx="40" cy="52" fill="black" r="0.5" /><circle cx="41" cy="52" fill="black" r="0.5" /><circle cx="42" cy="52" fill="black" r="0.5" /><circle cx="21" cy="53" fill="black" r="0.5" /><circle cx="22" cy="53" fill="black" r="0.5" /><circle cx="23" cy="53" fill="black" r="0.5" /><circle cx="25" cy="53" fill="black" r="0.5" /><circle cx="26" cy="53" fill="black" r="0.5" /><circle cx="27" cy="53" fill="black" r="0.5" /><circle cx="36" cy="53" fill="black" r="0.5" /><circle cx="37" cy="53" fill="black" r="0.5" /><circle cx="38" cy="53" fill="black" r="0.5" /><circle cx="40" cy="53" fill="black" r="0.5" /><circle cx="41" cy="53" fill="black" r="0.5" /><circle cx="42" cy="53" fill="black" r="0.5" /><circle cx="25" cy="54" fill="black" r="0.5" /><circle cx="26" cy="54" fill="black" r="0.5" /><circle cx="27" cy="54" fill="black" r="0.5" /><circle cx="36" cy="54" fill="black" r="0.5" /><circle cx="37" cy="54" fill="black" r="0.5" /><circle cx="38" cy="54" fill="black" r="0.5" /></svg>